<?xml version="1.0" encoding="UTF-8" standalone="no"?>
<!-- Created with Inkscape (http://www.inkscape.org/) -->

<svg
   xmlns:dc="http://purl.org/dc/elements/1.1/"
   xmlns:cc="http://creativecommons.org/ns#"
   xmlns:rdf="http://www.w3.org/1999/02/22-rdf-syntax-ns#"
   xmlns:svg="http://www.w3.org/2000/svg"
   xmlns="http://www.w3.org/2000/svg"
   xmlns:sodipodi="http://sodipodi.sourceforge.net/DTD/sodipodi-0.dtd"
   xmlns:inkscape="http://www.inkscape.org/namespaces/inkscape"
   width="68.1875"
   height="89.8125"
   id="svg3054"
   version="1.1"
   inkscape:version="0.48.3.1 r9886"
   sodipodi:docname="spade.svg">
  <defs
     id="defs3056" />
  <sodipodi:namedview
     id="base"
     pagecolor="#ffffff"
     bordercolor="#666666"
     borderopacity="1.0"
     inkscape:pageopacity="0.0"
     inkscape:pageshadow="2"
     inkscape:zoom="0.35"
     inkscape:cx="34.09375"
     inkscape:cy="44.906247"
     inkscape:document-units="px"
     inkscape:current-layer="layer1"
     showgrid="false"
     inkscape:window-width="472"
     inkscape:window-height="383"
     inkscape:window-x="1242"
     inkscape:window-y="163"
     inkscape:window-maximized="0"
     fit-margin-top="0"
     fit-margin-left="0"
     fit-margin-right="0"
     fit-margin-bottom="0" />
  <metadata
     id="metadata3059">
    <rdf:RDF>
      <cc:Work
         rdf:about="">
        <dc:format>image/svg+xml</dc:format>
        <dc:type
           rdf:resource="http://purl.org/dc/dcmitype/StillImage" />
        <dc:title></dc:title>
      </cc:Work>
    </rdf:RDF>
  </metadata>
  <g
     inkscape:label="Layer 1"
     inkscape:groupmode="layer"
     id="layer1"
     transform="translate(-340.90625,-487.45593)">
    <path
       inkscape:connector-curvature="0"
       id="path1939"
       d="m 375,487.45593 c -1.2187,5.06258 -3.0937,9.60945 -5.625,13.59375 -2.53119,3.98444 -7.03901,8.8985 -13.53125,14.78125 -6.49214,5.88287 -10.6093,10.39067 -12.34375,13.53125 -1.73429,3.14066 -2.59369,6.32816 -2.59375,9.5625 8e-5,4.50003 1.50006,8.25002 4.5,11.25 3.00008,3.00002 6.65631,4.50001 10.96875,4.5 7.71991,-10e-6 13.69091,-5.6368 17.625,-11.78125 -0.29894,6.71846 -1.40595,12.0971 -3.34375,16.125 -2.08588,4.33593 -5.27981,7.92398 -9.59375,10.78125 -2.90481,1.92395 -8.14055,3.60938 -15.6875,5.0625 l -0.5625,2.40625 30.15625,0 30.1875,0 -0.5625,-2.40625 c -7.54696,-1.45313 -12.7827,-3.13855 -15.6875,-5.0625 -4.31394,-2.85729 -7.50786,-6.44531 -9.59375,-10.78125 -1.93491,-4.0219 -3.04283,-9.38931 -3.34375,-16.09375 3.93435,6.13587 9.94555,11.74999 17.65625,11.75 4.31245,1e-5 7.96867,-1.49998 10.96875,-4.5 2.99991,-2.99998 4.49992,-6.74997 4.5,-11.25 -9e-5,-3.23434 -0.85946,-6.42184 -2.59375,-9.5625 -1.73447,-3.14058 -5.85162,-7.64838 -12.34375,-13.53125 -6.49223,-5.88275 -11.00005,-10.79681 -13.53125,-14.78125 -2.53129,-3.9843 -4.40629,-8.53117 -5.625,-13.59375 z"
       style="font-size:144px;font-style:normal;font-weight:normal;fill:#000000;fill-opacity:1;stroke:none;font-family:Bitstream Vera Sans" />
  </g>
</svg>
