<?xml version="1.0" standalone="no"?>
<!DOCTYPE svg PUBLIC "-//W3C//DTD SVG 1.1//EN" "http://www.w3.org/Graphics/SVG/1.1/DTD/svg11.dtd" >
<svg xmlns="http://www.w3.org/2000/svg">
<metadata></metadata>
<defs>
<font id="uralitafina" horiz-adv-x="1292" >
<font-face units-per-em="2048" ascent="1536" descent="-512" />
<missing-glyph horiz-adv-x="696" />
<glyph horiz-adv-x="2048" />
<glyph horiz-adv-x="2048" />
<glyph unicode="&#xd;" horiz-adv-x="696" />
<glyph unicode=" "  horiz-adv-x="696" />
<glyph unicode="&#x09;" horiz-adv-x="696" />
<glyph unicode="&#xa0;" horiz-adv-x="696" />
<glyph unicode="!" horiz-adv-x="366" d="M147 0v88h68v-88h-68zM164 246v1188h39v-1188h-39z" />
<glyph unicode="'" horiz-adv-x="264" d="M86 1327l76 209h47l-84 -209h-39z" />
<glyph unicode="," horiz-adv-x="272" d="M70 -66l32 154h68l-33 -154h-67z" />
<glyph unicode="-" horiz-adv-x="729" d="M178 766v39h406v-39h-406z" />
<glyph unicode="." horiz-adv-x="284" d="M102 0v88h68v-88h-68z" />
<glyph unicode="0" horiz-adv-x="1331" d="M100 717q0 162 42 297t118 233.5t180.5 152.5t227.5 54q178 0 315 -113l53 93h43l-67 -117q111 -98 166 -254t55 -346q0 -160 -41 -295t-116 -233.5t-179 -153.5t-229 -55q-104 0 -193.5 37.5t-161.5 107.5l-71 -125h-43l88 152q-88 100 -137.5 244.5t-49.5 320.5z M139 717q0 -166 44 -301t124 -230l656 1123q-61 51 -135 78.5t-160 27.5q-117 0 -214.5 -51t-167 -143.5t-108.5 -221t-39 -282.5zM334 158q66 -66 151 -103t183 -37q117 0 214 51.5t166.5 143.5t108.5 221t39 283q0 184 -54.5 329.5t-150.5 237.5z" />
<glyph unicode="1" horiz-adv-x="520" d="M8 1237l316 207l30 -17v-1388h121v-39h-280v39h120v1354l-284 -189z" />
<glyph unicode="2" horiz-adv-x="919" d="M106 20q0 72 48.5 151t122 163t157.5 175t158 185t122 193.5t48 202.5q0 158 -76 242.5t-215 84.5q-59 0 -117.5 -17.5t-104.5 -53t-75 -91t-29 -131.5q0 -186 154 -186q33 0 61.5 15.5t49 38t32 49t11.5 49.5h36q0 -37 -16 -72t-44 -60.5t-61.5 -42t-68.5 -16.5 q-92 0 -142.5 59.5t-50.5 165.5q0 74 28 134.5t77 104.5t115.5 67.5t144.5 23.5q156 0 243 -95t87 -269q0 -104 -46 -204t-116 -194t-153 -182t-155.5 -170t-124.5 -158t-61 -143h617v258h39v-277l-19 -20h-657z" />
<glyph unicode="3" horiz-adv-x="956" d="M106 295q0 115 63.5 175t160.5 60v-38q-82 0 -134.5 -50.5t-52.5 -150.5q0 -80 33 -132.5t82 -84t104.5 -44t102.5 -12.5q68 0 132.5 24t114.5 69t81.5 110.5t31.5 149.5q0 70 -28.5 133t-76.5 111.5t-109.5 80t-129.5 37.5l2 37q147 0 226 84t79 236q0 154 -85 239.5 t-250 85.5q-147 0 -228.5 -71.5t-81.5 -217.5q0 -2 2 -25.5t13.5 -51t35 -51t66.5 -23.5q33 0 61.5 15.5t49 38t32 49t11.5 48.5h39q0 -35 -16.5 -67.5t-42 -60t-60.5 -44t-72 -16.5q-72 0 -114 59.5t-42 151.5q0 133 90.5 219t260.5 86q180 0 275 -99.5t95 -264.5 q0 -139 -65.5 -230.5t-181.5 -118.5q137 -49 209.5 -147t72.5 -227q0 -90 -32.5 -161t-89 -122t-130 -77.5t-155.5 -26.5q-76 0 -140.5 23.5t-110.5 64.5t-72 99t-26 128z" />
<glyph unicode="4" horiz-adv-x="921" d="M27 1270q0 27 8 59.5t29.5 60t57.5 46t89 18.5q98 0 157.5 -68.5t59.5 -222.5q0 -104 -28.5 -196.5t-74.5 -172t-102.5 -147t-113.5 -125.5h557v912h36v-912h154v-39h-154v-444h121v-39h-276v39h119v444h-603l-14 33q66 63 127.5 135t108.5 152t75.5 169t28.5 191 q0 135 -48 194.5t-130 59.5q-43 0 -70.5 -14t-45 -35.5t-23.5 -47.5t-6 -46q0 -39 17 -75t58 -56l-18 -35q-45 23 -70.5 66t-25.5 96z" />
<glyph unicode="5" horiz-adv-x="997" d="M98 315q0 45 11.5 91.5t36 83t63.5 59t92 22.5q51 0 86 -18t55.5 -41t29.5 -41t9 -16l-37 -13q0 4 -8 18.5t-26.5 31t-45 28.5t-63.5 12q-84 0 -124 -65.5t-40 -151.5q0 -84 33 -140t84 -91t114.5 -50.5t123.5 -15.5q172 0 269 106.5t97 287.5q0 61 -15.5 125.5 t-59.5 117t-120.5 86t-199.5 33.5h-291l-18 21v620l18 19h637l18 -19v-276h-39v258h-595v-584h270q227 0 338 -119q96 -102 96 -282q0 -201 -110.5 -316.5t-299.5 -115.5q-84 0 -155.5 23.5t-123.5 67.5t-81 106.5t-29 137.5z" />
<glyph unicode="6" horiz-adv-x="1005" d="M80 586q0 193 55 349.5t157.5 267t246 171t321.5 60.5v-37q-170 0 -306 -57.5t-233.5 -163t-149.5 -256t-52 -334.5q0 -119 32.5 -222.5t91 -180.5t137.5 -121t169 -44q166 0 263 105.5t97 290.5q0 158 -73.5 249t-194.5 91q-39 0 -77 -11.5t-67.5 -33t-48 -53 t-18.5 -70.5h-39q0 49 21.5 87t57.5 64.5t80 41t91 14.5q78 0 135.5 -32t96 -85t57 -122t18.5 -140q0 -98 -28.5 -178t-81 -137.5t-126 -88t-163.5 -30.5q-98 0 -184 48t-148.5 130t-99.5 192.5t-37 235.5z" />
<glyph unicode="7" horiz-adv-x="882" d="M80 1133v280l20 21h631l19 -27l-244 -750q61 -31 106 -30q49 0 111 30l16 -34q-35 -16 -65.5 -25.5t-61.5 -9.5q-55 0 -118 33l-189 -582h115v-39h-281v39h125l195 600l-29 18q-33 20 -72 41t-75 21q-33 0 -56 -21l-26 29q37 31 82 31q57 0 100 -28t88 -52l234 717h-586 v-262h-39z" />
<glyph unicode="8" horiz-adv-x="974" d="M96 375q0 98 37 166.5t90 117t114.5 79t111.5 50.5l34 15q41 16 92.5 42.5t97.5 64.5t76.5 91.5t30.5 124.5q0 80 -25.5 135.5t-66.5 89t-93 49t-103 15.5q-59 0 -117 -17.5t-104 -52t-74.5 -90t-28.5 -129.5q0 -55 23.5 -96t55.5 -68.5t63.5 -41t47.5 -13.5l-6 -39 q-6 0 -41 10.5t-74.5 38t-72.5 77.5t-33 132q0 74 27.5 134.5t77 103.5t115 66.5t141.5 23.5q145 0 236 -87t91 -241q0 -80 -34.5 -140t-84 -103t-104.5 -71t-96 -44l-35 -14q-49 -20 -107.5 -49t-107.5 -73t-82 -106.5t-33 -150.5q0 -166 95.5 -261.5t261.5 -95.5 q76 0 141 27t112.5 75t75 112.5t27.5 142.5q0 96 -31 158.5t-65 99.5q-41 43 -95 65l11 37q2 -2 35.5 -17t74.5 -56q37 -37 73 -107t36 -180q0 -82 -30 -153.5t-83 -126t-126 -85t-156 -30.5q-90 0 -163 27.5t-125 78.5t-80 125t-28 164z" />
<glyph unicode="9" horiz-adv-x="1005" d="M57 999q0 98 29 178t81 137.5t126 88.5t164 31q98 0 184 -48.5t148.5 -130t99.5 -192.5t37 -236q0 -193 -55.5 -349t-158 -267t-245.5 -171t-322 -60v36q168 0 305.5 57.5t234.5 163t149.5 256t52.5 334.5q0 119 -33 222.5t-91 180.5t-137 121t-169 44 q-166 0 -263.5 -105.5t-97.5 -290.5q0 -158 74 -249t195 -91q39 0 76.5 11.5t67.5 33t48 52t18 71.5h39q0 -49 -21.5 -87t-57 -64.5t-80.5 -40.5t-90 -14q-78 0 -135.5 31.5t-96.5 85t-57.5 122t-18.5 139.5z" />
<glyph unicode=":" horiz-adv-x="286" d="M102 0v88h68v-88h-68zM102 205v88h68v-88h-68z" />
<glyph unicode=";" horiz-adv-x="1705" />
<glyph unicode="?" horiz-adv-x="1030" d="M164 1110q0 37 11 95.5t47 113.5t103.5 95t182.5 40q90 0 164 -29.5t121 -97.5q74 -104 73 -293q0 -117 -26.5 -192.5t-65.5 -125.5t-83 -81t-79 -57q-47 -35 -72.5 -71t-39 -83t-16.5 -108.5t-3 -82.5v-32h-39v30q0 45 8.5 117t29 123t55 88t88.5 74q35 25 71.5 53.5 t66.5 74.5t48 111.5t18 163.5q0 201 -82.5 290t-230.5 89q-102 0 -162.5 -34.5t-94.5 -83t-44 -100.5t-10 -87q0 -92 49 -153.5t133 -61.5q63 0 94 35t31 88q0 31 -11.5 62.5t-39.5 60.5l26 28q63 -68 64 -151q0 -66 -41 -114t-123 -48q-96 0 -158.5 70.5t-62.5 183.5z M426 0h68v88h-68v-88z" />
<glyph unicode="A" d="M43 0v39h127l164 483l-232 178l23 31l221 -170l283 834h-252v39h534v-39h-229l266 -820l182 156l27 -29l-194 -167l159 -496h127v-39h-280v39h114l-153 469l-275 -236l-288 226l-156 -459h111v-39h-279zM379 537l276 -213l263 223l-263 805z" />
<glyph unicode="B" horiz-adv-x="1179" d="M94 0v39h121v1356h-121v39h420q135 0 231.5 -22.5t158 -64.5t90 -100.5t28.5 -132.5q0 -123 -96.5 -220.5t-282.5 -158.5q70 -4 148.5 -20.5t145.5 -51t111 -92t44 -145.5q0 -84 -32 -149.5t-83 -112.5t-114.5 -79t-128 -50.5t-123 -26.5t-97.5 -8h-420zM254 39h260 q55 0 146.5 17.5t178.5 60.5t150.5 117.5t63.5 189.5q0 68 -29 115t-74 76.5t-103.5 47t-118.5 24.5t-116.5 9t-97.5 2l-4 37q23 6 67 18.5t97 32t107.5 49t99.5 70.5t73.5 93.5t28.5 117.5q0 129 -109.5 204t-359.5 75h-260v-1356z" />
<glyph unicode="C" horiz-adv-x="1288" d="M88 717q0 141 55.5 273t144.5 235.5t202.5 166t232.5 62.5q121 0 209 -31.5t144.5 -82t84 -115t27.5 -131.5q0 -72 -22.5 -132.5t-61.5 -103.5t-93.5 -67.5t-115.5 -24.5q-47 0 -91 18.5t-79 51t-56.5 77.5t-21.5 99q0 84 62 162l28 -25q-51 -63 -51 -135q0 -45 17.5 -83 t46 -65.5t66.5 -44t79 -16.5q45 0 91 17.5t82 52t58.5 90t22.5 129.5q0 59 -25.5 117.5t-78 103.5t-132 72.5t-190.5 27.5t-217.5 -59.5t-191.5 -156.5t-136 -223t-51 -259q0 -152 42 -280t116.5 -221t178 -145.5t226.5 -52.5q94 0 178 34t146.5 91.5t98.5 134t36 164.5h39 q0 -96 -40 -180t-107.5 -146.5t-157.5 -99t-193 -36.5q-131 0 -241.5 55t-190.5 153.5t-125 233.5t-45 295z" />
<glyph unicode="D" horiz-adv-x="1249" d="M98 0v39h121v1356h-121v39h445q288 0 440 -158q172 -178 172 -559q0 -160 -45 -291t-126 -226.5t-193.5 -147.5t-247.5 -52h-445zM258 39h285q129 0 234.5 49t181 138t116.5 214t41 277q0 344 -140 511t-433 167h-285v-1356z" />
<glyph unicode="E" d="M94 717q0 147 46 280t124 234.5t180.5 162t214.5 60.5q178 0 285 -64.5t150 -158.5q14 98 56 150.5t126 52.5v-37q-86 0 -119 -71t-33 -232q0 -72 -22.5 -132.5t-61.5 -103.5t-93 -67.5t-116 -24.5v39q45 0 91.5 17.5t82 52t58 90t22.5 129.5q0 59 -25.5 117.5 t-77.5 103.5t-132 72.5t-191 27.5q-96 0 -185 -49t-159.5 -132t-117.5 -193.5t-60 -235.5h455v-39h-459v-49q0 -152 42 -280t117 -221t177 -145.5t225 -52.5q94 0 178 34t147.5 91.5t99.5 134t36 164.5h37q0 -96 -40 -180t-107.5 -147.5t-157.5 -99t-193 -35.5 q-131 0 -240.5 55t-189.5 153.5t-125 233.5t-45 295z" />
<glyph unicode="F" horiz-adv-x="897" d="M66 0v39h118v809q0 199 42 317.5t102.5 183t130 85t125.5 20.5q153 0 231 -92q66 -78 66 -203q0 -53 -19.5 -101t-51.5 -83t-73 -55.5t-84 -20.5q-78 0 -131 49t-53 123q0 55 31 98l30 -20q-23 -35 -22 -76q0 -61 42 -98t103 -37q37 0 71 17.5t60.5 48t42 70.5t15.5 85 q0 29 -7.5 73t-34 85t-77.5 70.5t-139 29.5q-174 0 -267.5 -144.5t-93.5 -424.5v-256h326v-39h-326v-514h119v-39h-276z" />
<glyph unicode="G" d="M92 717q0 152 48 286t133 234t202 158.5t252 58.5q72 0 138.5 -15.5t122.5 -44t98 -67.5t67 -88l-33 -18q-45 90 -151.5 142t-241.5 52q-127 0 -235.5 -54t-189.5 -148.5t-127 -221.5t-46 -274q0 -131 35 -256t108.5 -223.5t186 -159t268.5 -60.5q127 0 220 41 t153.5 105.5t90.5 146.5t30 166q0 182 -96.5 286.5t-262.5 104.5q-51 0 -98 -19.5t-83 -54t-57.5 -81.5t-21.5 -103q0 -96 70 -190l-29 -23q-80 104 -80 215q0 61 25.5 115.5t66.5 94.5t95.5 62.5t111.5 22.5q90 0 164 -30.5t125 -87t78.5 -135.5t27.5 -177 q0 -109 -38.5 -200t-109.5 -157.5t-168 -103t-214 -36.5q-145 0 -262 54t-200 152.5t-128 233.5t-45 297z" />
<glyph unicode="H" horiz-adv-x="1275" d="M98 0v39h119v1356h-119v39h279v-39h-121v-799h764v799h-121v39h279v-39h-119v-1356h119v-39h-279v39h121v518h-764v-518h121v-39h-279z" />
<glyph unicode="I" horiz-adv-x="442" d="M86 0v39h119v1356h-119v39h279v-39h-121v-1356h121v-39h-279z" />
<glyph unicode="J" horiz-adv-x="561" d="M23 156q0 49 30 96l33 -21q-25 -37 -25 -77q0 -59 44.5 -97.5t103.5 -38.5q78 0 115.5 69t37.5 224v1086h-120v37h276v-37h-119v-1086q0 -172 -47 -251.5t-143 -79.5q-76 0 -131 49t-55 127z" />
<glyph unicode="K" horiz-adv-x="1150" d="M86 0v39h119v1343h-119v39h276v-39h-118v-1343h118v-39h-276zM375 604q12 27 41.5 98.5t66.5 156.5l74 170t64 138q45 96 82.5 152.5t68.5 86.5t58.5 39t52.5 9q86 0 137 -53t51 -129q0 -43 -17.5 -80t-45 -63.5t-61.5 -42t-66 -15.5v39q23 0 49 11.5t48.5 32t38 50 t15.5 66.5q0 33 -12 60.5t-32.5 47t-44 29.5t-48.5 10q-66 0 -124 -72.5t-115.5 -188.5t-116 -259t-121.5 -287l436 -571h199v-39h-217z" />
<glyph unicode="L" horiz-adv-x="884" d="M84 0v39h121v1356h-121v39h281v-39h-121v-1356h399q49 0 85 16.5t59.5 44t35 61.5t11.5 68q0 59 -35 104.5t-82 45.5q-51 0 -94 -57l-31 22q55 74 125 74q21 0 39 -6q51 -16 82.5 -67.5t31.5 -115.5q0 -43 -14 -84t-43 -73.5t-72 -52t-98 -19.5h-559z" />
<glyph unicode="M" horiz-adv-x="1671" d="M102 0v37h119v1345h-119v37h156v-172q25 57 64 103q35 39 88 71.5t133 32.5q98 0 171.5 -51t110.5 -150q68 104 151 152.5t181 48.5q96 0 171 -37t126 -100.5t78 -148.5t27 -179q0 -78 -26 -143.5t-64.5 -121.5t-84 -107.5t-84 -101.5t-64.5 -100t-26 -108 q0 -74 22.5 -129t55.5 -90t72 -52.5t72 -17.5q49 0 85.5 16.5t62.5 42t38 58.5t12 64q0 51 -33.5 105t-119.5 87l14 35q98 -39 137 -103.5t39 -123.5q0 -37 -14.5 -76t-44 -71t-73.5 -52t-103 -20q-37 0 -81 16t-84 54t-66.5 100.5t-26.5 156.5q0 61 25.5 115.5t64.5 106 t83 101.5t82.5 106.5t64.5 121t26 141.5q0 86 -25 161t-71 132.5t-113.5 90t-153.5 32.5q-104 0 -187 -57.5t-126 -151.5q24 -88 24 -206v-9v-991h-37v991q0 84 -11 142.5t-25 97.5q-16 45 -37 74q-41 55 -93.5 82.5t-121.5 27.5q-70 0 -120 -30.5t-84 -71.5t-53.5 -82 t-27.5 -64v-1130h119v-37h-275z" />
<glyph unicode="N" horiz-adv-x="1261" d="M92 0v37h119v1360h-119v37h156v-373q25 111 84 196q25 37 59.5 72t80.5 62.5t104.5 45t132.5 17.5q98 0 178 -28.5t136 -81t88 -126t32 -165.5q0 -135 -62.5 -237.5t-162.5 -197.5q-35 -31 -67 -63.5t-56.5 -70.5t-39 -81t-14.5 -96v-10q0 -135 71 -207t171 -72 q53 0 93 18.5t67.5 47.5t41 62.5t13.5 66.5q0 49 -31.5 98t-109.5 80l14 35q92 -35 129 -95.5t37 -119.5q0 -47 -20.5 -89t-55.5 -74t-81 -50t-97 -18q-29 0 -77 13t-93 49t-78 99.5t-33 165.5q0 61 16.5 109.5t43 88.5t61.5 73.5t70 68.5q45 43 83 87t66.5 94.5t45 106.5 t16.5 124q0 86 -28.5 151.5t-81 111.5t-125 69.5t-160.5 23.5q-119 0 -206 -48t-143.5 -128t-84 -180.5t-27.5 -204.5v-817h119v-37h-275z" />
<glyph unicode="O" d="M96 717q0 162 42 297t118 233.5t180.5 152.5t227.5 54q119 0 222 -51.5t181 -149.5q80 -100 121 -236t41 -300q0 -160 -41 -295t-116 -233.5t-179.5 -153.5t-228.5 -55q-125 0 -229.5 55t-179.5 153.5t-117 233.5t-42 295zM135 717q0 -154 39 -283t108.5 -221t167 -143.5 t214.5 -51.5t214 51.5t166.5 143.5t108.5 221t39 283t-39 282.5t-108.5 221t-167 143.5t-213.5 51q-117 0 -214.5 -51t-167 -143.5t-108.5 -221.5t-39 -282z" />
<glyph unicode="P" horiz-adv-x="1048" d="M92 0v39h121v1356h-121v39h316q90 0 175 -3.5t157.5 -21.5t132 -56t96.5 -106q25 -49 38 -110.5t13 -139.5q0 -203 -88 -321.5t-246 -118.5q-78 0 -128 26.5t-81 66.5t-43 86t-12 85h39q0 -33 12 -71.5t39 -72.5t71 -57.5t109 -23.5q135 0 212 108.5t77 294.5 q0 141 -44 221t-121 118t-182.5 47.5t-225.5 9.5h-156v-1356h121v-39h-281z" />
<glyph unicode="Q" horiz-adv-x="1402" d="M98 717q0 164 43 300t121 233.5t189.5 150.5t246.5 53t247 -53t189.5 -150.5t120.5 -233.5t43 -300q0 -336 -165 -539l-19 -18q41 -47 83 -85t83 -38v-37q-51 0 -98 40t-95 91q-155 -151 -386 -151h-3q-135 0 -246.5 53t-189.5 150.5t-121 232.5t-43 301zM135 717 q0 -160 40 -289t113.5 -220t177 -140.5t232.5 -49.5q219 0 365 142q-41 51 -86 114.5t-92 120t-94.5 94t-92.5 37.5v39q43 0 83 -23.5t77 -61.5t73 -85t73 -94l86 -115q82 92 127 226.5t45 304.5q0 160 -40 289t-114 220t-177.5 140t-232.5 49t-232.5 -49t-177 -140 t-113.5 -220t-40 -289z" />
<glyph unicode="R" horiz-adv-x="1134" d="M94 0v39h121v1356h-121v39h420q139 0 235.5 -17.5t157 -55.5t87 -96.5t26.5 -140.5q0 -129 -63.5 -209.5t-190.5 -140.5q-63 -29 -130 -49t-101 -25q2 -33 8 -94t19 -135t34.5 -150.5t54.5 -139t79 -102.5t110 -40q47 0 85 21.5t64.5 57.5t40.5 80t14 87q0 37 -11 72.5 t-36.5 65.5t-67.5 47t-102 17v39q53 0 105.5 -16t89.5 -57q61 -68 61 -168q0 -59 -20.5 -110.5t-54 -90.5t-78.5 -61.5t-94 -22.5q-74 0 -128.5 49t-92 125t-61.5 166t-37 171t-18 142.5t-5 79.5q8 0 33.5 5t61.5 14.5t79 24t84 32.5q119 53 175 129t56 186 q0 152 -111.5 211.5t-357.5 59.5h-260v-1395h-160z" />
<glyph unicode="S" horiz-adv-x="958" d="M96 311q0 53 14.5 99.5t40 81t61.5 54t77 19.5q59 0 103 -40t44 -101q0 -49 -30 -94l-33 20q25 37 24 74q0 45 -31.5 73.5t-78.5 28.5q-35 0 -63.5 -17t-48 -47t-30 -69t-10.5 -80q0 -74 30 -129t78 -92t107.5 -55.5t118.5 -18.5q70 0 132.5 25t110.5 68t75.5 101 t27.5 128q0 57 -20.5 99t-62.5 77t-104.5 70t-146.5 80q-82 49 -147.5 94t-110.5 95t-68.5 109.5t-23.5 135.5q0 160 99.5 257t275.5 97q109 0 166 -36t92 -83q16 29 41.5 54.5t62.5 29.5v-37q-12 0 -37.5 -17t-50 -73.5t-44 -161t-19.5 -276.5h-39q4 117 15.5 200t21.5 136 q12 63 28 104q-16 27 -35.5 48.5t-47 38t-65.5 25.5t-89 9q-84 0 -146.5 -23.5t-105.5 -65.5t-64.5 -99.5t-21.5 -122.5q0 -78 27.5 -136.5t73.5 -105.5t106.5 -86t126.5 -78q63 -37 125.5 -67.5t113 -67.5t81 -89t30.5 -132q0 -78 -30.5 -144.5t-84 -114.5t-123 -75.5 t-145.5 -27.5q-66 0 -132.5 21.5t-119.5 62t-87 103t-34 144.5z" />
<glyph unicode="T" horiz-adv-x="1005" d="M90 1397l6 37h795l12 -33q-4 -4 -60.5 -62.5t-136 -149.5t-173 -205t-173 -230.5t-132 -225t-52.5 -188.5q0 -68 27.5 -127t74 -102t106.5 -68t126 -25t130.5 19.5t115.5 59.5t82.5 101.5t31.5 145.5q0 61 -16 108.5t-42 81t-59.5 51t-68.5 17.5q-78 0 -116 -50t-38 -138 h-38q0 104 50 165.5t142 61.5q43 0 84 -21.5t72 -60.5q25 -29 47 -81t22 -134q0 -78 -29.5 -144.5t-83 -115.5t-127 -76.5t-159.5 -27.5q-74 0 -141.5 27.5t-117.5 74.5t-81 112.5t-31 143.5q0 115 94.5 290t305.5 429q96 115 180 205t127 135h-690q35 -37 57.5 -103.5 t22.5 -148.5q0 -49 -12.5 -99.5t-43.5 -91.5l-30 25q27 35 37 78t10 88q0 43 -9.5 86t-23.5 77.5t-33.5 58.5t-40.5 30z" />
<glyph unicode="U" horiz-adv-x="1333" d="M96 1223q0 49 21.5 92t57.5 73.5t81 48t94 17.5q27 0 74 -12t93 -48t80 -100.5t34 -167.5q0 -86 -30 -146t-75 -109.5t-96 -95.5t-96 -101.5t-75 -127t-30 -171.5q0 -170 108.5 -263.5t287.5 -93.5q119 0 206 48.5t143 127t82.5 180t26.5 206.5v817h-116v37h274v-37h-119 v-1360h119v-37h-158v373q-20 -111 -75 -197q-25 -37 -59 -72.5t-80 -63.5t-107.5 -44t-136.5 -16q-98 0 -178 27.5t-137.5 79.5t-88.5 127t-31 167q0 104 30 178t75 131.5t96 103.5t96 93t75 104.5t30 134.5q0 135 -67.5 212t-174.5 77q-53 0 -93 -18.5t-67.5 -47t-41 -63.5 t-13.5 -67q0 -47 32 -97.5t109 -79.5l-14 -34q-92 35 -129 95t-37 120z" />
<glyph unicode="V" horiz-adv-x="1191" d="M33 1395v39h280v-39h-114l397 -1321l395 1321h-114v39h282v-39h-127l-418 -1395h-36l-418 1395h-127z" />
<glyph unicode="W" horiz-adv-x="1536" d="M63 1395v39h283v-39h-119l262 -1307l261 907h36l261 -907l264 1307h-121v39h283v-39h-123l-281 -1395h-39l-262 920l-262 -920h-39l-279 1395h-125z" />
<glyph unicode="X" horiz-adv-x="1202" d="M80 0v39h127l373 678l-373 678h-127v39h278v-39h-106l350 -637l350 637h-106v39h278v-39h-127l-372 -678l372 -678h127v-39h-278v39h106l-350 637l-350 -637h106v-39h-278z" />
<glyph unicode="Y" horiz-adv-x="1062" d="M51 1229q0 55 18.5 97t47 70.5t61.5 43t64 14.5q61 0 104 -15.5t70.5 -52t40 -100t12.5 -162.5v-483q0 -2 2 -20.5t16.5 -40t44 -39t82.5 -19.5l258 860h-112v39h276v-39h-123l-403 -1343h113v-39h-277v39h123l135 446q-66 4 -100.5 29t-50.5 53q-20 33 -23 74v483 q0 84 -9 140.5t-30.5 90.5t-57.5 48t-91 14q-20 0 -47 -10t-50.5 -33.5t-40 -59.5t-16.5 -85q0 -72 42 -113t112 -41v-39q-86 0 -138.5 53.5t-52.5 139.5z" />
<glyph unicode="Z" horiz-adv-x="1220" d="M98 1397l6 37h940l17 -31l-459 -733q47 -29 86 -42.5t76 -13.5q31 0 63.5 10.5t69.5 28.5l16 -35q-84 -43 -149 -43q-78 0 -182 62l-373 -598h844q-35 35 -57.5 95.5t-22.5 131.5q0 47 13 94.5t44 88.5l31 -23q-27 -35 -38 -77t-11 -83q0 -55 16 -104t40 -82t52 -43 l-6 -37h-940l-16 29l391 628q-41 23 -88 48.5t-94 25.5q-41 0 -68 -24l-27 28q23 20 46.5 28.5t48.5 8.5q57 0 106 -29.5t96 -52.5l441 705h-844q35 -37 57.5 -96.5t22.5 -133.5q0 -47 -13.5 -94t-44.5 -88l-30 25q27 35 37 76.5t10 82.5q0 84 -33 149.5t-74 80.5z" />
<glyph unicode="`" horiz-adv-x="671" d="M113 1753l16 25l430 -156l-16 -25z" />
<glyph unicode="a" d="M43 0v39h127l164 483l-232 178l23 31l221 -170l283 834h-252v39h534v-39h-229l266 -820l182 156l27 -29l-194 -167l159 -496h127v-39h-280v39h114l-153 469l-275 -236l-288 226l-156 -459h111v-39h-279zM379 537l276 -213l263 223l-263 805z" />
<glyph unicode="b" horiz-adv-x="1179" d="M94 0v39h121v1356h-121v39h420q135 0 231.5 -22.5t158 -64.5t90 -100.5t28.5 -132.5q0 -123 -96.5 -220t-282.5 -159q43 -4 93 -11t100.5 -20.5t97.5 -36t82 -55.5q41 -37 58.5 -82t17.5 -104q0 -84 -32 -149.5t-83 -112.5t-114.5 -79t-128 -50.5t-123 -26.5t-97.5 -8 h-420zM254 39h260q55 0 146.5 17.5t178.5 60.5t150.5 117.5t63.5 189.5q0 68 -29 115t-74 76.5t-103.5 47t-118.5 24.5t-116.5 9t-97.5 2l-4 37q23 6 67 18.5t97 32t107.5 49t99.5 70.5t73.5 93.5t28.5 117.5q0 129 -109.5 204t-359.5 75h-260v-1356z" />
<glyph unicode="c" horiz-adv-x="1288" d="M88 717q0 141 55.5 273t144.5 235.5t202.5 166t232.5 62.5q121 0 209 -31.5t144.5 -82t84 -115t27.5 -131.5q0 -72 -22.5 -132.5t-61.5 -103.5t-93.5 -67.5t-115.5 -24.5q-47 0 -91 18.5t-79 51t-56.5 77.5t-21.5 99q0 84 62 162l28 -25q-51 -63 -51 -135q0 -45 17.5 -83 t46 -65.5t66.5 -44t79 -16.5q45 0 91 17.5t82 52t58.5 90t22.5 129.5q0 59 -25.5 117.5t-78 103.5t-132 72.5t-190.5 27.5t-217.5 -59.5t-191.5 -156.5t-136 -223t-51 -259q0 -152 42 -280t116.5 -221t178 -145.5t226.5 -52.5q94 0 178 34t146.5 91.5t98.5 134t36 164.5h39 q0 -96 -40 -180t-107.5 -146.5t-157.5 -99t-193 -36.5q-131 0 -241.5 55t-190.5 153.5t-125 233.5t-45 295z" />
<glyph unicode="d" horiz-adv-x="1249" d="M98 0v39h121v1356h-121v39h445q288 0 440 -158q172 -178 172 -559q0 -160 -45 -291t-126 -226.5t-193.5 -147.5t-247.5 -52h-445zM258 39h285q129 0 234.5 49t181 138t116.5 214t41 277q0 344 -140 511t-433 167h-285v-1356z" />
<glyph unicode="e" horiz-adv-x="1114" d="M90 0v39h121v1356h-121v39h907l7 -37q-27 -10 -44.5 -35t-28.5 -56.5t-15.5 -67.5t-4.5 -69q0 -45 8.5 -88t24.5 -77l-33 -17q-20 39 -29.5 86t-9.5 98q0 61 14.5 122t51.5 102h-688v-660h504v-39h-504v-657h688q-35 39 -50.5 97.5t-15.5 121.5q0 51 9.5 99.5t29.5 88.5 l33 -16q-16 -35 -24.5 -78t-8.5 -88q0 -41 6.5 -78.5t20.5 -70.5q10 -23 25.5 -45.5t40.5 -32.5l-7 -37h-907z" />
<glyph unicode="f" horiz-adv-x="897" d="M66 0v39h118v809q0 199 42 317.5t102.5 183t130 85t125.5 20.5q153 0 231 -92q66 -78 66 -203q0 -53 -19.5 -101t-51.5 -83t-73 -55.5t-84 -20.5q-78 0 -131 49t-53 123q0 55 31 98l30 -20q-23 -35 -22 -76q0 -61 42 -98t103 -37q37 0 71 17.5t60.5 48t42 70.5t15.5 85 q0 29 -7.5 73t-34 85t-77.5 70.5t-139 29.5q-174 0 -267.5 -144.5t-93.5 -424.5v-256h326v-39h-326v-514h119v-39h-276z" />
<glyph unicode="g" horiz-adv-x="1372" d="M94 688q0 168 53.5 309.5t145.5 242.5t213 157.5t256 56.5q90 0 176 -25.5t153.5 -74.5t109.5 -120t42 -161q0 -55 -16.5 -104t-46 -87t-72.5 -59.5t-96 -21.5q-86 0 -142.5 55t-56.5 150q0 43 13.5 87t41.5 81l29 -25q-47 -63 -47 -141q0 -74 45 -122t119 -48 q45 0 80.5 18t60.5 51t38 76t13 90q0 84 -39 147.5t-102.5 106.5t-142 65.5t-160.5 22.5q-129 0 -244 -53t-201 -149.5t-136 -229.5t-50 -291q0 -119 31 -238.5t94 -217t159.5 -158t229.5 -60.5q94 0 165 32t119 81t78.5 110.5t48 122t23.5 112.5t6 85h-426v37h463v-109 q0 -55 5.5 -129.5t20.5 -144.5t46 -120t82 -58v-37q-47 0 -81 31.5t-55.5 81t-32.5 110t-17 119.5q-47 -168 -167 -265t-286 -97q-131 0 -232.5 60t-170 159.5t-104.5 227.5t-36 261z" />
<glyph unicode="h" horiz-adv-x="1275" d="M98 0v39h119v1356h-119v39h279v-39h-121v-799h764v799h-121v39h279v-39h-119v-1356h119v-39h-279v39h121v518h-764v-518h121v-39h-279z" />
<glyph unicode="i" horiz-adv-x="319" d="M23 0v39h118v1356h-118v39h278v-39h-121v-1356h121v-39h-278z" />
<glyph unicode="j" horiz-adv-x="561" d="M23 156q0 49 30 96l33 -21q-25 -37 -25 -77q0 -59 44.5 -97.5t103.5 -38.5q78 0 115.5 69t37.5 224v1086h-120v37h276v-37h-119v-1086q0 -172 -47 -251.5t-143 -79.5q-76 0 -131 49t-55 127z" />
<glyph unicode="k" horiz-adv-x="1150" d="M86 0v39h119v1343h-119v39h276v-39h-118v-1343h118v-39h-276zM375 604q12 27 41.5 98.5t66.5 156.5l74 170t64 138q45 96 82.5 152.5t68.5 86.5t58.5 39t52.5 9q86 0 137 -53t51 -129q0 -43 -17.5 -80t-45 -63.5t-61.5 -42t-66 -15.5v39q23 0 49 11.5t48.5 32t38 50 t15.5 66.5q0 33 -12 60.5t-32.5 47t-44 29.5t-48.5 10q-66 0 -124 -72.5t-115.5 -188.5t-116 -259t-121.5 -287l436 -571h199v-39h-217z" />
<glyph unicode="l" horiz-adv-x="884" d="M84 0v39h121v1356h-121v39h281v-39h-121v-1356h399q49 0 85 16.5t59.5 44t35 61.5t11.5 68q0 59 -35 104.5t-82 45.5q-51 0 -94 -57l-31 22q55 74 125 74q21 0 39 -6q51 -16 82.5 -67.5t31.5 -115.5q0 -43 -14 -84t-43 -73.5t-72 -52t-98 -19.5h-559z" />
<glyph unicode="m" horiz-adv-x="1812" d="M113 205q0 72 46 131t124 90l14 -35q-80 -33 -112.5 -84t-32.5 -98q0 -33 13 -66.5t38.5 -61.5t63.5 -45.5t85 -17.5q94 0 161 73t67 202q0 84 -30 142.5t-74 106.5t-96 92t-96 99t-74 128t-30 179q0 96 26.5 173t73 130.5t111 82t139.5 28.5q168 0 261.5 -136 t115.5 -378q23 238 117 376t262 138q61 0 125 -21.5t114 -68.5t81.5 -121t31.5 -178q0 -102 -29.5 -176t-74.5 -132.5t-98.5 -105.5t-98.5 -99t-74.5 -113.5t-29.5 -145.5q0 -123 64.5 -199t162.5 -76q49 0 86 17.5t61.5 45.5t38 61.5t13.5 66.5q0 53 -35 103t-108 79l14 35 q66 -27 117 -83t51 -134q0 -51 -20.5 -93t-53.5 -73t-75 -47t-87 -16q-41 0 -88 16t-87 53t-65.5 95.5t-25.5 144.5q0 90 29.5 156.5t75 121t98.5 103.5t98 104t75 126t30 167q0 88 -27 153.5t-71 108.5t-101 64.5t-119 21.5q-186 0 -272 -183t-86 -534v-698h-39v698 q0 348 -86 532.5t-271 184.5q-137 0 -224 -99t-87 -276q0 -102 30 -172.5t74 -123t95 -94.5t95 -91t73.5 -111.5t29.5 -152.5q0 -82 -23.5 -141.5t-61 -98.5t-85 -57t-94.5 -18t-90 17t-75.5 47t-53 71t-20.5 90z" />
<glyph unicode="n" horiz-adv-x="1333" d="M92 0v37h119v1360h-119v37h156v-373q25 111 84 196q25 37 59.5 72t80.5 62.5t104.5 45t132.5 17.5q98 0 178 -28.5t136 -81t88 -126t32 -165.5q0 -135 -62.5 -237.5t-162.5 -197.5q-35 -31 -67 -63.5t-56.5 -70.5t-39 -81t-14.5 -96v-10q0 -135 71 -207t171 -72 q53 0 93 18.5t67.5 47.5t41 62.5t13.5 66.5q0 49 -31.5 98t-109.5 80l14 35q92 -35 129 -95.5t37 -119.5q0 -47 -20.5 -89t-55.5 -74t-81 -50t-97 -18q-29 0 -77 13t-93 49t-78 99.5t-33 165.5q0 61 16.5 109.5t43 88.5t61.5 73.5t70 68.5q45 43 83 87t66.5 94.5t45 106.5 t16.5 124q0 86 -28.5 151.5t-81 111.5t-125 69.5t-160.5 23.5q-119 0 -206 -48t-143.5 -128t-84 -180.5t-27.5 -204.5v-817h119v-37h-275z" />
<glyph unicode="o" horiz-adv-x="1327" d="M96 717q0 162 42 297t118 233.5t180.5 152.5t227.5 54q119 0 222 -51.5t181 -149.5q80 -100 121 -236t41 -300q0 -160 -41 -295t-116 -233.5t-179.5 -153.5t-228.5 -55q-125 0 -229.5 55t-179.5 153.5t-117 233.5t-42 295zM135 717q0 -154 39 -283t108.5 -221t167 -143.5 t214.5 -51.5t214 51.5t166.5 143.5t108.5 221t39 283t-39 282.5t-108.5 221t-167 143.5t-213.5 51q-117 0 -214.5 -51t-167 -143.5t-108.5 -221.5t-39 -282zM616 717q0 20 13.5 34.5t34.5 14.5q20 0 34.5 -14.5t14.5 -34.5t-14.5 -33.5t-34.5 -13.5t-34 13.5t-14 33.5z" />
<glyph unicode="p" horiz-adv-x="1048" d="M92 0v39h121v1356h-121v39h316q90 0 175 -3.5t157.5 -21.5t132 -56t96.5 -106q25 -49 38 -110.5t13 -139.5q0 -203 -88 -321.5t-246 -118.5q-78 0 -128 26.5t-81 66.5t-43 86t-12 85h39q0 -33 12 -71.5t39 -72.5t71 -57.5t109 -23.5q135 0 212 108.5t77 294.5 q0 141 -44 221t-121 118t-182.5 47.5t-225.5 9.5h-156v-1356h121v-39h-281z" />
<glyph unicode="q" horiz-adv-x="1402" d="M98 717q0 164 43 300t121 233.5t189.5 150.5t246.5 53t247 -53t189.5 -150.5t120.5 -233.5t43 -300q0 -336 -165 -539l-19 -18q41 -47 83 -85t83 -38v-37q-51 0 -98 40t-95 91q-155 -151 -386 -151h-3q-135 0 -246.5 53t-189.5 150.5t-121 232.5t-43 301zM135 717 q0 -160 40 -289t113.5 -220t177 -140.5t232.5 -49.5q219 0 365 142q-41 51 -86 114.5t-92 120t-94.5 94t-92.5 37.5v39q43 0 83 -23.5t77 -61.5t73 -85t73 -94l86 -115q82 92 127 226.5t45 304.5q0 160 -40 289t-114 220t-177.5 140t-232.5 49t-232.5 -49t-177 -140 t-113.5 -220t-40 -289z" />
<glyph unicode="r" horiz-adv-x="1185" d="M94 0v39h121v1356h-121v39h420q139 0 235.5 -17.5t157 -55.5t87 -96.5t26.5 -140.5q0 -129 -63.5 -209.5t-190.5 -140.5q-63 -29 -130 -49t-101 -25q2 -33 8 -94t19 -135t34.5 -150.5t54.5 -139t79 -102.5t110 -40q47 0 85 21.5t64.5 57.5t40.5 80t14 87q0 37 -11 72.5 t-36.5 65.5t-67.5 47t-102 17v39q53 0 105.5 -16t89.5 -57q61 -68 61 -168q0 -59 -20.5 -110.5t-54 -90.5t-78.5 -61.5t-94 -22.5q-74 0 -128.5 49t-92 125t-61.5 166t-37 171t-18 142.5t-5 79.5q8 0 33.5 5t61.5 14.5t79 24t84 32.5q119 53 175 129t56 186 q0 152 -111.5 211.5t-357.5 59.5h-260v-1395h-160z" />
<glyph unicode="s" horiz-adv-x="958" d="M96 311q0 53 14.5 99.5t40 81t61.5 54t77 19.5q59 0 103 -40t44 -101q0 -49 -30 -94l-33 20q25 37 24 74q0 45 -31.5 73.5t-78.5 28.5q-35 0 -63.5 -17t-48 -47t-30 -69t-10.5 -80q0 -74 30 -129t78 -92t107.5 -55.5t118.5 -18.5q70 0 132.5 25t110.5 68t75.5 101 t27.5 128q0 57 -20.5 99t-62.5 77t-104.5 70t-146.5 80q-82 49 -147.5 94t-110.5 95t-68.5 109.5t-23.5 135.5q0 160 99.5 257t275.5 97q109 0 166 -36t92 -83q16 29 41.5 54.5t62.5 29.5v-37q-12 0 -37.5 -17t-50 -73.5t-44 -161t-19.5 -276.5h-39q4 117 15.5 200t21.5 136 q12 63 28 104q-16 27 -35.5 48.5t-47 38t-65.5 25.5t-89 9q-84 0 -146.5 -23.5t-105.5 -65.5t-64.5 -99.5t-21.5 -122.5q0 -78 27.5 -136.5t73.5 -105.5t106.5 -86t126.5 -78q63 -37 125.5 -67.5t113 -67.5t81 -89t30.5 -132q0 -78 -30.5 -144.5t-84 -114.5t-123 -75.5 t-145.5 -27.5q-66 0 -132.5 21.5t-119.5 62t-87 103t-34 144.5z" />
<glyph unicode="t" horiz-adv-x="1005" d="M90 1397l6 37h795l12 -33q-4 -4 -60.5 -62.5t-136 -149.5t-173 -205t-173 -230.5t-132 -225t-52.5 -188.5q0 -68 27.5 -127t74 -102t106.5 -68t126 -25t130.5 19.5t115.5 59.5t82.5 101.5t31.5 145.5q0 61 -16 108.5t-42 81t-59.5 51t-68.5 17.5q-78 0 -116 -50t-38 -138 h-38q0 104 50 165.5t142 61.5q43 0 84 -21.5t72 -60.5q25 -29 47 -81t22 -134q0 -78 -29.5 -144.5t-83 -115.5t-127 -76.5t-159.5 -27.5q-74 0 -141.5 27.5t-117.5 74.5t-81 112.5t-31 143.5q0 115 94.5 290t305.5 429q96 115 180 205t127 135h-690q35 -37 57.5 -103.5 t22.5 -148.5q0 -49 -12.5 -99.5t-43.5 -91.5l-30 25q27 35 37 78t10 88q0 43 -9.5 86t-23.5 77.5t-33.5 58.5t-40.5 30z" />
<glyph unicode="u" horiz-adv-x="1333" d="M96 1223q0 49 21.5 92t57.5 73.5t81 48t94 17.5q27 0 74 -12t93 -48t80 -100.5t34 -167.5q0 -86 -30 -146t-75 -109.5t-96 -95.5t-96 -101.5t-75 -127t-30 -171.5q0 -170 108.5 -263.5t287.5 -93.5q119 0 206 48.5t143 127t82.5 180t26.5 206.5v817h-116v37h274v-37h-119 v-1360h119v-37h-158v373q-20 -111 -75 -197q-25 -37 -59 -72.5t-80 -63.5t-107.5 -44t-136.5 -16q-98 0 -178 27.5t-137.5 79.5t-88.5 127t-31 167q0 104 30 178t75 131.5t96 103.5t96 93t75 104.5t30 134.5q0 135 -67.5 212t-174.5 77q-53 0 -93 -18.5t-67.5 -47t-41 -63.5 t-13.5 -67q0 -47 32 -97.5t109 -79.5l-14 -34q-92 35 -129 95t-37 120z" />
<glyph unicode="v" horiz-adv-x="1191" d="M33 1395v39h280v-39h-114l397 -1321l395 1321h-114v39h282v-39h-127l-418 -1395h-36l-418 1395h-127z" />
<glyph unicode="w" horiz-adv-x="1536" d="M63 1395v39h283v-39h-119l262 -1307l261 907h36l261 -907l264 1307h-121v39h283v-39h-123l-281 -1395h-39l-262 920l-262 -920h-39l-279 1395h-125z" />
<glyph unicode="x" horiz-adv-x="1202" d="M80 0v39h127l373 678l-373 678h-127v39h278v-39h-106l350 -637l350 637h-106v39h278v-39h-127l-372 -678l372 -678h127v-39h-278v39h106l-350 637l-350 -637h106v-39h-278z" />
<glyph unicode="y" horiz-adv-x="1062" d="M51 1229q0 55 18.5 97t47 70.5t61.5 43t64 14.5q61 0 104 -15.5t70.5 -52t40 -100t12.5 -162.5v-483q0 -2 2 -20.5t16.5 -40t44 -39t82.5 -19.5l258 860h-112v39h276v-39h-123l-403 -1343h113v-39h-277v39h123l135 446q-66 4 -100.5 29t-50.5 53q-20 33 -23 74v483 q0 84 -9 140.5t-30.5 90.5t-57.5 48t-91 14q-20 0 -47 -10t-50.5 -33.5t-40 -59.5t-16.5 -85q0 -72 42 -113t112 -41v-39q-86 0 -138.5 53.5t-52.5 139.5z" />
<glyph unicode="z" horiz-adv-x="1220" d="M98 1397l6 37h940l17 -31l-459 -733q47 -29 86 -42.5t76 -13.5q31 0 63.5 10.5t69.5 28.5l16 -35q-84 -43 -149 -43q-78 0 -182 62l-373 -598h844q-35 35 -57.5 95.5t-22.5 131.5q0 47 13 94.5t44 88.5l31 -23q-27 -35 -38 -77t-11 -83q0 -55 16 -104t40 -82t52 -43 l-6 -37h-940l-16 29l391 628q-41 23 -88 48.5t-94 25.5q-41 0 -68 -24l-27 28q23 20 46.5 28.5t48.5 8.5q57 0 106 -29.5t96 -52.5l441 705h-844q35 -37 57.5 -96.5t22.5 -133.5q0 -47 -13.5 -94t-44.5 -88l-30 25q27 35 37 76.5t10 82.5q0 84 -33 149.5t-74 80.5z" />
<glyph unicode="&#xa1;" horiz-adv-x="366" d="M152 1262v88h67v-88h-67zM164 -102v1187h39v-1187h-39z" />
<glyph unicode="&#xa8;" horiz-adv-x="632" d="M164 1597v54h39v-54h-39zM430 1597v54h39v-54h-39z" />
<glyph unicode="&#xad;" horiz-adv-x="729" d="M178 766v39h406v-39h-406z" />
<glyph unicode="&#xb4;" horiz-adv-x="671" d="M113 1622l430 156l16 -25l-430 -156z" />
<glyph unicode="&#xb8;" horiz-adv-x="299" d="M41 -272q27 8 58.5 22t59 29.5t45 32t17.5 28.5q0 14 -14 22.5t-32.5 13.5t-37 7t-26.5 2l-17 19v96h35v-80q20 0 43 -5t42 -14.5t31.5 -24.5t12.5 -36q0 -53 -106 -104q-37 -18 -67 -29.5t-32 -11.5z" />
<glyph unicode="&#xbf;" horiz-adv-x="1030" d="M164 297q0 117 26.5 192.5t65.5 126t83 81t79 57.5q45 33 71.5 69.5t40 83.5t16.5 107.5t3 83.5v32h39v-30q0 -45 -8.5 -117t-29 -123t-55 -88t-87.5 -74q-35 -25 -72 -53.5t-66.5 -74.5t-48 -111.5t-18.5 -163.5q0 -201 83 -290t230 -89q100 0 161.5 35t95.5 83t44 100 t10 87q0 92 -49 153.5t-133 61.5q-63 0 -94 -34.5t-31 -88.5q0 -31 11.5 -62.5t39.5 -60.5l-26 -28q-63 68 -64 151q0 66 41 114t123 48q96 0 158.5 -70.5t62.5 -183.5q0 -37 -11 -95t-47 -113.5t-103.5 -95.5t-182.5 -40q-90 0 -163.5 29.5t-120.5 97.5q-74 104 -74 293z M535 1262v88h67v-88h-67z" />
<glyph unicode="&#xc0;" d="M43 0v39h127l164 483l-232 178l23 31l221 -170l283 834h-252v39h534v-39h-229l266 -820l182 156l27 -29l-194 -167l159 -496h127v-39h-280v39h114l-153 469l-275 -236l-288 226l-156 -459h111v-39h-279zM379 537l276 -213l263 223l-263 805zM422 1753l16 25l430 -156 l-16 -25z" />
<glyph unicode="&#xc1;" d="M43 0v39h127l164 483l-232 178l23 31l221 -170l283 834h-252v39h534v-39h-229l266 -820l182 156l27 -29l-194 -167l159 -496h127v-39h-280v39h114l-153 469l-275 -236l-288 226l-156 -459h111v-39h-279zM379 537l276 -213l263 223l-263 805zM422 1622l430 156l16 -25 l-430 -156z" />
<glyph unicode="&#xc2;" d="M43 0v39h127l164 483l-232 178l23 31l221 -170l283 834h-252v39h534v-39h-229l266 -820l182 156l27 -29l-194 -167l159 -496h127v-39h-280v39h114l-153 469l-275 -236l-288 226l-156 -459h111v-39h-279zM379 537l276 -213l263 223l-263 805zM422 1622l223 133l223 -133 l-16 -25l-207 125l-207 -125z" />
<glyph unicode="&#xc3;" horiz-adv-x="1329" d="M43 0v39h127l164 483l-232 178l23 31l221 -170l283 834h-252v39h534v-39h-229l266 -820l182 156l27 -29l-194 -167l159 -496h127v-39h-280v39h114l-153 469l-275 -236l-288 226l-156 -459h111v-39h-279zM379 537l276 -213l263 223l-263 805zM460 1618q6 10 20.5 32.5 t36 45t50 40t63.5 17.5q39 0 64.5 -19.5t48 -42t46.5 -42t56 -19.5q31 0 55.5 16.5t43.5 39.5q20 25 36 57l31 -14q0 -2 -12 -22.5t-33.5 -45.5t-52.5 -44.5t-68 -19.5q-39 0 -66.5 18.5t-51 42t-46 42t-51.5 18.5q-31 0 -55.5 -16t-42.5 -38t-28.5 -40t-12.5 -20z" />
<glyph unicode="&#xc4;" d="M43 0v39h127l164 483l-232 178l23 31l221 -170l283 834h-252v39h534v-39h-229l266 -820l182 156l27 -29l-194 -167l159 -496h127v-39h-280v39h114l-153 469l-275 -236l-288 226l-156 -459h111v-39h-279zM379 537l276 -213l263 223l-263 805zM494 1597v54h39v-54h-39z M760 1597v54h39v-54h-39z" />
<glyph unicode="&#xc7;" horiz-adv-x="1288" d="M88 717q0 141 55.5 273t144.5 235.5t202.5 166t232.5 62.5q121 0 209 -31.5t144.5 -82t84 -115t27.5 -131.5q0 -72 -22.5 -132.5t-61.5 -103.5t-93.5 -67.5t-115.5 -24.5q-47 0 -91 18.5t-79 51t-56.5 77.5t-21.5 99q0 84 62 162l28 -25q-51 -63 -51 -135q0 -45 17.5 -83 t46 -65.5t66.5 -44t79 -16.5q45 0 91 17.5t82 52t58.5 90t22.5 129.5q0 59 -25.5 117.5t-78 103.5t-132 72.5t-190.5 27.5t-217.5 -59.5t-191.5 -156.5t-136 -223t-51 -259q0 -152 42 -280t116.5 -221t178 -145.5t226.5 -52.5q94 0 178 34t146.5 91.5t98.5 134t36 164.5h39 q0 -96 -40 -180t-107.5 -146.5t-157.5 -99t-193 -36.5q-131 0 -241.5 55t-190.5 153.5t-125 233.5t-45 295zM616 -272q27 8 58.5 22t59 29.5t45 32t17.5 28.5q0 14 -14 22.5t-32.5 13.5t-37 7t-26.5 2l-17 19v96h35v-80q20 0 43 -5t42 -14.5t31.5 -24.5t12.5 -36 q0 -53 -106 -104q-37 -18 -67 -29.5t-32 -11.5z" />
<glyph unicode="&#xc8;" horiz-adv-x="1351" d="M94 717q0 147 46 280t124 234.5t180.5 162t214.5 60.5q178 0 285 -64.5t150 -158.5q14 98 56 150.5t126 52.5v-37q-86 0 -119 -71t-33 -232q0 -72 -22.5 -132.5t-61.5 -103.5t-93 -67.5t-116 -24.5v39q45 0 91.5 17.5t82 52t58 90t22.5 129.5q0 59 -25.5 117.5 t-77.5 103.5t-132 72.5t-191 27.5q-96 0 -185 -49t-159.5 -132t-117.5 -193.5t-60 -235.5h455v-39h-459v-49q0 -152 42 -280t117 -221t177 -145.5t225 -52.5q94 0 178 34t147.5 91.5t99.5 134t36 164.5h37q0 -96 -40 -180t-107.5 -147.5t-157.5 -99t-193 -35.5 q-131 0 -240.5 55t-189.5 153.5t-125 233.5t-45 295zM453 1753l16 25l430 -156l-16 -25z" />
<glyph unicode="&#xc9;" horiz-adv-x="1351" d="M94 717q0 147 46 280t124 234.5t180.5 162t214.5 60.5q178 0 285 -64.5t150 -158.5q14 98 56 150.5t126 52.5v-37q-86 0 -119 -71t-33 -232q0 -72 -22.5 -132.5t-61.5 -103.5t-93 -67.5t-116 -24.5v39q45 0 91.5 17.5t82 52t58 90t22.5 129.5q0 59 -25.5 117.5 t-77.5 103.5t-132 72.5t-191 27.5q-96 0 -185 -49t-159.5 -132t-117.5 -193.5t-60 -235.5h455v-39h-459v-49q0 -152 42 -280t117 -221t177 -145.5t225 -52.5q94 0 178 34t147.5 91.5t99.5 134t36 164.5h37q0 -96 -40 -180t-107.5 -147.5t-157.5 -99t-193 -35.5 q-131 0 -240.5 55t-189.5 153.5t-125 233.5t-45 295zM453 1622l430 156l16 -25l-430 -156z" />
<glyph unicode="&#xca;" horiz-adv-x="1351" d="M94 717q0 147 46 280t124 234.5t180.5 162t214.5 60.5q178 0 285 -64.5t150 -158.5q14 98 56 150.5t126 52.5v-37q-86 0 -119 -71t-33 -232q0 -72 -22.5 -132.5t-61.5 -103.5t-93 -67.5t-116 -24.5v39q45 0 91.5 17.5t82 52t58 90t22.5 129.5q0 59 -25.5 117.5 t-77.5 103.5t-132 72.5t-191 27.5q-96 0 -185 -49t-159.5 -132t-117.5 -193.5t-60 -235.5h455v-39h-459v-49q0 -152 42 -280t117 -221t177 -145.5t225 -52.5q94 0 178 34t147.5 91.5t99.5 134t36 164.5h37q0 -96 -40 -180t-107.5 -147.5t-157.5 -99t-193 -35.5 q-131 0 -240.5 55t-189.5 153.5t-125 233.5t-45 295zM453 1622l223 133l223 -133l-16 -25l-207 125l-207 -125z" />
<glyph unicode="&#xcb;" horiz-adv-x="1351" d="M94 717q0 147 46 280t124 234.5t180.5 162t214.5 60.5q178 0 285 -64.5t150 -158.5q14 98 56 150.5t126 52.5v-37q-86 0 -119 -71t-33 -232q0 -72 -22.5 -132.5t-61.5 -103.5t-93 -67.5t-116 -24.5v39q45 0 91.5 17.5t82 52t58 90t22.5 129.5q0 59 -25.5 117.5 t-77.5 103.5t-132 72.5t-191 27.5q-96 0 -185 -49t-159.5 -132t-117.5 -193.5t-60 -235.5h455v-39h-459v-49q0 -152 42 -280t117 -221t177 -145.5t225 -52.5q94 0 178 34t147.5 91.5t99.5 134t36 164.5h37q0 -96 -40 -180t-107.5 -147.5t-157.5 -99t-193 -35.5 q-131 0 -240.5 55t-189.5 153.5t-125 233.5t-45 295zM522 1597v54h39v-54h-39zM788 1597v54h39v-54h-39z" />
<glyph unicode="&#xcc;" horiz-adv-x="319" d="M-61 1753l16 25l430 -156l-16 -25zM25 0v39h119v1356h-119v39h279v-39h-121v-1356h121v-39h-279z" />
<glyph unicode="&#xcd;" horiz-adv-x="319" d="M-61 1622l430 156l16 -25l-430 -156zM25 0v39h119v1356h-119v39h279v-39h-121v-1356h121v-39h-279z" />
<glyph unicode="&#xce;" horiz-adv-x="319" d="M-61 1622l223 133l223 -133l-16 -25l-207 125l-207 -125zM25 0v39h119v1356h-119v39h279v-39h-121v-1356h121v-39h-279z" />
<glyph unicode="&#xcf;" horiz-adv-x="319" d="M10 1597v54h39v-54h-39zM25 0v39h119v1356h-119v39h279v-39h-121v-1356h121v-39h-279zM276 1597v54h39v-54h-39z" />
<glyph unicode="&#xd1;" horiz-adv-x="1280" d="M92 0v37h119v1360h-119v37h156v-373q25 111 84 196q25 37 59.5 72t80.5 62.5t104.5 45t132.5 17.5q98 0 178 -28.5t136 -81t88 -126t32 -165.5q0 -135 -62.5 -237.5t-162.5 -197.5q-35 -31 -67 -63.5t-56.5 -70.5t-39 -81t-14.5 -96v-10q0 -135 71 -207t171 -72 q53 0 93 18.5t67.5 47.5t41 62.5t13.5 66.5q0 49 -31.5 98t-109.5 80l14 35q92 -35 129 -95.5t37 -119.5q0 -47 -20.5 -89t-55.5 -74t-81 -50t-97 -18q-29 0 -77 13t-93 49t-78 99.5t-33 165.5q0 61 16.5 109.5t43 88.5t61.5 73.5t70 68.5q45 43 83 87t66.5 94.5t45 106.5 t16.5 124q0 86 -28.5 151.5t-81 111.5t-125 69.5t-160.5 23.5q-119 0 -206 -48t-143.5 -128t-84 -180.5t-27.5 -204.5v-817h119v-37h-275zM436 1618q6 10 20.5 32.5t36 45t50 40t63.5 17.5q39 0 64.5 -19.5t48 -42t46.5 -42t56 -19.5q31 0 55.5 16.5t43.5 39.5q20 25 36 57 l31 -14q0 -2 -12 -22.5t-33.5 -45.5t-52.5 -44.5t-68 -19.5q-39 0 -66.5 18.5t-51 42t-46 42t-51.5 18.5q-31 0 -55.5 -16t-42.5 -38t-28.5 -40t-12.5 -20z" />
<glyph unicode="&#xd2;" horiz-adv-x="1327" d="M96 717q0 162 42 297t118 233.5t180.5 152.5t227.5 54q119 0 222 -51.5t181 -149.5q80 -100 121 -236t41 -300q0 -160 -41 -295t-116 -233.5t-179.5 -153.5t-228.5 -55q-125 0 -229.5 55t-179.5 153.5t-117 233.5t-42 295zM135 717q0 -154 39 -283t108.5 -221t167 -143.5 t214.5 -51.5t214 51.5t166.5 143.5t108.5 221t39 283t-39 282.5t-108.5 221t-167 143.5t-213.5 51q-117 0 -214.5 -51t-167 -143.5t-108.5 -221.5t-39 -282zM441 1753l16 25l430 -156l-16 -25z" />
<glyph unicode="&#xd3;" horiz-adv-x="1327" d="M96 717q0 162 42 297t118 233.5t180.5 152.5t227.5 54q119 0 222 -51.5t181 -149.5q80 -100 121 -236t41 -300q0 -160 -41 -295t-116 -233.5t-179.5 -153.5t-228.5 -55q-125 0 -229.5 55t-179.5 153.5t-117 233.5t-42 295zM135 717q0 -154 39 -283t108.5 -221t167 -143.5 t214.5 -51.5t214 51.5t166.5 143.5t108.5 221t39 283t-39 282.5t-108.5 221t-167 143.5t-213.5 51q-117 0 -214.5 -51t-167 -143.5t-108.5 -221.5t-39 -282zM441 1622l430 156l16 -25l-430 -156z" />
<glyph unicode="&#xd4;" horiz-adv-x="1327" d="M96 717q0 162 42 297t118 233.5t180.5 152.5t227.5 54q119 0 222 -51.5t181 -149.5q80 -100 121 -236t41 -300q0 -160 -41 -295t-116 -233.5t-179.5 -153.5t-228.5 -55q-125 0 -229.5 55t-179.5 153.5t-117 233.5t-42 295zM135 717q0 -154 39 -283t108.5 -221t167 -143.5 t214.5 -51.5t214 51.5t166.5 143.5t108.5 221t39 283t-39 282.5t-108.5 221t-167 143.5t-213.5 51q-117 0 -214.5 -51t-167 -143.5t-108.5 -221.5t-39 -282zM441 1622l223 133l223 -133l-16 -25l-207 125l-207 -125z" />
<glyph unicode="&#xd5;" horiz-adv-x="1267" d="M96 717q0 162 42 297t118 233.5t180.5 152.5t227.5 54q119 0 222 -51.5t181 -149.5q80 -100 121 -236t41 -300q0 -160 -41 -295t-116 -233.5t-179.5 -153.5t-228.5 -55q-125 0 -229.5 55t-179.5 153.5t-117 233.5t-42 295zM135 717q0 -154 39 -283t108.5 -221t167 -143.5 t214.5 -51.5t214 51.5t166.5 143.5t108.5 221t39 283t-39 282.5t-108.5 221t-167 143.5t-213.5 51q-117 0 -214.5 -51t-167 -143.5t-108.5 -221.5t-39 -282zM430 1618q6 10 20.5 32.5t36 45t50 40t63.5 17.5q39 0 64.5 -19.5t48 -42t46.5 -42t56 -19.5q31 0 55.5 16.5 t43.5 39.5q20 25 36 57l31 -14q0 -2 -12 -22.5t-33.5 -45.5t-52.5 -44.5t-68 -19.5q-39 0 -66.5 18.5t-51 42t-46 42t-51.5 18.5q-31 0 -55.5 -16t-42.5 -38t-28.5 -40t-12.5 -20z" />
<glyph unicode="&#xd6;" horiz-adv-x="1327" d="M96 717q0 162 42 297t118 233.5t180.5 152.5t227.5 54q119 0 222 -51.5t181 -149.5q80 -100 121 -236t41 -300q0 -160 -41 -295t-116 -233.5t-179.5 -153.5t-228.5 -55q-125 0 -229.5 55t-179.5 153.5t-117 233.5t-42 295zM135 717q0 -154 39 -283t108.5 -221t167 -143.5 t214.5 -51.5t214 51.5t166.5 143.5t108.5 221t39 283t-39 282.5t-108.5 221t-167 143.5t-213.5 51q-117 0 -214.5 -51t-167 -143.5t-108.5 -221.5t-39 -282zM510 1597v54h39v-54h-39zM776 1597v54h39v-54h-39z" />
<glyph unicode="&#xd9;" horiz-adv-x="1333" d="M96 1223q0 49 21.5 92t57.5 73.5t81 48t94 17.5q27 0 74 -12t93 -48t80 -100.5t34 -167.5q0 -86 -30 -146t-75 -109.5t-96 -95.5t-96 -101.5t-75 -127t-30 -171.5q0 -170 108.5 -263.5t287.5 -93.5q119 0 206 48.5t143 127t82.5 180t26.5 206.5v817h-116v37h274v-37h-119 v-1360h119v-37h-158v373q-20 -111 -75 -197q-25 -37 -59 -72.5t-80 -63.5t-107.5 -44t-136.5 -16q-98 0 -178 27.5t-137.5 79.5t-88.5 127t-31 167q0 104 30 178t75 131.5t96 103.5t96 93t75 104.5t30 134.5q0 135 -67.5 212t-174.5 77q-53 0 -93 -18.5t-67.5 -47t-41 -63.5 t-13.5 -67q0 -47 32 -97.5t109 -79.5l-14 -34q-92 35 -129 95t-37 120zM443 1753l16 25l430 -156l-16 -25z" />
<glyph unicode="&#xda;" horiz-adv-x="1333" d="M96 1223q0 49 21.5 92t57.5 73.5t81 48t94 17.5q27 0 74 -12t93 -48t80 -100.5t34 -167.5q0 -86 -30 -146t-75 -109.5t-96 -95.5t-96 -101.5t-75 -127t-30 -171.5q0 -170 108.5 -263.5t287.5 -93.5q119 0 206 48.5t143 127t82.5 180t26.5 206.5v817h-116v37h274v-37h-119 v-1360h119v-37h-158v373q-20 -111 -75 -197q-25 -37 -59 -72.5t-80 -63.5t-107.5 -44t-136.5 -16q-98 0 -178 27.5t-137.5 79.5t-88.5 127t-31 167q0 104 30 178t75 131.5t96 103.5t96 93t75 104.5t30 134.5q0 135 -67.5 212t-174.5 77q-53 0 -93 -18.5t-67.5 -47t-41 -63.5 t-13.5 -67q0 -47 32 -97.5t109 -79.5l-14 -34q-92 35 -129 95t-37 120zM443 1622l430 156l16 -25l-430 -156z" />
<glyph unicode="&#xdb;" horiz-adv-x="1333" d="M96 1223q0 49 21.5 92t57.5 73.5t81 48t94 17.5q27 0 74 -12t93 -48t80 -100.5t34 -167.5q0 -86 -30 -146t-75 -109.5t-96 -95.5t-96 -101.5t-75 -127t-30 -171.5q0 -170 108.5 -263.5t287.5 -93.5q119 0 206 48.5t143 127t82.5 180t26.5 206.5v817h-116v37h274v-37h-119 v-1360h119v-37h-158v373q-20 -111 -75 -197q-25 -37 -59 -72.5t-80 -63.5t-107.5 -44t-136.5 -16q-98 0 -178 27.5t-137.5 79.5t-88.5 127t-31 167q0 104 30 178t75 131.5t96 103.5t96 93t75 104.5t30 134.5q0 135 -67.5 212t-174.5 77q-53 0 -93 -18.5t-67.5 -47t-41 -63.5 t-13.5 -67q0 -47 32 -97.5t109 -79.5l-14 -34q-92 35 -129 95t-37 120zM443 1622l223 133l223 -133l-16 -25l-207 125l-207 -125z" />
<glyph unicode="&#xdc;" horiz-adv-x="1333" d="M96 1223q0 49 21.5 92t57.5 73.5t81 48t94 17.5q27 0 74 -12t93 -48t80 -100.5t34 -167.5q0 -86 -30 -146t-75 -109.5t-96 -95.5t-96 -101.5t-75 -127t-30 -171.5q0 -170 108.5 -263.5t287.5 -93.5q119 0 206 48.5t143 127t82.5 180t26.5 206.5v817h-116v37h274v-37h-119 v-1360h119v-37h-158v373q-20 -111 -75 -197q-25 -37 -59 -72.5t-80 -63.5t-107.5 -44t-136.5 -16q-98 0 -178 27.5t-137.5 79.5t-88.5 127t-31 167q0 104 30 178t75 131.5t96 103.5t96 93t75 104.5t30 134.5q0 135 -67.5 212t-174.5 77q-53 0 -93 -18.5t-67.5 -47t-41 -63.5 t-13.5 -67q0 -47 32 -97.5t109 -79.5l-14 -34q-92 35 -129 95t-37 120zM514 1597v54h39v-54h-39zM780 1597v54h39v-54h-39z" />
<glyph unicode="&#xe0;" d="M43 0v39h127l164 483l-232 178l23 31l221 -170l283 834h-252v39h534v-39h-229l266 -820l182 156l27 -29l-194 -167l159 -496h127v-39h-280v39h114l-153 469l-275 -236l-288 226l-156 -459h111v-39h-279zM379 537l276 -213l263 223l-263 805zM422 1753l16 25l430 -156 l-16 -25z" />
<glyph unicode="&#xe1;" d="M43 0v39h127l164 483l-232 178l23 31l221 -170l283 834h-252v39h534v-39h-229l266 -820l182 156l27 -29l-194 -167l159 -496h127v-39h-280v39h114l-153 469l-275 -236l-288 226l-156 -459h111v-39h-279zM379 537l276 -213l263 223l-263 805zM422 1622l430 156l16 -25 l-430 -156z" />
<glyph unicode="&#xe2;" d="M43 0v39h127l164 483l-232 178l23 31l221 -170l283 834h-252v39h534v-39h-229l266 -820l182 156l27 -29l-194 -167l159 -496h127v-39h-280v39h114l-153 469l-275 -236l-288 226l-156 -459h111v-39h-279zM379 537l276 -213l263 223l-263 805zM422 1622l223 133l223 -133 l-16 -25l-207 125l-207 -125z" />
<glyph unicode="&#xe3;" horiz-adv-x="1329" d="M43 0v39h127l164 483l-232 178l23 31l221 -170l283 834h-252v39h534v-39h-229l266 -820l182 156l27 -29l-194 -167l159 -496h127v-39h-280v39h114l-153 469l-275 -236l-288 226l-156 -459h111v-39h-279zM379 537l276 -213l263 223l-263 805zM460 1618q6 10 20.5 32.5 t36 45t50 40t63.5 17.5q39 0 64.5 -19.5t48 -42t46.5 -42t56 -19.5q31 0 55.5 16.5t43.5 39.5q20 25 36 57l31 -14q0 -2 -12 -22.5t-33.5 -45.5t-52.5 -44.5t-68 -19.5q-39 0 -66.5 18.5t-51 42t-46 42t-51.5 18.5q-31 0 -55.5 -16t-42.5 -38t-28.5 -40t-12.5 -20z" />
<glyph unicode="&#xe4;" d="M43 0v39h127l164 483l-232 178l23 31l221 -170l283 834h-252v39h534v-39h-229l266 -820l182 156l27 -29l-194 -167l159 -496h127v-39h-280v39h114l-153 469l-275 -236l-288 226l-156 -459h111v-39h-279zM379 537l276 -213l263 223l-263 805zM494 1597v54h39v-54h-39z M760 1597v54h39v-54h-39z" />
<glyph unicode="&#xe7;" horiz-adv-x="1288" d="M88 717q0 141 55.5 273t144.5 235.5t202.5 166t232.5 62.5q121 0 209 -31.5t144.5 -82t84 -115t27.5 -131.5q0 -72 -22.5 -132.5t-61.5 -103.5t-93.5 -67.5t-115.5 -24.5q-47 0 -91 18.5t-79 51t-56.5 77.5t-21.5 99q0 84 62 162l28 -25q-51 -63 -51 -135q0 -45 17.5 -83 t46 -65.5t66.5 -44t79 -16.5q45 0 91 17.5t82 52t58.5 90t22.5 129.5q0 59 -25.5 117.5t-78 103.5t-132 72.5t-190.5 27.5t-217.5 -59.5t-191.5 -156.5t-136 -223t-51 -259q0 -152 42 -280t116.5 -221t178 -145.5t226.5 -52.5q94 0 178 34t146.5 91.5t98.5 134t36 164.5h39 q0 -96 -40 -180t-107.5 -146.5t-157.5 -99t-193 -36.5q-131 0 -241.5 55t-190.5 153.5t-125 233.5t-45 295zM616 -272q27 8 58.5 22t59 29.5t45 32t17.5 28.5q0 14 -14 22.5t-32.5 13.5t-37 7t-26.5 2l-17 19v96h35v-80q20 0 43 -5t42 -14.5t31.5 -24.5t12.5 -36 q0 -53 -106 -104q-37 -18 -67 -29.5t-32 -11.5z" />
<glyph unicode="&#xe8;" horiz-adv-x="1114" d="M90 0v39h121v1356h-121v39h907l7 -37q-27 -10 -44.5 -35t-28.5 -56.5t-15.5 -67.5t-4.5 -69q0 -45 8.5 -88t24.5 -77l-33 -17q-20 39 -29.5 86t-9.5 98q0 61 14.5 122t51.5 102h-688v-660h504v-39h-504v-657h688q-35 39 -50.5 97.5t-15.5 121.5q0 51 9.5 99.5t29.5 88.5 l33 -16q-16 -35 -24.5 -78t-8.5 -88q0 -41 6.5 -78.5t20.5 -70.5q10 -23 25.5 -45.5t40.5 -32.5l-7 -37h-907zM334 1753l16 25l430 -156l-16 -25z" />
<glyph unicode="&#xe9;" horiz-adv-x="1114" d="M90 0v39h121v1356h-121v39h907l7 -37q-27 -10 -44.5 -35t-28.5 -56.5t-15.5 -67.5t-4.5 -69q0 -45 8.5 -88t24.5 -77l-33 -17q-20 39 -29.5 86t-9.5 98q0 61 14.5 122t51.5 102h-688v-660h504v-39h-504v-657h688q-35 39 -50.5 97.5t-15.5 121.5q0 51 9.5 99.5t29.5 88.5 l33 -16q-16 -35 -24.5 -78t-8.5 -88q0 -41 6.5 -78.5t20.5 -70.5q10 -23 25.5 -45.5t40.5 -32.5l-7 -37h-907zM334 1622l430 156l16 -25l-430 -156z" />
<glyph unicode="&#xea;" horiz-adv-x="1114" d="M90 0v39h121v1356h-121v39h907l7 -37q-27 -10 -44.5 -35t-28.5 -56.5t-15.5 -67.5t-4.5 -69q0 -45 8.5 -88t24.5 -77l-33 -17q-20 39 -29.5 86t-9.5 98q0 61 14.5 122t51.5 102h-688v-660h504v-39h-504v-657h688q-35 39 -50.5 97.5t-15.5 121.5q0 51 9.5 99.5t29.5 88.5 l33 -16q-16 -35 -24.5 -78t-8.5 -88q0 -41 6.5 -78.5t20.5 -70.5q10 -23 25.5 -45.5t40.5 -32.5l-7 -37h-907zM334 1622l223 133l223 -133l-16 -25l-207 125l-207 -125z" />
<glyph unicode="&#xeb;" horiz-adv-x="1114" d="M90 0v39h121v1356h-121v39h907l7 -37q-27 -10 -44.5 -35t-28.5 -56.5t-15.5 -67.5t-4.5 -69q0 -45 8.5 -88t24.5 -77l-33 -17q-20 39 -29.5 86t-9.5 98q0 61 14.5 122t51.5 102h-688v-660h504v-39h-504v-657h688q-35 39 -50.5 97.5t-15.5 121.5q0 51 9.5 99.5t29.5 88.5 l33 -16q-16 -35 -24.5 -78t-8.5 -88q0 -41 6.5 -78.5t20.5 -70.5q10 -23 25.5 -45.5t40.5 -32.5l-7 -37h-907zM404 1597v54h39v-54h-39zM670 1597v54h39v-54h-39z" />
<glyph unicode="&#xec;" horiz-adv-x="319" d="M-61 1753l16 25l430 -156l-16 -25zM23 0v39h118v1356h-118v39h278v-39h-121v-1356h121v-39h-278z" />
<glyph unicode="&#xed;" horiz-adv-x="319" d="M-61 1622l430 156l16 -25l-430 -156zM23 0v39h118v1356h-118v39h278v-39h-121v-1356h121v-39h-278z" />
<glyph unicode="&#xee;" horiz-adv-x="319" d="M-61 1622l223 133l223 -133l-16 -25l-207 125l-207 -125zM23 0v39h118v1356h-118v39h278v-39h-121v-1356h121v-39h-278z" />
<glyph unicode="&#xef;" horiz-adv-x="319" d="M10 1597v54h39v-54h-39zM23 0v39h118v1356h-118v39h278v-39h-121v-1356h121v-39h-278zM276 1597v54h39v-54h-39z" />
<glyph unicode="&#xf1;" horiz-adv-x="1280" d="M92 0v37h119v1360h-119v37h156v-373q25 111 84 196q25 37 59.5 72t80.5 62.5t104.5 45t132.5 17.5q98 0 178 -28.5t136 -81t88 -126t32 -165.5q0 -135 -62.5 -237.5t-162.5 -197.5q-35 -31 -67 -63.5t-56.5 -70.5t-39 -81t-14.5 -96v-10q0 -135 71 -207t171 -72 q53 0 93 18.5t67.5 47.5t41 62.5t13.5 66.5q0 49 -31.5 98t-109.5 80l14 35q92 -35 129 -95.5t37 -119.5q0 -47 -20.5 -89t-55.5 -74t-81 -50t-97 -18q-29 0 -77 13t-93 49t-78 99.5t-33 165.5q0 61 16.5 109.5t43 88.5t61.5 73.5t70 68.5q45 43 83 87t66.5 94.5t45 106.5 t16.5 124q0 86 -28.5 151.5t-81 111.5t-125 69.5t-160.5 23.5q-119 0 -206 -48t-143.5 -128t-84 -180.5t-27.5 -204.5v-817h119v-37h-275zM436 1618q6 10 20.5 32.5t36 45t50 40t63.5 17.5q39 0 64.5 -19.5t48 -42t46.5 -42t56 -19.5q31 0 55.5 16.5t43.5 39.5q20 25 36 57 l31 -14q0 -2 -12 -22.5t-33.5 -45.5t-52.5 -44.5t-68 -19.5q-39 0 -66.5 18.5t-51 42t-46 42t-51.5 18.5q-31 0 -55.5 -16t-42.5 -38t-28.5 -40t-12.5 -20z" />
<glyph unicode="&#xf2;" horiz-adv-x="1327" d="M96 717q0 162 42 297t118 233.5t180.5 152.5t227.5 54q119 0 222 -51.5t181 -149.5q80 -100 121 -236t41 -300q0 -160 -41 -295t-116 -233.5t-179.5 -153.5t-228.5 -55q-125 0 -229.5 55t-179.5 153.5t-117 233.5t-42 295zM135 717q0 -154 39 -283t108.5 -221t167 -143.5 t214.5 -51.5t214 51.5t166.5 143.5t108.5 221t39 283t-39 282.5t-108.5 221t-167 143.5t-213.5 51q-117 0 -214.5 -51t-167 -143.5t-108.5 -221.5t-39 -282zM441 1753l16 25l430 -156l-16 -25zM616 717q0 20 13.5 34.5t34.5 14.5q20 0 34.5 -14.5t14.5 -34.5t-14.5 -33.5 t-34.5 -13.5t-34 13.5t-14 33.5z" />
<glyph unicode="&#xf3;" horiz-adv-x="1327" d="M96 717q0 162 42 297t118 233.5t180.5 152.5t227.5 54q119 0 222 -51.5t181 -149.5q80 -100 121 -236t41 -300q0 -160 -41 -295t-116 -233.5t-179.5 -153.5t-228.5 -55q-125 0 -229.5 55t-179.5 153.5t-117 233.5t-42 295zM135 717q0 -154 39 -283t108.5 -221t167 -143.5 t214.5 -51.5t214 51.5t166.5 143.5t108.5 221t39 283t-39 282.5t-108.5 221t-167 143.5t-213.5 51q-117 0 -214.5 -51t-167 -143.5t-108.5 -221.5t-39 -282zM441 1622l430 156l16 -25l-430 -156zM616 717q0 20 13.5 34.5t34.5 14.5q20 0 34.5 -14.5t14.5 -34.5t-14.5 -33.5 t-34.5 -13.5t-34 13.5t-14 33.5z" />
<glyph unicode="&#xf4;" horiz-adv-x="1327" d="M96 717q0 162 42 297t118 233.5t180.5 152.5t227.5 54q119 0 222 -51.5t181 -149.5q80 -100 121 -236t41 -300q0 -160 -41 -295t-116 -233.5t-179.5 -153.5t-228.5 -55q-125 0 -229.5 55t-179.5 153.5t-117 233.5t-42 295zM135 717q0 -154 39 -283t108.5 -221t167 -143.5 t214.5 -51.5t214 51.5t166.5 143.5t108.5 221t39 283t-39 282.5t-108.5 221t-167 143.5t-213.5 51q-117 0 -214.5 -51t-167 -143.5t-108.5 -221.5t-39 -282zM441 1622l223 133l223 -133l-16 -25l-207 125l-207 -125zM616 717q0 20 13.5 34.5t34.5 14.5q20 0 34.5 -14.5 t14.5 -34.5t-14.5 -33.5t-34.5 -13.5t-34 13.5t-14 33.5z" />
<glyph unicode="&#xf5;" horiz-adv-x="1267" d="M96 717q0 162 42 297t118 233.5t180.5 152.5t227.5 54q119 0 222 -51.5t181 -149.5q80 -100 121 -236t41 -300q0 -160 -41 -295t-116 -233.5t-179.5 -153.5t-228.5 -55q-125 0 -229.5 55t-179.5 153.5t-117 233.5t-42 295zM135 717q0 -154 39 -283t108.5 -221t167 -143.5 t214.5 -51.5t214 51.5t166.5 143.5t108.5 221t39 283t-39 282.5t-108.5 221t-167 143.5t-213.5 51q-117 0 -214.5 -51t-167 -143.5t-108.5 -221.5t-39 -282zM430 1618q6 10 20.5 32.5t36 45t50 40t63.5 17.5q39 0 64.5 -19.5t48 -42t46.5 -42t56 -19.5q31 0 55.5 16.5 t43.5 39.5q20 25 36 57l31 -14q0 -2 -12 -22.5t-33.5 -45.5t-52.5 -44.5t-68 -19.5q-39 0 -66.5 18.5t-51 42t-46 42t-51.5 18.5q-31 0 -55.5 -16t-42.5 -38t-28.5 -40t-12.5 -20zM616 717q0 20 13.5 34.5t34.5 14.5q20 0 34.5 -14.5t14.5 -34.5t-14.5 -33.5t-34.5 -13.5 t-34 13.5t-14 33.5z" />
<glyph unicode="&#xf6;" horiz-adv-x="1327" d="M96 717q0 162 42 297t118 233.5t180.5 152.5t227.5 54q119 0 222 -51.5t181 -149.5q80 -100 121 -236t41 -300q0 -160 -41 -295t-116 -233.5t-179.5 -153.5t-228.5 -55q-125 0 -229.5 55t-179.5 153.5t-117 233.5t-42 295zM135 717q0 -154 39 -283t108.5 -221t167 -143.5 t214.5 -51.5t214 51.5t166.5 143.5t108.5 221t39 283t-39 282.5t-108.5 221t-167 143.5t-213.5 51q-117 0 -214.5 -51t-167 -143.5t-108.5 -221.5t-39 -282zM510 1597v54h39v-54h-39zM616 717q0 20 13.5 34.5t34.5 14.5q20 0 34.5 -14.5t14.5 -34.5t-14.5 -33.5t-34.5 -13.5 t-34 13.5t-14 33.5zM776 1597v54h39v-54h-39z" />
<glyph unicode="&#xf9;" horiz-adv-x="1333" d="M96 1223q0 49 21.5 92t57.5 73.5t81 48t94 17.5q27 0 74 -12t93 -48t80 -100.5t34 -167.5q0 -86 -30 -146t-75 -109.5t-96 -95.5t-96 -101.5t-75 -127t-30 -171.5q0 -170 108.5 -263.5t287.5 -93.5q119 0 206 48.5t143 127t82.5 180t26.5 206.5v817h-116v37h274v-37h-119 v-1360h119v-37h-158v373q-20 -111 -75 -197q-25 -37 -59 -72.5t-80 -63.5t-107.5 -44t-136.5 -16q-98 0 -178 27.5t-137.5 79.5t-88.5 127t-31 167q0 104 30 178t75 131.5t96 103.5t96 93t75 104.5t30 134.5q0 135 -67.5 212t-174.5 77q-53 0 -93 -18.5t-67.5 -47t-41 -63.5 t-13.5 -67q0 -47 32 -97.5t109 -79.5l-14 -34q-92 35 -129 95t-37 120zM443 1753l16 25l430 -156l-16 -25z" />
<glyph unicode="&#xfa;" horiz-adv-x="1333" d="M96 1223q0 49 21.5 92t57.5 73.5t81 48t94 17.5q27 0 74 -12t93 -48t80 -100.5t34 -167.5q0 -86 -30 -146t-75 -109.5t-96 -95.5t-96 -101.5t-75 -127t-30 -171.5q0 -170 108.5 -263.5t287.5 -93.5q119 0 206 48.5t143 127t82.5 180t26.5 206.5v817h-116v37h274v-37h-119 v-1360h119v-37h-158v373q-20 -111 -75 -197q-25 -37 -59 -72.5t-80 -63.5t-107.5 -44t-136.5 -16q-98 0 -178 27.5t-137.5 79.5t-88.5 127t-31 167q0 104 30 178t75 131.5t96 103.5t96 93t75 104.5t30 134.5q0 135 -67.5 212t-174.5 77q-53 0 -93 -18.5t-67.5 -47t-41 -63.5 t-13.5 -67q0 -47 32 -97.5t109 -79.5l-14 -34q-92 35 -129 95t-37 120zM443 1622l430 156l16 -25l-430 -156z" />
<glyph unicode="&#xfb;" horiz-adv-x="1333" d="M96 1223q0 49 21.5 92t57.5 73.5t81 48t94 17.5q27 0 74 -12t93 -48t80 -100.5t34 -167.5q0 -86 -30 -146t-75 -109.5t-96 -95.5t-96 -101.5t-75 -127t-30 -171.5q0 -170 108.5 -263.5t287.5 -93.5q119 0 206 48.5t143 127t82.5 180t26.5 206.5v817h-116v37h274v-37h-119 v-1360h119v-37h-158v373q-20 -111 -75 -197q-25 -37 -59 -72.5t-80 -63.5t-107.5 -44t-136.5 -16q-98 0 -178 27.5t-137.5 79.5t-88.5 127t-31 167q0 104 30 178t75 131.5t96 103.5t96 93t75 104.5t30 134.5q0 135 -67.5 212t-174.5 77q-53 0 -93 -18.5t-67.5 -47t-41 -63.5 t-13.5 -67q0 -47 32 -97.5t109 -79.5l-14 -34q-92 35 -129 95t-37 120zM443 1622l223 133l223 -133l-16 -25l-207 125l-207 -125z" />
<glyph unicode="&#xfc;" horiz-adv-x="1333" d="M96 1223q0 49 21.5 92t57.5 73.5t81 48t94 17.5q27 0 74 -12t93 -48t80 -100.5t34 -167.5q0 -86 -30 -146t-75 -109.5t-96 -95.5t-96 -101.5t-75 -127t-30 -171.5q0 -170 108.5 -263.5t287.5 -93.5q119 0 206 48.5t143 127t82.5 180t26.5 206.5v817h-116v37h274v-37h-119 v-1360h119v-37h-158v373q-20 -111 -75 -197q-25 -37 -59 -72.5t-80 -63.5t-107.5 -44t-136.5 -16q-98 0 -178 27.5t-137.5 79.5t-88.5 127t-31 167q0 104 30 178t75 131.5t96 103.5t96 93t75 104.5t30 134.5q0 135 -67.5 212t-174.5 77q-53 0 -93 -18.5t-67.5 -47t-41 -63.5 t-13.5 -67q0 -47 32 -97.5t109 -79.5l-14 -34q-92 35 -129 95t-37 120zM514 1597v54h39v-54h-39zM780 1597v54h39v-54h-39z" />
<glyph unicode="&#x2c6;" horiz-adv-x="671" d="M113 1622l223 133l223 -133l-16 -25l-207 125l-207 -125z" />
<glyph unicode="&#x2dc;" horiz-adv-x="745" d="M98 1618q6 10 20.5 32.5t36 45t50 40t63.5 17.5q39 0 64.5 -19.5t48 -42t46.5 -42t56 -19.5q31 0 55.5 16.5t43.5 39.5q20 25 36 57l31 -14q0 -2 -12 -22.5t-33.5 -45.5t-52.5 -44.5t-68 -19.5q-39 0 -66.5 18.5t-51 42t-46 42t-51.5 18.5q-31 0 -55.5 -16t-42.5 -38 t-28.5 -40t-12.5 -20z" />
<glyph unicode="&#x2000;" horiz-adv-x="889" />
<glyph unicode="&#x2001;" horiz-adv-x="1778" />
<glyph unicode="&#x2002;" horiz-adv-x="889" />
<glyph unicode="&#x2003;" horiz-adv-x="1778" />
<glyph unicode="&#x2004;" horiz-adv-x="592" />
<glyph unicode="&#x2005;" horiz-adv-x="444" />
<glyph unicode="&#x2006;" horiz-adv-x="296" />
<glyph unicode="&#x2007;" horiz-adv-x="296" />
<glyph unicode="&#x2008;" horiz-adv-x="222" />
<glyph unicode="&#x2009;" horiz-adv-x="355" />
<glyph unicode="&#x200a;" horiz-adv-x="98" />
<glyph unicode="&#x2010;" horiz-adv-x="729" d="M178 766v39h406v-39h-406z" />
<glyph unicode="&#x2011;" horiz-adv-x="729" d="M178 766v39h406v-39h-406z" />
<glyph unicode="&#x2012;" horiz-adv-x="729" d="M178 766v39h406v-39h-406z" />
<glyph unicode="&#x2013;" horiz-adv-x="1347" d="M178 766v39h1024v-39h-1024z" />
<glyph unicode="&#x2014;" horiz-adv-x="2371" d="M178 766v39h2048v-39h-2048z" />
<glyph unicode="&#x202f;" horiz-adv-x="355" />
<glyph unicode="&#x205f;" horiz-adv-x="444" />
<glyph unicode="&#xe000;" horiz-adv-x="1433" d="M0 0v1434h1434v-1434h-1434z" />
</font>
</defs>
</svg>
