<?xml version="1.0" standalone="no"?>
<!DOCTYPE svg PUBLIC "-//W3C//DTD SVG 1.1//EN" "http://www.w3.org/Graphics/SVG/1.1/DTD/svg11.dtd" >
<svg xmlns="http://www.w3.org/2000/svg">
<metadata></metadata>
<defs>
<font id="uralitaregular" horiz-adv-x="1280" >
<font-face units-per-em="2048" ascent="1536" descent="-512" />
<missing-glyph horiz-adv-x="655" />
<glyph horiz-adv-x="2048" />
<glyph horiz-adv-x="2048" />
<glyph unicode="&#xd;" horiz-adv-x="655" />
<glyph unicode=" "  horiz-adv-x="655" />
<glyph unicode="&#x09;" horiz-adv-x="655" />
<glyph unicode="&#xa0;" horiz-adv-x="655" />
<glyph unicode="!" horiz-adv-x="241" d="M49 0v158h139v-158h-139zM66 309v1094h110v-1094h-110z" />
<glyph unicode="," horiz-adv-x="288" d="M51 -61l47 219h142l-45 -219h-144z" />
<glyph unicode="-" horiz-adv-x="600" d="M76 709v112h450v-112h-450z" />
<glyph unicode="." horiz-adv-x="286" d="M76 0v158h139v-158h-139z" />
<glyph unicode="0" horiz-adv-x="1236" d="M57 702q0 158 42 290t117 227.5t178.5 148.5t226.5 53q156 0 278 -84q10 18 21.5 35t17.5 31h129l-80 -137q98 -98 146.5 -243.5t48.5 -320.5q0 -158 -41 -289.5t-115 -227t-177.5 -149.5t-227.5 -54q-178 0 -318 110q-14 -23 -29.5 -48.5t-25.5 -43.5h-127l100 174 q-76 96 -120 232.5t-44 295.5zM170 702q0 -129 29.5 -236.5t83.5 -186.5l561 962q-94 70 -223 70q-100 0 -183.5 -45t-142.5 -125t-92 -192t-33 -247zM358 190q109 -98 263 -98q100 0 183 45t142.5 126t92 192.5t32.5 246.5q0 143 -39 262t-104 201z" />
<glyph unicode="1" horiz-adv-x="571" d="M10 1196l340 223l70 -33v-1273h112v-113h-335v113h110v1144l-235 -157z" />
<glyph unicode="2" horiz-adv-x="845" d="M61 41q0 57 22.5 112.5t61.5 110.5t87.5 110.5t101.5 114.5q59 63 118.5 132t107.5 139.5t78 142.5t30 144q0 129 -60.5 197.5t-171.5 68.5q-47 0 -94 -13.5t-85 -42t-61.5 -72.5t-23.5 -106q0 -135 104 -135q23 0 42.5 14.5t33 36t21.5 46t8 44.5h111q0 -49 -18.5 -95 t-49.5 -81t-70 -56.5t-78 -21.5q-104 0 -159.5 66t-55.5 182q0 76 29 139.5t79 108.5t118.5 69.5t148.5 24.5q164 0 254 -97t90 -277q0 -88 -33.5 -172t-86 -163t-117 -154t-127.5 -142q-78 -86 -143.5 -163t-88.5 -140h484v237h112v-309l-41 -41h-639z" />
<glyph unicode="3" horiz-adv-x="886" d="M57 311q0 125 80 190.5t203 65.5v-112q-76 0 -124 -37t-48 -111q0 -61 26.5 -103t66.5 -66.5t85 -35t82 -10.5q55 0 107.5 19.5t94.5 56.5t67.5 91t25.5 122q0 57 -26.5 109.5t-70.5 93.5t-101.5 66.5t-118.5 31.5v106q139 0 211.5 68t72.5 191q0 125 -69.5 194.5 t-204.5 69.5q-117 0 -182.5 -56.5t-65.5 -173.5l1 -16t8 -35.5t21.5 -35t39.5 -15.5q23 0 42 14.5t32.5 35t21.5 45t8 44.5h113q0 -45 -18.5 -89t-48.5 -80t-68.5 -58.5t-79.5 -22.5q-84 0 -133.5 64.5t-49.5 169.5q0 141 92.5 230t270.5 89q186 0 283.5 -101t97.5 -273 q0 -115 -43 -198t-123 -128q96 -57 147.5 -145.5t51.5 -198.5q0 -90 -34 -164t-90.5 -125t-132 -78.5t-159.5 -27.5q-80 0 -145.5 23.5t-113.5 67.5t-75 104.5t-27 133.5z" />
<glyph unicode="4" horiz-adv-x="911" d="M23 1214q0 31 10 67t33.5 67.5t63.5 52t101 20.5q111 0 175.5 -71.5t64.5 -235.5q0 -86 -20.5 -165t-54.5 -147.5t-78 -130t-91 -112.5h387v844h111v-844h143v-110h-143v-336h113v-113h-332v113h108v336h-544l-33 75q61 61 119.5 128t103.5 140.5t71.5 153.5t26.5 168 q0 106 -33.5 152.5t-93.5 46.5q-29 0 -47 -9.5t-29.5 -23.5t-15.5 -31.5t-4 -31.5q0 -25 19.5 -52.5t66.5 -50.5l-57 -100q-66 35 -103.5 87t-37.5 113z" />
<glyph unicode="5" horiz-adv-x="931" d="M59 330q0 49 12.5 98t40 88t70.5 63.5t103 24.5q51 0 90 -21.5t65.5 -50t43 -56t22.5 -40.5l-127 -41q0 4 -5 19.5t-17.5 33t-30 32t-41.5 14.5q-59 0 -86 -49.5t-27 -114.5q0 -66 26.5 -112t68.5 -73.5t93.5 -40t100.5 -12.5q141 0 221 88t80 240q0 49 -13.5 102 t-49 96.5t-99 71t-166.5 27.5h-284l-39 41v606l39 39h620l41 -39v-309h-113v237h-475v-463h211q227 1 342 -122q98 -104 98 -287q0 -205 -112.5 -321.5t-304.5 -116.5q-86 0 -160 24.5t-126 69.5t-82 109.5t-30 144.5z" />
<glyph unicode="6" horiz-adv-x="968" d="M43 580q0 186 56.5 338.5t161 260t251.5 166t330 58.5v-111q-158 0 -284 -50t-216 -143t-138 -225.5t-48 -293.5q0 -102 27.5 -191.5t75.5 -155t113.5 -103.5t141.5 -38q137 0 217 88t80 242q0 129 -57.5 202.5t-153.5 73.5q-59 0 -108.5 -41t-49.5 -114h-110 q0 61 23.5 111.5t61.5 84t86 52t97 18.5q82 0 142.5 -33t100.5 -87t60.5 -123.5t20.5 -143.5q0 -100 -30 -181t-83 -138.5t-129 -89t-168 -31.5q-98 0 -184 47t-149.5 128t-100.5 190.5t-37 232.5z" />
<glyph unicode="7" horiz-adv-x="782" d="M55 1049v313l41 41h619l41 -55l-224 -682q29 -10 54 -11q18 0 49 11.5t76 33.5l43 -104q-51 -25 -91 -38t-77 -13q-45 0 -86 14q-39 -117 -74 -221.5t-74 -224.5h94v-113h-335v113h125l163 499q-31 18 -62.5 36t-55.5 18q-16 0 -52 -35l-79 82q78 66 131 65 q49 0 83.5 -16.5t69.5 -38.5l184 569h-450v-243h-113z" />
<glyph unicode="8" horiz-adv-x="911" d="M53 385q0 100 36 170t89 118t113.5 78.5t109.5 51.5l35 14q33 14 77 35.5t82 53.5t64.5 75t26.5 100q0 63 -20.5 106.5t-53 71t-73.5 40t-82 12.5q-47 0 -94.5 -13.5t-84 -42t-60 -71.5t-23.5 -103q0 -43 22.5 -73.5t53 -51t61 -31t47.5 -10.5l-60 -90q-6 0 -42.5 7.5 t-79.5 33t-77 76.5t-34 139q0 76 28.5 139.5t79 107.5t118 68.5t145.5 24.5q154 0 248 -90t94 -250q0 -78 -35 -138t-84 -105t-104.5 -76t-98.5 -49l-31 -13q-43 -18 -92 -41.5t-91 -60.5t-69.5 -89t-27.5 -124q0 -137 76.5 -215t214.5 -78q63 0 116.5 22.5t92.5 61.5 t61.5 92.5t22.5 116.5q0 80 -26 130t-54 83q-31 37 -109 66l103 81q10 -8 24 -16q25 -18 62 -51q39 -39 74.5 -109.5t35.5 -183.5q0 -84 -30.5 -157.5t-85 -128t-128 -86t-159.5 -31.5q-92 0 -166 28.5t-127 80.5t-82 127t-29 167z" />
<glyph unicode="9" horiz-adv-x="968" d="M45 963q0 100 29.5 181t83 138t128 89t167.5 32q98 0 185 -47t150.5 -128t100.5 -190.5t37 -232.5q0 -188 -57.5 -340t-162 -259.5t-252 -165.5t-327.5 -58v108q156 0 283 50t217 144.5t138 225.5t48 295q0 102 -27.5 191t-77 155t-115 103.5t-140.5 37.5 q-137 0 -216 -88t-79 -241q0 -129 57 -203t154 -74q59 0 108 41t49 115h111q0 -61 -23.5 -111.5t-61.5 -84.5t-86 -52.5t-97 -18.5q-82 0 -142.5 33t-100.5 87.5t-60.5 124t-20.5 143.5z" />
<glyph unicode=":" horiz-adv-x="286" d="M76 0v158h139v-158h-139zM76 459v155h139v-155h-139z" />
<glyph unicode=";" horiz-adv-x="286" d="M29 -61l47 219h141l-45 -219h-143zM76 459v155h139v-155h-139z" />
<glyph unicode="?" horiz-adv-x="768" d="M20 1065q0 39 11.5 99.5t48.5 117.5t107.5 98t189.5 41q94 0 169 -29.5t124 -101.5q76 -109 75 -295q0 -100 -21.5 -170.5t-53 -120t-70.5 -81t-72 -56.5q-8 -6 -17 -12t-15 -12q-39 -31 -59.5 -58.5t-30.5 -64.5q-10 -31 -15 -92q-2 -29 -2 -46.5v-27.5v-27h-110v25 q0 23 2 53.5t6 62t10 63.5t16 56q23 53 58 90t92 76q29 20 59.5 45t55 64t41 95t16.5 140q0 166 -66.5 240t-185.5 74q-82 0 -132 -28t-77 -67.5t-35 -81.5t-8 -69q0 -70 36 -115t95 -45q41 0 59.5 20.5t18.5 55.5q0 23 -13.5 50.5t-47.5 62.5l77 80q96 -98 97 -193 q0 -78 -48.5 -133t-142.5 -55q-106 0 -174 75.5t-68 196.5zM279 0v109h110v-109h-110z" />
<glyph unicode="A" horiz-adv-x="1296" d="M39 0v115h133q35 106 67.5 201.5t69.5 203.5q-53 41 -115.5 87t-109.5 85l59 94l203 -155l232 688h-224v115h584v-115h-203q29 -88 56.5 -170t53 -162t53.5 -163t56 -173l154 131l80 -82l-195 -168q35 -109 66 -208t67 -209h131v-115h-342v115h93q-16 47 -28.5 87 t-25 78.5t-26 80.5t-29.5 92l-240 -207l-256 200l-114 -331h92v-115h-342zM442 559q55 -41 104.5 -81t108.5 -83l205 172l-205 627q-55 -164 -105 -316.5t-108 -318.5z" />
<glyph unicode="B" horiz-adv-x="1142" d="M68 0v115h114v1204h-114v115h436q274 0 396 -92.5t122 -247.5q0 -213 -248 -340q66 -14 125.5 -40t106.5 -67q81 -79 81 -202q0 -91 -31.5 -157.5t-82.5 -115.5t-115.5 -83t-130 -53.5t-124 -27.5t-99.5 -8h-436zM295 115h209q49 0 128 14t154.5 51t131 100.5t55.5 159.5 q0 53 -26.5 91t-69.5 62.5t-98.5 38t-112 20.5t-109.5 8.5t-92 1.5l-4 102q33 8 106.5 29.5t149.5 60.5t133 98.5t57 141.5q0 106 -94 165.5t-309 59.5h-209v-1204z" />
<glyph unicode="C" horiz-adv-x="1230" d="M53 717q0 141 55.5 273t145.5 234.5t204.5 165t235.5 62.5q123 0 213 -33t148.5 -86t87 -121.5t28.5 -138.5q0 -78 -24.5 -141.5t-66.5 -109.5t-99 -71.5t-125 -25.5q-51 0 -100 20.5t-87 56.5t-61.5 85t-23.5 108q0 94 92 211l84 -78q-61 -76 -62 -131 q0 -68 47.5 -112.5t110.5 -44.5q37 0 73 14t64.5 43t46 73t17.5 103q0 49 -21.5 97.5t-65.5 85t-113 60t-163 23.5q-98 0 -192 -53t-168 -140t-120 -198.5t-46 -230.5q0 -135 37 -250t102.5 -198t155.5 -129t199 -46q82 0 153.5 32t124.5 86t85 127t32 157h114 q0 -106 -39.5 -199.5t-109.5 -163.5t-163 -110.5t-197 -40.5q-133 0 -244 54t-193 152.5t-127 233.5t-45 295z" />
<glyph unicode="D" horiz-adv-x="1204" d="M70 0v115h114v1204h-114v115h458q291 0 445 -162q88 -90 131 -229.5t43 -325.5q0 -160 -45 -291t-127 -226.5t-195.5 -147.5t-251.5 -52h-458zM299 115h229q113 0 206 43t160 122.5t102.5 190.5t35.5 246q0 307 -123 454.5t-381 147.5h-229v-1204z" />
<glyph unicode="E" horiz-adv-x="1302" d="M57 717q0 147 47.5 280t126 234.5t182 161t218.5 59.5q143 0 240.5 -42t154.5 -110q29 63 82 98.5t145 35.5v-113q-80 0 -111.5 -57.5t-31.5 -190.5q0 -78 -27.5 -141.5t-74.5 -109.5t-112 -71.5t-140 -25.5v115q102 0 170.5 56t68.5 177q0 49 -21.5 97.5t-66.5 85 t-113.5 60t-162.5 23.5q-80 0 -155 -38.5t-135 -106.5t-102 -159t-57 -195h424v-115h-434v-8q0 -135 37 -250t102.5 -198t155.5 -129t197 -46q82 0 154.5 32t125.5 86t85 127t32 157h113q0 -106 -41 -200.5t-110 -164.5t-162 -109.5t-197 -39.5q-133 0 -244 54t-192 152.5 t-126 233.5t-45 295z" />
<glyph unicode="F" horiz-adv-x="909" d="M45 0v115h113v727q0 199 44 319.5t107.5 185t135 85t128.5 20.5q164 0 248 -100q72 -84 72 -217q0 -59 -21.5 -110.5t-57.5 -90.5t-81 -61.5t-94 -22.5q-43 0 -82 15.5t-68.5 43t-46 64.5t-16.5 80q0 61 57 143l95 -59q-37 -57 -37 -82q0 -41 28.5 -65.5t69.5 -24.5 q27 0 52.5 14t46 36.5t31.5 53.5t11 66q0 25 -6 59.5t-27.5 67t-62.5 56t-111 23.5q-145 0 -223 -127t-78 -372v-205h308v-115h-308v-407h113v-115h-340z" />
<glyph unicode="G" horiz-adv-x="1290" d="M55 717q0 152 48.5 286t134.5 233t202.5 157.5t253.5 58.5q74 0 143.5 -18.5t129 -52t105.5 -80t75 -103.5l-96 -59q-47 92 -143.5 146t-213.5 54q-111 0 -207 -48t-166.5 -132t-111.5 -197.5t-41 -244.5q0 -117 30.5 -228.5t95 -198.5t164 -141.5t236.5 -54.5 q111 0 191 35t133 92.5t78.5 127t25.5 140.5q0 156 -79.5 244t-221.5 88q-41 0 -77.5 -15t-65.5 -43t-46.5 -66t-17.5 -81q0 -78 82 -188l-90 -68q-106 137 -106 258q0 68 27.5 125.5t71.5 100.5t102.5 67.5t119.5 24.5q94 0 171 -32t130.5 -90t83 -141t29.5 -184 q0 -111 -40 -203.5t-111.5 -160.5t-171 -105.5t-218.5 -37.5q-145 0 -263 54t-202 151.5t-129 232.5t-45 297z" />
<glyph unicode="H" horiz-adv-x="1236" d="M70 0v115h110v1204h-110v115h340v-115h-115v-678h645v678h-115v115h342v-115h-112v-1204h112v-115h-342v115h115v411h-645v-411h115v-115h-340z" />
<glyph unicode="I" horiz-adv-x="434" d="M47 0v115h113v1204h-113v115h342v-115h-115v-1204h115v-115h-342z" />
<glyph unicode="J" horiz-adv-x="608" d="M25 184q0 53 57 144l96 -62q-39 -59 -39 -84q0 -41 31 -65.5t70 -24.5q53 0 79.5 55.5t26.5 184.5v989h-115v113h340v-113h-112v-989q0 -184 -54.5 -268t-164.5 -84q-88 0 -151.5 56t-63.5 148z" />
<glyph unicode="K" horiz-adv-x="1114" d="M57 0v115h113v1194h-113v112h340v-112h-112v-1194h112v-115h-340zM326 604l32 78q18 47 46 112.5t58 133t57.5 130t47.5 103.5q45 92 84 148.5t74 88.5t65.5 43t59.5 11q98 0 157.5 -61.5t59.5 -149.5q0 -49 -23.5 -90t-60.5 -71.5t-83 -48t-91 -17.5v114q23 0 47.5 7.5 t46 21.5t35.5 34.5t14 47.5q0 47 -28.5 74.5t-61.5 27.5q-41 0 -81 -44t-81 -117.5t-83 -171t-85 -201.5q-23 -53 -39 -93t-38 -91l387 -508h207v-115h-263z" />
<glyph unicode="L" horiz-adv-x="901" d="M66 0v115h114v1204h-114v115h344v-115h-115v-1204h340q72 0 106.5 45t34.5 96q0 41 -21.5 71.5t-49.5 30.5q-33 0 -80 -65l-97 59q92 121 177 121q10 0 23.5 -2t23.5 -6q59 -20 97 -78.5t38 -130.5q0 -49 -16.5 -95t-48 -82t-79 -57.5t-108.5 -21.5h-569z" />
<glyph unicode="M" horiz-adv-x="1683" d="M66 0v113h110v1196h-110v110h223v-131q23 45 57 82q29 31 72 56.5t102 25.5q90 0 160 -38t113 -111q66 78 142.5 113.5t166.5 35.5q100 0 178 -38t131 -102.5t81 -151.5t28 -185q0 -115 -51.5 -204t-114 -164t-113.5 -141.5t-51 -137.5q0 -61 17.5 -105.5t43 -73t55 -43 t54.5 -14.5q76 0 112.5 43t36.5 90q0 37 -33.5 81t-121.5 77l76 94q53 -23 89.5 -51.5t59.5 -62t33 -69.5t10 -69q0 -43 -16.5 -86t-49 -78.5t-82 -58t-114.5 -22.5q-39 0 -88 17t-92 57t-73 106.5t-30 167.5q0 63 24.5 116.5t60.5 102.5t79 97t79 100.5t60.5 110.5 t24.5 130t-20.5 136.5t-59.5 112.5t-95 76.5t-128 28.5q-82 0 -150.5 -46t-105.5 -117q10 -45 15 -95.5t5 -103.5v-977h-112v977q0 72 -10.5 124t-20.5 85q-14 37 -31 61q-35 47 -76 69.5t-96 22.5t-95 -24.5t-67.5 -57t-44 -67.5t-24.5 -55v-1022h112v-113h-335z" />
<glyph unicode="N" d="M63 0v113h113v1208h-113v113h224v-197q25 39 59.5 78t81.5 69.5t110.5 49t145.5 18.5q100 0 184 -29.5t142.5 -84t91.5 -131.5t33 -173q0 -137 -62.5 -243.5t-163.5 -198.5q-59 -55 -107 -116.5t-48 -147.5v-11q0 -109 56 -167t134 -58q41 0 72 13.5t52.5 35t31.5 47 t10 50.5q0 37 -34 75.5t-111 71.5l75 92q104 -41 143.5 -108.5t39.5 -132.5q0 -53 -22.5 -99.5t-60.5 -81.5t-88.5 -55t-107.5 -20q-31 0 -82 13t-100 52t-85 106.5t-36 176.5q0 63 16.5 112t43 90t61.5 76t69 70q80 76 134.5 162t54.5 202q0 143 -92 221t-244 78 q-102 0 -177 -43t-124 -111.5t-72.5 -157.5t-23.5 -181v-733h112v-113h-336z" />
<glyph unicode="O" horiz-adv-x="1263" d="M57 717q0 162 43 297t119 233.5t181.5 152.5t232.5 54q137 0 244.5 -63.5t180 -168t110.5 -236.5t38 -269q0 -160 -42 -295t-117.5 -233.5t-181 -153.5t-232.5 -55t-233.5 55t-182.5 153.5t-118 233.5t-42 295zM170 717q0 -137 34 -252t95 -198t146.5 -129t187.5 -46 q100 0 185 46t146.5 129t95.5 198t34 252t-34 251.5t-95.5 197.5t-146.5 129t-185 46q-102 0 -187.5 -46t-146.5 -129t-95 -197.5t-34 -251.5z" />
<glyph unicode="P" horiz-adv-x="1046" d="M68 0v115h114v1204h-114v115h338q88 0 173 -4.5t158.5 -22.5t133 -58t100.5 -112q25 -53 39 -114.5t14 -141.5q0 -104 -24.5 -188t-70.5 -143.5t-110.5 -91.5t-146.5 -32q-111 0 -171 51t-89 119l106 47q20 -41 58 -71.5t102 -30.5q104 0 167.5 90t63.5 250 q0 121 -37.5 189.5t-105.5 101.5t-160 40t-200 7h-109v-1204h115v-115h-344z" />
<glyph unicode="Q" horiz-adv-x="1337" d="M59 717q0 164 43 300t123 233.5t191.5 150.5t249.5 53q137 0 249.5 -53t192.5 -150.5t123 -233.5t43 -300q0 -166 -40 -298t-118 -226q29 -35 61.5 -57.5t77.5 -22.5v-113q-76 0 -127 31.5t-96 77.5q-74 -61 -168 -95t-198 -34q-137 0 -249 53t-192 150.5t-123 232.5 t-43 301zM172 717q0 -141 35 -257t99.5 -197t155.5 -126t204 -45q176 0 292 103l-45 63q-31 43 -64.5 85t-69.5 76t-73.5 56.5t-76.5 22.5v114q57 0 105 -20.5t89 -54t76 -75.5t68 -87l71 -99q123 164 123 441q0 141 -34.5 257t-99 196.5t-157 125.5t-204.5 45 q-113 0 -204 -45t-155.5 -125.5t-99.5 -196.5t-35 -257z" />
<glyph unicode="R" horiz-adv-x="1138" d="M68 0v115h114v1204h-114v115h436q141 0 239.5 -19.5t160 -59.5t89 -102.5t27.5 -150.5q0 -174 -119 -277.5t-338 -156.5q4 -59 17.5 -152.5t41 -182.5t73.5 -153.5t116 -64.5q35 0 63.5 17.5t49 45t32 61t11.5 68.5q0 27 -11.5 54.5t-36 50t-63.5 36t-96 13.5v114 q76 0 143.5 -18t108.5 -63q67 -77 67 -184q0 -66 -22.5 -121.5t-59 -97.5t-86 -66.5t-104.5 -24.5q-78 0 -136.5 51t-98.5 131t-64.5 174.5t-38.5 179.5t-20.5 149.5t-6.5 82.5q10 0 40 5t68 14.5t82 22.5t81 30q100 45 147 108.5t47 153.5q0 123 -95 170t-308 47h-209 v-1319h-227z" />
<glyph unicode="S" horiz-adv-x="923" d="M57 317q0 57 16.5 108.5t46.5 89.5t69.5 59.5t86.5 21.5q74 0 126.5 -48t52.5 -118q0 -66 -56 -147l-96 59q18 29 28.5 49.5t10.5 36.5q0 23 -20.5 38t-47.5 15q-49 0 -76.5 -49t-27.5 -113q0 -59 24.5 -102t64.5 -70.5t88 -41t95 -13.5q61 0 114.5 20.5t93.5 56.5 t63.5 84t23.5 105q0 39 -13 70t-42 58.5t-74 55t-108 64.5q-104 59 -181 110.5t-128.5 106t-76 115.5t-24.5 141q0 84 26.5 152.5t78 118t123 77t163.5 27.5t149.5 -25.5t94.5 -64.5q20 20 56 43t83 27v-125q-12 0 -35.5 -17.5t-47 -71t-42 -151.5t-18.5 -262l-115 41 q4 86 13.5 160.5t19.5 130.5q12 66 27 118q-27 37 -67 60.5t-116 23.5q-70 0 -122 -20.5t-87.5 -54t-54 -79.5t-18.5 -97q0 -61 23.5 -112.5t64.5 -94.5t95 -80t114 -70q86 -45 150.5 -84t109.5 -80t67.5 -91t22.5 -118q0 -82 -32 -151.5t-87 -120.5t-129 -79.5t-156 -28.5 q-66 0 -134 19t-124.5 61t-92.5 105.5t-36 151.5z" />
<glyph unicode="T" horiz-adv-x="976" d="M55 1333l19 101h811l30 -78q-4 -4 -57 -59.5t-130 -141.5t-167 -194.5t-166 -217t-126 -210t-50 -173.5q0 -57 23.5 -106t61.5 -85t88 -56.5t106 -20.5q55 0 108 16.5t96 50.5t70 85t27 121q0 96 -43 150t-94 54q-53 0 -80 -47t-27 -131h-115q0 135 58.5 214t163.5 79 q49 0 96 -24.5t82 -67.5q27 -31 50 -86t23 -141q0 -82 -30.5 -153t-86 -122t-132 -80.5t-166.5 -29.5q-78 0 -148.5 28.5t-124 79.5t-85 121t-31.5 149q0 66 42 168.5t121.5 229.5t193.5 271t257 294h-487q18 -39 29 -90t11 -109q0 -53 -18 -113.5t-65 -123.5l-91 73 q33 43 46.5 85t13.5 79q0 35 -9.5 70t-23.5 64.5t-33.5 50t-40.5 26.5z" />
<glyph unicode="U" d="M57 1200q0 55 24.5 101.5t62.5 80t86.5 53t95.5 19.5q37 0 91 -15.5t103 -53t84 -103t35 -166.5q0 -88 -27.5 -152.5t-70.5 -114.5t-91.5 -95t-91.5 -94.5t-70.5 -111t-27.5 -145.5q0 -152 90 -231.5t236 -79.5q109 0 185.5 43t125.5 112.5t71.5 159t22.5 181.5v733h-110 v113h336v-113h-113v-1208h113v-113h-226v184q-25 -35 -59.5 -71.5t-82.5 -66.5t-111.5 -48t-145.5 -18q-100 0 -182 29.5t-140.5 85t-91.5 133t-33 173.5q0 94 29 165t71 126.5t91 103.5t91 95t70.5 101.5t28.5 123.5q0 94 -52 159.5t-140 65.5q-41 0 -71 -14t-50 -35.5 t-30.5 -47t-10.5 -48.5q0 -41 34 -79t109 -66l-41 -107q-121 45 -169 117t-48 139z" />
<glyph unicode="V" horiz-adv-x="1193" d="M27 1319v115h342v-115h-97q43 -147 83 -276.5t79 -256.5t79 -259t85 -281l322 1073h-97v115h346v-115h-131l-395 -1319h-92l-395 1319h-129z" />
<glyph unicode="W" horiz-adv-x="1497" d="M43 1319v115h344v-115h-102l207 -1028l210 729h93l211 -735q51 256 102 514t104 520h-104v115h346v-115h-123q-66 -330 -133.5 -660.5t-132.5 -658.5h-98l-219 766q-27 -92 -54.5 -190.5t-56.5 -196.5t-56.5 -194.5t-52.5 -182.5h-98l-264 1317h-123z" />
<glyph unicode="X" horiz-adv-x="1193" d="M63 0v115h136q86 154 166.5 300t164.5 302q-84 154 -164.5 300t-166.5 302h-136v115h343v-115h-74q37 -66 68.5 -124t62.5 -115.5t63.5 -118t71.5 -127.5q37 66 68.5 124t62.5 115t63.5 117.5t69.5 128.5h-74v115h342v-115h-135l-331 -602q86 -154 166.5 -300.5 t164.5 -301.5h135v-115h-342v115h74q-37 66 -68.5 124t-62.5 115.5t-63.5 117.5t-69.5 128q-37 -66 -68.5 -124t-63.5 -115.5t-64.5 -118t-69.5 -127.5h74v-115h-343z" />
<glyph unicode="Y" horiz-adv-x="1071" d="M39 1200q0 61 21.5 108.5t54 79t70.5 48t73 16.5q68 0 116 -15.5t78.5 -55.5t45 -107.5t14.5 -171.5v-457l2 -9t10 -21.5t22.5 -23.5t37.5 -18l219 736h-92v112h338v-112h-125q-47 -156 -91.5 -303.5t-88.5 -294t-89 -294t-90 -302.5h92v-115h-340v115h127l107 352 q-57 12 -87 42t-46 60q-18 37 -21 76v457q0 137 -28.5 188t-110.5 51q-14 0 -32.5 -8t-35 -24.5t-27.5 -44t-11 -64.5q0 -49 39.5 -77.5t105.5 -28.5v-113q-117 0 -187.5 60.5t-70.5 158.5z" />
<glyph unicode="Z" horiz-adv-x="1185" d="M63 1335l19 99h948l33 -72l-424 -676q53 -27 98 -27t148 52l45 -105q-59 -31 -105.5 -46t-87.5 -15q-76 0 -157 45l-297 -475h655q-18 35 -29.5 82t-11.5 94q0 51 18.5 107.5t65.5 115.5l94 -61q-35 -47 -49 -87t-14 -75q0 -49 12 -88q12 -37 37.5 -65.5t58.5 -39.5 l-18 -98h-946l-35 68l358 579q-29 16 -59.5 30.5t-57.5 14.5q-23 0 -65 -37l-80 80q41 41 78 56.5t67 15.5q53 0 94.5 -20.5t84.5 -43.5l360 576h-655q16 -35 28.5 -81t12.5 -97t-19.5 -109.5t-66.5 -118.5l-90 72q35 45 47 84t12 74q0 68 -32 123t-75 69z" />
<glyph unicode="`" horiz-adv-x="552" d="M14 1681l49 91l472 -170l-50 -91z" />
<glyph unicode="a" horiz-adv-x="1296" d="M39 0v115h133q35 106 67.5 201.5t69.5 203.5q-53 41 -115.5 87t-109.5 85l59 94l203 -155l232 688h-224v115h584v-115h-203q29 -88 56.5 -170t53 -162t53.5 -163t56 -173l154 131l80 -82l-195 -168q35 -109 66 -208t67 -209h131v-115h-342v115h93q-16 47 -28.5 87 t-25 78.5t-26 80.5t-29.5 92l-240 -207l-256 200l-114 -331h92v-115h-342zM442 559q55 -41 104.5 -81t108.5 -83l205 172l-205 627q-55 -164 -105 -316.5t-108 -318.5z" />
<glyph unicode="b" horiz-adv-x="1142" d="M68 0v115h114v1204h-114v115h436q274 0 396 -92.5t122 -247.5q0 -213 -248 -340q66 -14 125.5 -40t106.5 -67q81 -79 81 -202q0 -91 -31.5 -157.5t-82.5 -115.5t-115.5 -83t-130 -53.5t-124 -27.5t-99.5 -8h-436zM295 115h209q49 0 128 14t154.5 51t131 100.5t55.5 159.5 q0 53 -26.5 91t-69.5 62.5t-98.5 38t-112 20.5t-109.5 8.5t-92 1.5l-4 102q33 8 106.5 29.5t149.5 60.5t133 98.5t57 141.5q0 106 -94 165.5t-309 59.5h-209v-1204z" />
<glyph unicode="c" horiz-adv-x="1230" d="M53 717q0 141 55.5 273t145.5 234.5t204.5 165t235.5 62.5q123 0 213 -33t148.5 -86t87 -121.5t28.5 -138.5q0 -78 -24.5 -141.5t-66.5 -109.5t-99 -71.5t-125 -25.5q-51 0 -100 20.5t-87 56.5t-61.5 85t-23.5 108q0 94 92 211l84 -78q-61 -76 -62 -131 q0 -68 47.5 -112.5t110.5 -44.5q37 0 73 14t64.5 43t46 73t17.5 103q0 49 -21.5 97.5t-65.5 85t-113 60t-163 23.5q-98 0 -192 -53t-168 -140t-120 -198.5t-46 -230.5q0 -135 37 -250t102.5 -198t155.5 -129t199 -46q82 0 153.5 32t124.5 86t85 127t32 157h114 q0 -106 -39.5 -199.5t-109.5 -163.5t-163 -110.5t-197 -40.5q-133 0 -244 54t-193 152.5t-127 233.5t-45 295z" />
<glyph unicode="d" horiz-adv-x="1204" d="M70 0v115h114v1204h-114v115h458q291 0 445 -162q88 -90 131 -229.5t43 -325.5q0 -160 -45 -291t-127 -226.5t-195.5 -147.5t-251.5 -52h-458zM299 115h229q113 0 206 43t160 122.5t102.5 190.5t35.5 246q0 307 -123 454.5t-381 147.5h-229v-1204z" />
<glyph unicode="e" horiz-adv-x="1062" d="M68 0v113h110v1210h-110v111h909l16 -97q-63 -23 -76.5 -76t-13.5 -110q0 -37 10.5 -82t34.5 -92l-100 -43q-29 55 -43 111.5t-14 107.5q0 90 30 168q2 2 2 6q-2 0 -3 -2t-3 -2h-526v-567h467v-111h-467v-532h306.5h157.5t58 1l8 1q-30 74 -30 160v6q0 51 14 107t43 112 l100 -43q-25 -47 -35 -92.5t-10 -81.5q0 -35 5.5 -66.5t15.5 -56.5q8 -14 22.5 -32.5t46.5 -31.5l-16 -96h-909zM815 1319q0 2 2 2t4 2q-2 -4 -6 -4z" />
<glyph unicode="f" horiz-adv-x="909" d="M45 0v115h113v727q0 199 44 319.5t107.5 185t135 85t128.5 20.5q164 0 248 -100q72 -84 72 -217q0 -59 -21.5 -110.5t-57.5 -90.5t-81 -61.5t-94 -22.5q-43 0 -82 15.5t-68.5 43t-46 64.5t-16.5 80q0 61 57 143l95 -59q-37 -57 -37 -82q0 -41 28.5 -65.5t69.5 -24.5 q27 0 52.5 14t46 36.5t31.5 53.5t11 66q0 25 -6 59.5t-27.5 67t-62.5 56t-111 23.5q-145 0 -223 -127t-78 -372v-205h308v-115h-308v-407h113v-115h-340z" />
<glyph unicode="g" horiz-adv-x="1286" d="M55 702q0 147 52.5 283.5t142.5 240t209 166t252 62.5q98 0 186 -29.5t154.5 -81t104.5 -118t38 -142.5q0 -143 -68.5 -226t-187.5 -83q-92 0 -154.5 61.5t-62.5 165.5q0 47 21.5 101.5t64.5 111.5l78 -75q-27 -35 -40.5 -70t-13.5 -63q0 -53 30 -87t77 -34 q70 0 108.5 52t38.5 146q0 53 -30.5 100.5t-81.5 83.5t-119 56t-143 20q-113 0 -212.5 -53t-173 -142t-116.5 -205t-43 -241q0 -131 30.5 -243.5t86 -194.5t133.5 -128t170 -46q119 0 193.5 48t116.5 117t57.5 142.5t19.5 122.5h-395v109h505v-137q0 -47 4.5 -111t18.5 -123 t43 -103t76 -51v-104q-106 0 -156.5 61.5t-71.5 155.5q-63 -113 -166.5 -175t-244.5 -62q-119 0 -216.5 54t-167 151.5t-108.5 229.5t-39 287z" />
<glyph unicode="h" horiz-adv-x="1236" d="M70 0v115h110v1204h-110v115h340v-115h-115v-678h645v678h-115v115h342v-115h-112v-1204h112v-115h-342v115h115v411h-645v-411h115v-115h-340z" />
<glyph unicode="i" horiz-adv-x="434" d="M47 0v115h113v1204h-113v115h342v-115h-115v-1204h115v-115h-342z" />
<glyph unicode="j" horiz-adv-x="608" d="M25 184q0 53 57 144l96 -62q-39 -59 -39 -84q0 -41 31 -65.5t70 -24.5q53 0 79.5 55.5t26.5 184.5v989h-115v113h340v-113h-112v-989q0 -184 -54.5 -268t-164.5 -84q-88 0 -151.5 56t-63.5 148z" />
<glyph unicode="k" horiz-adv-x="1114" d="M57 0v115h113v1194h-113v112h340v-112h-112v-1194h112v-115h-340zM326 604l32 78q18 47 46 112.5t58 133t57.5 130t47.5 103.5q45 92 84 148.5t74 88.5t65.5 43t59.5 11q98 0 157.5 -61.5t59.5 -149.5q0 -49 -23.5 -90t-60.5 -71.5t-83 -48t-91 -17.5v114q23 0 47.5 7.5 t46 21.5t35.5 34.5t14 47.5q0 47 -28.5 74.5t-61.5 27.5q-41 0 -81 -44t-81 -117.5t-83 -171t-85 -201.5q-23 -53 -39 -93t-38 -91l387 -508h207v-115h-263z" />
<glyph unicode="l" horiz-adv-x="901" d="M66 0v115h114v1204h-114v115h344v-115h-115v-1204h340q72 0 106.5 45t34.5 96q0 41 -21.5 71.5t-49.5 30.5q-33 0 -80 -65l-97 59q92 121 177 121q10 0 23.5 -2t23.5 -6q59 -20 97 -78.5t38 -130.5q0 -49 -16.5 -95t-48 -82t-79 -57.5t-108.5 -21.5h-569z" />
<glyph unicode="m" horiz-adv-x="1677" d="M68 227q0 80 57 146.5t158 107.5l41 -102q-78 -33 -112 -74t-34 -76q0 -23 9.5 -47t29 -44.5t48 -33t67.5 -12.5q25 0 54.5 11.5t54 37t42 69.5t17.5 112q0 63 -28 111t-69 90t-89 85t-89 96.5t-68.5 123t-27.5 165.5q0 205 98.5 316.5t280.5 111.5q57 0 112.5 -27.5 t100.5 -78.5t76.5 -123t42.5 -158q12 86 43.5 158t78 123t99.5 78.5t108 27.5q86 0 158 -27.5t122 -76.5t77.5 -119t27.5 -156q0 -106 -27.5 -182t-69.5 -133t-90 -102t-90 -90.5t-69.5 -95.5t-27.5 -117q0 -68 16 -112t42 -69.5t55.5 -37t54.5 -11.5q39 0 67.5 12.5t47 33 t27.5 45t9 46.5q0 35 -31.5 76t-113.5 74l43 102q41 -14 78.5 -37.5t67.5 -55.5t48.5 -72t18.5 -89q0 -53 -21.5 -97t-57.5 -78t-83 -52t-100 -18q-37 0 -85.5 14t-91.5 52t-72.5 102.5t-29.5 162.5q0 84 27.5 145.5t69.5 113t91.5 97.5t91.5 99t69.5 118.5t27.5 155.5 q0 123 -76 196t-201 73q-131 0 -202.5 -161t-71.5 -466v-684h-111v684q0 305 -72.5 466t-203.5 161q-133 0 -199.5 -85t-66.5 -239q0 -82 27.5 -139t67.5 -103.5t88 -87.5t88 -88t67.5 -106.5t27.5 -140.5q0 -102 -29.5 -168t-71.5 -104t-90 -53t-85 -15q-53 0 -101.5 18 t-84 52t-57 78t-21.5 97z" />
<glyph unicode="n" d="M63 0v113h113v1208h-113v113h224v-197q25 39 59.5 78t81.5 69.5t110.5 49t145.5 18.5q100 0 184 -29.5t142.5 -84t91.5 -131.5t33 -173q0 -137 -62.5 -243.5t-163.5 -198.5q-59 -55 -107 -116.5t-48 -147.5v-11q0 -109 56 -167t134 -58q41 0 72 13.5t52.5 35t31.5 47 t10 50.5q0 37 -34 75.5t-111 71.5l75 92q104 -41 143.5 -108.5t39.5 -132.5q0 -53 -22.5 -99.5t-60.5 -81.5t-88.5 -55t-107.5 -20q-31 0 -82 13t-100 52t-85 106.5t-36 176.5q0 63 16.5 112t43 90t61.5 76t69 70q80 76 134.5 162t54.5 202q0 143 -92 221t-244 78 q-102 0 -177 -43t-124 -111.5t-72.5 -157.5t-23.5 -181v-733h112v-113h-336z" />
<glyph unicode="o" horiz-adv-x="1263" d="M57 717q0 162 43 297t119 233.5t181.5 152.5t232.5 54q137 0 244.5 -63.5t180 -168t110.5 -236.5t38 -269q0 -160 -42 -295t-117.5 -233.5t-181 -153.5t-232.5 -55t-233.5 55t-182.5 153.5t-118 233.5t-42 295zM170 717q0 -137 34 -252t95 -198t146.5 -129t187.5 -46 q100 0 185 46t146.5 129t95.5 198t34 252t-34 251.5t-95.5 197.5t-146.5 129t-185 46q-102 0 -187.5 -46t-146.5 -129t-95 -197.5t-34 -251.5zM547 717q0 41 25.5 68.5t60.5 27.5t60.5 -27.5t25.5 -68.5t-25.5 -68.5t-60.5 -27.5t-60.5 27.5t-25.5 68.5z" />
<glyph unicode="p" horiz-adv-x="1046" d="M68 0v115h114v1204h-114v115h338q88 0 173 -4.5t158.5 -22.5t133 -58t100.5 -112q25 -53 39 -114.5t14 -141.5q0 -104 -24.5 -188t-70.5 -143.5t-110.5 -91.5t-146.5 -32q-111 0 -171 51t-89 119l106 47q20 -41 58 -71.5t102 -30.5q104 0 167.5 90t63.5 250 q0 121 -37.5 189.5t-105.5 101.5t-160 40t-200 7h-109v-1204h115v-115h-344z" />
<glyph unicode="q" horiz-adv-x="1337" d="M59 717q0 164 43 300t123 233.5t191.5 150.5t249.5 53q137 0 249.5 -53t192.5 -150.5t123 -233.5t43 -300q0 -166 -40 -298t-118 -226q29 -35 61.5 -57.5t77.5 -22.5v-113q-76 0 -127 31.5t-96 77.5q-74 -61 -168 -95t-198 -34q-137 0 -249 53t-192 150.5t-123 232.5 t-43 301zM172 717q0 -141 35 -257t99.5 -197t155.5 -126t204 -45q176 0 292 103l-45 63q-31 43 -64.5 85t-69.5 76t-73.5 56.5t-76.5 22.5v114q57 0 105 -20.5t89 -54t76 -75.5t68 -87l71 -99q123 164 123 441q0 141 -34.5 257t-99 196.5t-157 125.5t-204.5 45 q-113 0 -204 -45t-155.5 -125.5t-99.5 -196.5t-35 -257z" />
<glyph unicode="r" horiz-adv-x="1138" d="M68 0v115h114v1204h-114v115h436q141 0 239.5 -19.5t160 -59.5t89 -102.5t27.5 -150.5q0 -174 -119 -277.5t-338 -156.5q4 -59 17.5 -152.5t41 -182.5t73.5 -153.5t116 -64.5q35 0 63.5 17.5t49 45t32 61t11.5 68.5q0 27 -11.5 54.5t-36 50t-63.5 36t-96 13.5v114 q76 0 143.5 -18t108.5 -63q67 -77 67 -184q0 -66 -22.5 -121.5t-59 -97.5t-86 -66.5t-104.5 -24.5q-78 0 -136.5 51t-98.5 131t-64.5 174.5t-38.5 179.5t-20.5 149.5t-6.5 82.5q10 0 40 5t68 14.5t82 22.5t81 30q100 45 147 108.5t47 153.5q0 123 -95 170t-308 47h-209 v-1319h-227z" />
<glyph unicode="s" horiz-adv-x="923" d="M57 317q0 57 16.5 108.5t46.5 89.5t69.5 59.5t86.5 21.5q74 0 126.5 -48t52.5 -118q0 -66 -56 -147l-96 59q18 29 28.5 49.5t10.5 36.5q0 23 -20.5 38t-47.5 15q-49 0 -76.5 -49t-27.5 -113q0 -59 24.5 -102t64.5 -70.5t88 -41t95 -13.5q61 0 114.5 20.5t93.5 56.5 t63.5 84t23.5 105q0 39 -13 70t-42 58.5t-74 55t-108 64.5q-104 59 -181 110.5t-128.5 106t-76 115.5t-24.5 141q0 84 26.5 152.5t78 118t123 77t163.5 27.5t149.5 -25.5t94.5 -64.5q20 20 56 43t83 27v-125q-12 0 -35.5 -17.5t-47 -71t-42 -151.5t-18.5 -262l-115 41 q4 86 13.5 160.5t19.5 130.5q12 66 27 118q-27 37 -67 60.5t-116 23.5q-70 0 -122 -20.5t-87.5 -54t-54 -79.5t-18.5 -97q0 -61 23.5 -112.5t64.5 -94.5t95 -80t114 -70q86 -45 150.5 -84t109.5 -80t67.5 -91t22.5 -118q0 -82 -32 -151.5t-87 -120.5t-129 -79.5t-156 -28.5 q-66 0 -134 19t-124.5 61t-92.5 105.5t-36 151.5z" />
<glyph unicode="t" horiz-adv-x="976" d="M55 1333l19 101h811l30 -78q-4 -4 -57 -59.5t-130 -141.5t-167 -194.5t-166 -217t-126 -210t-50 -173.5q0 -57 23.5 -106t61.5 -85t88 -56.5t106 -20.5q55 0 108 16.5t96 50.5t70 85t27 121q0 96 -43 150t-94 54q-53 0 -80 -47t-27 -131h-115q0 135 58.5 214t163.5 79 q49 0 96 -24.5t82 -67.5q27 -31 50 -86t23 -141q0 -82 -30.5 -153t-86 -122t-132 -80.5t-166.5 -29.5q-78 0 -148.5 28.5t-124 79.5t-85 121t-31.5 149q0 66 42 168.5t121.5 229.5t193.5 271t257 294h-487q18 -39 29 -90t11 -109q0 -53 -18 -113.5t-65 -123.5l-91 73 q33 43 46.5 85t13.5 79q0 35 -9.5 70t-23.5 64.5t-33.5 50t-40.5 26.5z" />
<glyph unicode="u" d="M57 1200q0 55 24.5 101.5t62.5 80t86.5 53t95.5 19.5q37 0 91 -15.5t103 -53t84 -103t35 -166.5q0 -88 -27.5 -152.5t-70.5 -114.5t-91.5 -95t-91.5 -94.5t-70.5 -111t-27.5 -145.5q0 -152 90 -231.5t236 -79.5q109 0 185.5 43t125.5 112.5t71.5 159t22.5 181.5v733h-110 v113h336v-113h-113v-1208h113v-113h-226v184q-25 -35 -59.5 -71.5t-82.5 -66.5t-111.5 -48t-145.5 -18q-100 0 -182 29.5t-140.5 85t-91.5 133t-33 173.5q0 94 29 165t71 126.5t91 103.5t91 95t70.5 101.5t28.5 123.5q0 94 -52 159.5t-140 65.5q-41 0 -71 -14t-50 -35.5 t-30.5 -47t-10.5 -48.5q0 -41 34 -79t109 -66l-41 -107q-121 45 -169 117t-48 139z" />
<glyph unicode="v" horiz-adv-x="1193" d="M27 1319v115h342v-115h-97q43 -147 83 -276.5t79 -256.5t79 -259t85 -281l322 1073h-97v115h346v-115h-131l-395 -1319h-92l-395 1319h-129z" />
<glyph unicode="w" horiz-adv-x="1497" d="M43 1319v115h344v-115h-102l207 -1028l210 729h93l211 -735q51 256 102 514t104 520h-104v115h346v-115h-123q-66 -330 -133.5 -660.5t-132.5 -658.5h-98l-219 766q-27 -92 -54.5 -190.5t-56.5 -196.5t-56.5 -194.5t-52.5 -182.5h-98l-264 1317h-123z" />
<glyph unicode="x" horiz-adv-x="1193" d="M63 0v115h136q86 154 166.5 300t164.5 302q-84 154 -164.5 300t-166.5 302h-136v115h343v-115h-74q37 -66 68.5 -124t62.5 -115.5t63.5 -118t71.5 -127.5q37 66 68.5 124t62.5 115t63.5 117.5t69.5 128.5h-74v115h342v-115h-135l-331 -602q86 -154 166.5 -300.5 t164.5 -301.5h135v-115h-342v115h74q-37 66 -68.5 124t-62.5 115.5t-63.5 117.5t-69.5 128q-37 -66 -68.5 -124t-63.5 -115.5t-64.5 -118t-69.5 -127.5h74v-115h-343z" />
<glyph unicode="y" horiz-adv-x="1071" d="M39 1200q0 61 21.5 108.5t54 79t70.5 48t73 16.5q68 0 116 -15.5t78.5 -55.5t45 -107.5t14.5 -171.5v-457l2 -9t10 -21.5t22.5 -23.5t37.5 -18l219 736h-92v112h338v-112h-125q-47 -156 -91.5 -303.5t-88.5 -294t-89 -294t-90 -302.5h92v-115h-340v115h127l107 352 q-57 12 -87 42t-46 60q-18 37 -21 76v457q0 137 -28.5 188t-110.5 51q-14 0 -32.5 -8t-35 -24.5t-27.5 -44t-11 -64.5q0 -49 39.5 -77.5t105.5 -28.5v-113q-117 0 -187.5 60.5t-70.5 158.5z" />
<glyph unicode="z" horiz-adv-x="1185" d="M63 1335l19 99h948l33 -72l-424 -676q53 -27 98 -27t148 52l45 -105q-59 -31 -105.5 -46t-87.5 -15q-76 0 -157 45l-297 -475h655q-18 35 -29.5 82t-11.5 94q0 51 18.5 107.5t65.5 115.5l94 -61q-35 -47 -49 -87t-14 -75q0 -49 12 -88q12 -37 37.5 -65.5t58.5 -39.5 l-18 -98h-946l-35 68l358 579q-29 16 -59.5 30.5t-57.5 14.5q-23 0 -65 -37l-80 80q41 41 78 56.5t67 15.5q53 0 94.5 -20.5t84.5 -43.5l360 576h-655q16 -35 28.5 -81t12.5 -97t-19.5 -109.5t-66.5 -118.5l-90 72q35 45 47 84t12 74q0 68 -32 123t-75 69z" />
<glyph unicode="&#xa1;" horiz-adv-x="239" d="M53 1167v158h140v-158h-140zM66 -94v1093h112v-1093h-112z" />
<glyph unicode="&#xa8;" horiz-adv-x="507" d="M76 1520v125h112v-125h-112zM324 1520v125h110v-125h-110z" />
<glyph unicode="&#xad;" horiz-adv-x="600" d="M76 709v112h450v-112h-450z" />
<glyph unicode="&#xb4;" horiz-adv-x="552" d="M18 1602l471 170l50 -91l-471 -170z" />
<glyph unicode="&#xb8;" horiz-adv-x="362" d="M45 -268q8 -2 23 -2q31 0 58.5 9t50 22.5t35.5 27.5t13 25q0 33 -34.5 39t-81.5 8v200h106v-139q43 -8 82 -33.5t39 -74.5q0 -70 -121 -131q-18 -10 -40.5 -17.5t-43 -12.5t-34 -8t-15.5 -3z" />
<glyph unicode="&#xbf;" horiz-adv-x="768" d="M23 324q0 100 21.5 170.5t53 120t69.5 81t73 56.5q8 6 17 12t15 12q39 31 59.5 58.5t30.5 64.5q10 31 15 92q2 29 2 46.5v27.5v27h110v-25q0 -23 -2 -53.5t-6 -62t-10 -63.5t-16 -57q-23 -53 -58 -89.5t-92 -75.5q-29 -20 -59.5 -45t-55 -64t-41 -95t-16.5 -140 q0 -166 66.5 -240t185.5 -74q82 0 132 27.5t77 67.5t35 81t8 70q0 70 -36 115t-95 45q-41 0 -59.5 -20.5t-18.5 -55.5q0 -23 13.5 -50.5t47.5 -62.5l-77 -80q-96 98 -97 193q0 78 48.5 133t142.5 55q106 0 174 -75.5t68 -196.5q0 -39 -11.5 -99.5t-48.5 -117.5t-107.5 -98 t-189.5 -41q-94 0 -169 29.5t-124 101.5q-76 109 -75 295zM379 1210v109h110v-109h-110z" />
<glyph unicode="&#xc0;" horiz-adv-x="1296" d="M39 0v115h133q35 106 67.5 201.5t69.5 203.5q-53 41 -115.5 87t-109.5 85l59 94l203 -155l232 688h-224v115h584v-115h-203q29 -88 56.5 -170t53 -162t53.5 -163t56 -173l154 131l80 -82l-195 -168q35 -109 66 -208t67 -209h131v-115h-342v115h93q-16 47 -28.5 87 t-25 78.5t-26 80.5t-29.5 92l-240 -207l-256 200l-114 -331h92v-115h-342zM387 1681l49 91l472 -170l-50 -91zM442 559q55 -41 104.5 -81t108.5 -83l205 172l-205 627q-55 -164 -105 -316.5t-108 -318.5z" />
<glyph unicode="&#xc1;" horiz-adv-x="1296" d="M39 0v115h133q35 106 67.5 201.5t69.5 203.5q-53 41 -115.5 87t-109.5 85l59 94l203 -155l232 688h-224v115h584v-115h-203q29 -88 56.5 -170t53 -162t53.5 -163t56 -173l154 131l80 -82l-195 -168q35 -109 66 -208t67 -209h131v-115h-342v115h93q-16 47 -28.5 87 t-25 78.5t-26 80.5t-29.5 92l-240 -207l-256 200l-114 -331h92v-115h-342zM387 1602l471 170l50 -91l-471 -170zM442 559q55 -41 104.5 -81t108.5 -83l205 172l-205 627q-55 -164 -105 -316.5t-108 -318.5z" />
<glyph unicode="&#xc2;" horiz-adv-x="1296" d="M39 0v115h133q35 106 67.5 201.5t69.5 203.5q-53 41 -115.5 87t-109.5 85l59 94l203 -155l232 688h-224v115h584v-115h-203q29 -88 56.5 -170t53 -162t53.5 -163t56 -173l154 131l80 -82l-195 -168q35 -109 66 -208t67 -209h131v-115h-342v115h93q-16 47 -28.5 87 t-25 78.5t-26 80.5t-29.5 92l-240 -207l-256 200l-114 -331h92v-115h-342zM391 1595l256 152l256 -152l-49 -90l-207 123l-207 -123zM442 559q55 -41 104.5 -81t108.5 -83l205 172l-205 627q-55 -164 -105 -316.5t-108 -318.5z" />
<glyph unicode="&#xc3;" horiz-adv-x="1296" d="M39 0v115h133q35 106 67.5 201.5t69.5 203.5q-53 41 -115.5 87t-109.5 85l59 94l203 -155l232 688h-224v115h584v-115h-203q29 -88 56.5 -170t53 -162t53.5 -163t56 -173l154 131l80 -82l-195 -168q35 -109 66 -208t67 -209h131v-115h-342v115h93q-16 47 -28.5 87 t-25 78.5t-26 80.5t-29.5 92l-240 -207l-256 200l-114 -331h92v-115h-342zM346 1559q6 12 25.5 42.5t47.5 61.5t62.5 54.5t75.5 23.5q49 0 80 -23.5t59 -54.5q14 -14 28.5 -25.5t31.5 -11.5q18 0 36.5 17.5t34.5 39.5q18 25 35 60l86 -37q0 -4 -13 -34t-39 -63.5t-61.5 -61 t-78.5 -27.5q-49 0 -82 23.5t-60 49.5q-16 16 -29.5 27.5t-27.5 11.5q-18 0 -37.5 -17.5t-35 -39t-25.5 -40.5t-12 -22zM442 559q55 -41 104.5 -81t108.5 -83l205 172l-205 627q-55 -164 -105 -316.5t-108 -318.5z" />
<glyph unicode="&#xc4;" horiz-adv-x="1296" d="M39 0v115h133q35 106 67.5 201.5t69.5 203.5q-53 41 -115.5 87t-109.5 85l59 94l203 -155l232 688h-224v115h584v-115h-203q29 -88 56.5 -170t53 -162t53.5 -163t56 -173l154 131l80 -82l-195 -168q35 -109 66 -208t67 -209h131v-115h-342v115h93q-16 47 -28.5 87 t-25 78.5t-26 80.5t-29.5 92l-240 -207l-256 200l-114 -331h92v-115h-342zM442 559q55 -41 104.5 -81t108.5 -83l205 172l-205 627q-55 -164 -105 -316.5t-108 -318.5zM469 1520v125h112v-125h-112zM717 1520v125h110v-125h-110z" />
<glyph unicode="&#xc7;" horiz-adv-x="1230" d="M53 717q0 141 55.5 273t145.5 234.5t204.5 165t235.5 62.5q123 0 213 -33t148.5 -86t87 -121.5t28.5 -138.5q0 -78 -24.5 -141.5t-66.5 -109.5t-99 -71.5t-125 -25.5q-51 0 -100 20.5t-87 56.5t-61.5 85t-23.5 108q0 94 92 211l84 -78q-61 -76 -62 -131 q0 -68 47.5 -112.5t110.5 -44.5q37 0 73 14t64.5 43t46 73t17.5 103q0 49 -21.5 97.5t-65.5 85t-113 60t-163 23.5q-98 0 -192 -53t-168 -140t-120 -198.5t-46 -230.5q0 -135 37 -250t102.5 -198t155.5 -129t199 -46q82 0 153.5 32t124.5 86t85 127t32 157h114 q0 -106 -39.5 -199.5t-109.5 -163.5t-163 -110.5t-197 -40.5q-133 0 -244 54t-193 152.5t-127 233.5t-45 295zM469 -268q8 -2 23 -2q31 0 58.5 9t50 22.5t35.5 27.5t13 25q0 33 -34.5 39t-81.5 8v200h106v-139q43 -8 82 -33.5t39 -74.5q0 -70 -121 -131q-18 -10 -40.5 -17.5 t-43 -12.5t-34 -8t-15.5 -3z" />
<glyph unicode="&#xc8;" horiz-adv-x="1302" d="M57 717q0 147 47.5 280t126 234.5t182 161t218.5 59.5q143 0 240.5 -42t154.5 -110q29 63 82 98.5t145 35.5v-113q-80 0 -111.5 -57.5t-31.5 -190.5q0 -78 -27.5 -141.5t-74.5 -109.5t-112 -71.5t-140 -25.5v115q102 0 170.5 56t68.5 177q0 49 -21.5 97.5t-66.5 85 t-113.5 60t-162.5 23.5q-80 0 -155 -38.5t-135 -106.5t-102 -159t-57 -195h424v-115h-434v-8q0 -135 37 -250t102.5 -198t155.5 -129t197 -46q82 0 154.5 32t125.5 86t85 127t32 157h113q0 -106 -41 -200.5t-110 -164.5t-162 -109.5t-197 -39.5q-133 0 -244 54t-192 152.5 t-126 233.5t-45 295zM391 1681l49 91l472 -170l-50 -91z" />
<glyph unicode="&#xc9;" horiz-adv-x="1302" d="M57 717q0 147 47.5 280t126 234.5t182 161t218.5 59.5q143 0 240.5 -42t154.5 -110q29 63 82 98.5t145 35.5v-113q-80 0 -111.5 -57.5t-31.5 -190.5q0 -78 -27.5 -141.5t-74.5 -109.5t-112 -71.5t-140 -25.5v115q102 0 170.5 56t68.5 177q0 49 -21.5 97.5t-66.5 85 t-113.5 60t-162.5 23.5q-80 0 -155 -38.5t-135 -106.5t-102 -159t-57 -195h424v-115h-434v-8q0 -135 37 -250t102.5 -198t155.5 -129t197 -46q82 0 154.5 32t125.5 86t85 127t32 157h113q0 -106 -41 -200.5t-110 -164.5t-162 -109.5t-197 -39.5q-133 0 -244 54t-192 152.5 t-126 233.5t-45 295zM391 1602l471 170l50 -91l-471 -170z" />
<glyph unicode="&#xca;" horiz-adv-x="1302" d="M57 717q0 147 47.5 280t126 234.5t182 161t218.5 59.5q143 0 240.5 -42t154.5 -110q29 63 82 98.5t145 35.5v-113q-80 0 -111.5 -57.5t-31.5 -190.5q0 -78 -27.5 -141.5t-74.5 -109.5t-112 -71.5t-140 -25.5v115q102 0 170.5 56t68.5 177q0 49 -21.5 97.5t-66.5 85 t-113.5 60t-162.5 23.5q-80 0 -155 -38.5t-135 -106.5t-102 -159t-57 -195h424v-115h-434v-8q0 -135 37 -250t102.5 -198t155.5 -129t197 -46q82 0 154.5 32t125.5 86t85 127t32 157h113q0 -106 -41 -200.5t-110 -164.5t-162 -109.5t-197 -39.5q-133 0 -244 54t-192 152.5 t-126 233.5t-45 295zM395 1595l256 152l256 -152l-49 -90l-207 123l-207 -123z" />
<glyph unicode="&#xcb;" horiz-adv-x="1302" d="M57 717q0 147 47.5 280t126 234.5t182 161t218.5 59.5q143 0 240.5 -42t154.5 -110q29 63 82 98.5t145 35.5v-113q-80 0 -111.5 -57.5t-31.5 -190.5q0 -78 -27.5 -141.5t-74.5 -109.5t-112 -71.5t-140 -25.5v115q102 0 170.5 56t68.5 177q0 49 -21.5 97.5t-66.5 85 t-113.5 60t-162.5 23.5q-80 0 -155 -38.5t-135 -106.5t-102 -159t-57 -195h424v-115h-434v-8q0 -135 37 -250t102.5 -198t155.5 -129t197 -46q82 0 154.5 32t125.5 86t85 127t32 157h113q0 -106 -41 -200.5t-110 -164.5t-162 -109.5t-197 -39.5q-133 0 -244 54t-192 152.5 t-126 233.5t-45 295zM471 1520v125h112v-125h-112zM719 1520v125h110v-125h-110z" />
<glyph unicode="&#xcc;" horiz-adv-x="434" d="M-41 1681l49 91l472 -170l-50 -91zM47 0v115h113v1204h-113v115h342v-115h-115v-1204h115v-115h-342z" />
<glyph unicode="&#xcd;" horiz-adv-x="434" d="M-41 1602l471 170l50 -91l-471 -170zM47 0v115h113v1204h-113v115h342v-115h-115v-1204h115v-115h-342z" />
<glyph unicode="&#xce;" horiz-adv-x="434" d="M-37 1595l256 152l256 -152l-49 -90l-207 123l-207 -123zM47 0v115h113v1204h-113v115h342v-115h-115v-1204h115v-115h-342z" />
<glyph unicode="&#xcf;" horiz-adv-x="434" d="M41 1520v125h112v-125h-112zM47 0v115h113v1204h-113v115h342v-115h-115v-1204h115v-115h-342zM289 1520v125h110v-125h-110z" />
<glyph unicode="&#xd1;" d="M63 0v113h113v1208h-113v113h224v-197q25 39 59.5 78t81.5 69.5t110.5 49t145.5 18.5q100 0 184 -29.5t142.5 -84t91.5 -131.5t33 -173q0 -137 -62.5 -243.5t-163.5 -198.5q-59 -55 -107 -116.5t-48 -147.5v-11q0 -109 56 -167t134 -58q41 0 72 13.5t52.5 35t31.5 47 t10 50.5q0 37 -34 75.5t-111 71.5l75 92q104 -41 143.5 -108.5t39.5 -132.5q0 -53 -22.5 -99.5t-60.5 -81.5t-88.5 -55t-107.5 -20q-31 0 -82 13t-100 52t-85 106.5t-36 176.5q0 63 16.5 112t43 90t61.5 76t69 70q80 76 134.5 162t54.5 202q0 143 -92 221t-244 78 q-102 0 -177 -43t-124 -111.5t-72.5 -157.5t-23.5 -181v-733h112v-113h-336zM338 1559q6 12 25.5 42.5t47.5 61.5t62.5 54.5t75.5 23.5q49 0 80 -23.5t59 -54.5q14 -14 28.5 -25.5t31.5 -11.5q18 0 36.5 17.5t34.5 39.5q18 25 35 60l86 -37q0 -4 -13 -34t-39 -63.5 t-61.5 -61t-78.5 -27.5q-49 0 -82 23.5t-60 49.5q-16 16 -29.5 27.5t-27.5 11.5q-18 0 -37.5 -17.5t-35 -39t-25.5 -40.5t-12 -22z" />
<glyph unicode="&#xd2;" horiz-adv-x="1263" d="M57 717q0 162 43 297t119 233.5t181.5 152.5t232.5 54q137 0 244.5 -63.5t180 -168t110.5 -236.5t38 -269q0 -160 -42 -295t-117.5 -233.5t-181 -153.5t-232.5 -55t-233.5 55t-182.5 153.5t-118 233.5t-42 295zM170 717q0 -137 34 -252t95 -198t146.5 -129t187.5 -46 q100 0 185 46t146.5 129t95.5 198t34 252t-34 251.5t-95.5 197.5t-146.5 129t-185 46q-102 0 -187.5 -46t-146.5 -129t-95 -197.5t-34 -251.5zM370 1681l49 91l472 -170l-50 -91z" />
<glyph unicode="&#xd3;" horiz-adv-x="1263" d="M57 717q0 162 43 297t119 233.5t181.5 152.5t232.5 54q137 0 244.5 -63.5t180 -168t110.5 -236.5t38 -269q0 -160 -42 -295t-117.5 -233.5t-181 -153.5t-232.5 -55t-233.5 55t-182.5 153.5t-118 233.5t-42 295zM170 717q0 -137 34 -252t95 -198t146.5 -129t187.5 -46 q100 0 185 46t146.5 129t95.5 198t34 252t-34 251.5t-95.5 197.5t-146.5 129t-185 46q-102 0 -187.5 -46t-146.5 -129t-95 -197.5t-34 -251.5zM370 1602l471 170l50 -91l-471 -170z" />
<glyph unicode="&#xd4;" horiz-adv-x="1263" d="M57 717q0 162 43 297t119 233.5t181.5 152.5t232.5 54q137 0 244.5 -63.5t180 -168t110.5 -236.5t38 -269q0 -160 -42 -295t-117.5 -233.5t-181 -153.5t-232.5 -55t-233.5 55t-182.5 153.5t-118 233.5t-42 295zM170 717q0 -137 34 -252t95 -198t146.5 -129t187.5 -46 q100 0 185 46t146.5 129t95.5 198t34 252t-34 251.5t-95.5 197.5t-146.5 129t-185 46q-102 0 -187.5 -46t-146.5 -129t-95 -197.5t-34 -251.5zM375 1595l256 152l256 -152l-49 -90l-207 123l-207 -123z" />
<glyph unicode="&#xd5;" horiz-adv-x="1263" d="M57 717q0 162 43 297t119 233.5t181.5 152.5t232.5 54q137 0 244.5 -63.5t180 -168t110.5 -236.5t38 -269q0 -160 -42 -295t-117.5 -233.5t-181 -153.5t-232.5 -55t-233.5 55t-182.5 153.5t-118 233.5t-42 295zM170 717q0 -137 34 -252t95 -198t146.5 -129t187.5 -46 q100 0 185 46t146.5 129t95.5 198t34 252t-34 251.5t-95.5 197.5t-146.5 129t-185 46q-102 0 -187.5 -46t-146.5 -129t-95 -197.5t-34 -251.5zM330 1559q6 12 25.5 42.5t47.5 61.5t62.5 54.5t75.5 23.5q49 0 80 -23.5t59 -54.5q14 -14 28.5 -25.5t31.5 -11.5q18 0 36.5 17.5 t34.5 39.5q18 25 35 60l86 -37q0 -4 -13 -34t-39 -63.5t-61.5 -61t-78.5 -27.5q-49 0 -82 23.5t-60 49.5q-16 16 -29.5 27.5t-27.5 11.5q-18 0 -37.5 -17.5t-35 -39t-25.5 -40.5t-12 -22z" />
<glyph unicode="&#xd6;" horiz-adv-x="1263" d="M57 717q0 162 43 297t119 233.5t181.5 152.5t232.5 54q137 0 244.5 -63.5t180 -168t110.5 -236.5t38 -269q0 -160 -42 -295t-117.5 -233.5t-181 -153.5t-232.5 -55t-233.5 55t-182.5 153.5t-118 233.5t-42 295zM170 717q0 -137 34 -252t95 -198t146.5 -129t187.5 -46 q100 0 185 46t146.5 129t95.5 198t34 252t-34 251.5t-95.5 197.5t-146.5 129t-185 46q-102 0 -187.5 -46t-146.5 -129t-95 -197.5t-34 -251.5zM453 1520v125h112v-125h-112zM701 1520v125h110v-125h-110z" />
<glyph unicode="&#xd9;" d="M57 1200q0 55 24.5 101.5t62.5 80t86.5 53t95.5 19.5q37 0 91 -15.5t103 -53t84 -103t35 -166.5q0 -88 -27.5 -152.5t-70.5 -114.5t-91.5 -95t-91.5 -94.5t-70.5 -111t-27.5 -145.5q0 -152 90 -231.5t236 -79.5q109 0 185.5 43t125.5 112.5t71.5 159t22.5 181.5v733h-110 v113h336v-113h-113v-1208h113v-113h-226v184q-25 -35 -59.5 -71.5t-82.5 -66.5t-111.5 -48t-145.5 -18q-100 0 -182 29.5t-140.5 85t-91.5 133t-33 173.5q0 94 29 165t71 126.5t91 103.5t91 95t70.5 101.5t28.5 123.5q0 94 -52 159.5t-140 65.5q-41 0 -71 -14t-50 -35.5 t-30.5 -47t-10.5 -48.5q0 -41 34 -79t109 -66l-41 -107q-121 45 -169 117t-48 139zM379 1681l49 91l472 -170l-50 -91z" />
<glyph unicode="&#xda;" d="M57 1200q0 55 24.5 101.5t62.5 80t86.5 53t95.5 19.5q37 0 91 -15.5t103 -53t84 -103t35 -166.5q0 -88 -27.5 -152.5t-70.5 -114.5t-91.5 -95t-91.5 -94.5t-70.5 -111t-27.5 -145.5q0 -152 90 -231.5t236 -79.5q109 0 185.5 43t125.5 112.5t71.5 159t22.5 181.5v733h-110 v113h336v-113h-113v-1208h113v-113h-226v184q-25 -35 -59.5 -71.5t-82.5 -66.5t-111.5 -48t-145.5 -18q-100 0 -182 29.5t-140.5 85t-91.5 133t-33 173.5q0 94 29 165t71 126.5t91 103.5t91 95t70.5 101.5t28.5 123.5q0 94 -52 159.5t-140 65.5q-41 0 -71 -14t-50 -35.5 t-30.5 -47t-10.5 -48.5q0 -41 34 -79t109 -66l-41 -107q-121 45 -169 117t-48 139zM378 1602l471 170l50 -91l-471 -170z" />
<glyph unicode="&#xdb;" d="M57 1200q0 55 24.5 101.5t62.5 80t86.5 53t95.5 19.5q37 0 91 -15.5t103 -53t84 -103t35 -166.5q0 -88 -27.5 -152.5t-70.5 -114.5t-91.5 -95t-91.5 -94.5t-70.5 -111t-27.5 -145.5q0 -152 90 -231.5t236 -79.5q109 0 185.5 43t125.5 112.5t71.5 159t22.5 181.5v733h-110 v113h336v-113h-113v-1208h113v-113h-226v184q-25 -35 -59.5 -71.5t-82.5 -66.5t-111.5 -48t-145.5 -18q-100 0 -182 29.5t-140.5 85t-91.5 133t-33 173.5q0 94 29 165t71 126.5t91 103.5t91 95t70.5 101.5t28.5 123.5q0 94 -52 159.5t-140 65.5q-41 0 -71 -14t-50 -35.5 t-30.5 -47t-10.5 -48.5q0 -41 34 -79t109 -66l-41 -107q-121 45 -169 117t-48 139zM383 1595l256 152l256 -152l-49 -90l-207 123l-207 -123z" />
<glyph unicode="&#xdc;" d="M57 1200q0 55 24.5 101.5t62.5 80t86.5 53t95.5 19.5q37 0 91 -15.5t103 -53t84 -103t35 -166.5q0 -88 -27.5 -152.5t-70.5 -114.5t-91.5 -95t-91.5 -94.5t-70.5 -111t-27.5 -145.5q0 -152 90 -231.5t236 -79.5q109 0 185.5 43t125.5 112.5t71.5 159t22.5 181.5v733h-110 v113h336v-113h-113v-1208h113v-113h-226v184q-25 -35 -59.5 -71.5t-82.5 -66.5t-111.5 -48t-145.5 -18q-100 0 -182 29.5t-140.5 85t-91.5 133t-33 173.5q0 94 29 165t71 126.5t91 103.5t91 95t70.5 101.5t28.5 123.5q0 94 -52 159.5t-140 65.5q-41 0 -71 -14t-50 -35.5 t-30.5 -47t-10.5 -48.5q0 -41 34 -79t109 -66l-41 -107q-121 45 -169 117t-48 139zM461 1520v125h112v-125h-112zM709 1520v125h110v-125h-110z" />
<glyph unicode="&#xe0;" horiz-adv-x="1296" d="M39 0v115h133q35 106 67.5 201.5t69.5 203.5q-53 41 -115.5 87t-109.5 85l59 94l203 -155l232 688h-224v115h584v-115h-203q29 -88 56.5 -170t53 -162t53.5 -163t56 -173l154 131l80 -82l-195 -168q35 -109 66 -208t67 -209h131v-115h-342v115h93q-16 47 -28.5 87 t-25 78.5t-26 80.5t-29.5 92l-240 -207l-256 200l-114 -331h92v-115h-342zM387 1681l49 91l472 -170l-50 -91zM442 559q55 -41 104.5 -81t108.5 -83l205 172l-205 627q-55 -164 -105 -316.5t-108 -318.5z" />
<glyph unicode="&#xe1;" horiz-adv-x="1296" d="M39 0v115h133q35 106 67.5 201.5t69.5 203.5q-53 41 -115.5 87t-109.5 85l59 94l203 -155l232 688h-224v115h584v-115h-203q29 -88 56.5 -170t53 -162t53.5 -163t56 -173l154 131l80 -82l-195 -168q35 -109 66 -208t67 -209h131v-115h-342v115h93q-16 47 -28.5 87 t-25 78.5t-26 80.5t-29.5 92l-240 -207l-256 200l-114 -331h92v-115h-342zM387 1602l471 170l50 -91l-471 -170zM442 559q55 -41 104.5 -81t108.5 -83l205 172l-205 627q-55 -164 -105 -316.5t-108 -318.5z" />
<glyph unicode="&#xe2;" horiz-adv-x="1296" d="M39 0v115h133q35 106 67.5 201.5t69.5 203.5q-53 41 -115.5 87t-109.5 85l59 94l203 -155l232 688h-224v115h584v-115h-203q29 -88 56.5 -170t53 -162t53.5 -163t56 -173l154 131l80 -82l-195 -168q35 -109 66 -208t67 -209h131v-115h-342v115h93q-16 47 -28.5 87 t-25 78.5t-26 80.5t-29.5 92l-240 -207l-256 200l-114 -331h92v-115h-342zM391 1595l256 152l256 -152l-49 -90l-207 123l-207 -123zM442 559q55 -41 104.5 -81t108.5 -83l205 172l-205 627q-55 -164 -105 -316.5t-108 -318.5z" />
<glyph unicode="&#xe3;" horiz-adv-x="1296" d="M39 0v115h133q35 106 67.5 201.5t69.5 203.5q-53 41 -115.5 87t-109.5 85l59 94l203 -155l232 688h-224v115h584v-115h-203q29 -88 56.5 -170t53 -162t53.5 -163t56 -173l154 131l80 -82l-195 -168q35 -109 66 -208t67 -209h131v-115h-342v115h93q-16 47 -28.5 87 t-25 78.5t-26 80.5t-29.5 92l-240 -207l-256 200l-114 -331h92v-115h-342zM346 1559q6 12 25.5 42.5t47.5 61.5t62.5 54.5t75.5 23.5q49 0 80 -23.5t59 -54.5q14 -14 28.5 -25.5t31.5 -11.5q18 0 36.5 17.5t34.5 39.5q18 25 35 60l86 -37q0 -4 -13 -34t-39 -63.5t-61.5 -61 t-78.5 -27.5q-49 0 -82 23.5t-60 49.5q-16 16 -29.5 27.5t-27.5 11.5q-18 0 -37.5 -17.5t-35 -39t-25.5 -40.5t-12 -22zM442 559q55 -41 104.5 -81t108.5 -83l205 172l-205 627q-55 -164 -105 -316.5t-108 -318.5z" />
<glyph unicode="&#xe4;" horiz-adv-x="1296" d="M39 0v115h133q35 106 67.5 201.5t69.5 203.5q-53 41 -115.5 87t-109.5 85l59 94l203 -155l232 688h-224v115h584v-115h-203q29 -88 56.5 -170t53 -162t53.5 -163t56 -173l154 131l80 -82l-195 -168q35 -109 66 -208t67 -209h131v-115h-342v115h93q-16 47 -28.5 87 t-25 78.5t-26 80.5t-29.5 92l-240 -207l-256 200l-114 -331h92v-115h-342zM442 559q55 -41 104.5 -81t108.5 -83l205 172l-205 627q-55 -164 -105 -316.5t-108 -318.5zM469 1520v125h112v-125h-112zM717 1520v125h110v-125h-110z" />
<glyph unicode="&#xe7;" horiz-adv-x="1230" d="M53 717q0 141 55.5 273t145.5 234.5t204.5 165t235.5 62.5q123 0 213 -33t148.5 -86t87 -121.5t28.5 -138.5q0 -78 -24.5 -141.5t-66.5 -109.5t-99 -71.5t-125 -25.5q-51 0 -100 20.5t-87 56.5t-61.5 85t-23.5 108q0 94 92 211l84 -78q-61 -76 -62 -131 q0 -68 47.5 -112.5t110.5 -44.5q37 0 73 14t64.5 43t46 73t17.5 103q0 49 -21.5 97.5t-65.5 85t-113 60t-163 23.5q-98 0 -192 -53t-168 -140t-120 -198.5t-46 -230.5q0 -135 37 -250t102.5 -198t155.5 -129t199 -46q82 0 153.5 32t124.5 86t85 127t32 157h114 q0 -106 -39.5 -199.5t-109.5 -163.5t-163 -110.5t-197 -40.5q-133 0 -244 54t-193 152.5t-127 233.5t-45 295zM469 -268q8 -2 23 -2q31 0 58.5 9t50 22.5t35.5 27.5t13 25q0 33 -34.5 39t-82.5 8v200h107v-139q43 -8 82 -33.5t39 -74.5q0 -70 -121 -131q-18 -10 -41 -17.5 t-43 -12.5t-33.5 -8t-15.5 -3z" />
<glyph unicode="&#xe8;" horiz-adv-x="1062" d="M68 0v113h110v1210h-110v111h909l16 -97q-63 -23 -76.5 -76t-13.5 -110q0 -37 10.5 -82t34.5 -92l-100 -43q-29 55 -43 111.5t-14 107.5q0 90 30 168q2 2 2 6q-2 0 -3 -2t-3 -2h-526v-567h467v-111h-467v-532h306.5h157.5t58 1l8 1q-31 76 -30 166q0 51 14 107t43 112 l100 -43q-25 -47 -35 -92.5t-10 -81.5q0 -35 5.5 -66.5t15.5 -56.5q8 -14 22.5 -32.5t46.5 -31.5l-16 -96h-909zM270 1681l49 91l472 -170l-50 -91zM815 1319q0 2 2 2t4 2q-2 -4 -6 -4z" />
<glyph unicode="&#xe9;" horiz-adv-x="1062" d="M68 0v113h110v1210h-110v111h909l16 -97q-63 -23 -76.5 -76t-13.5 -110q0 -37 10.5 -82t34.5 -92l-100 -43q-29 55 -43 111.5t-14 107.5q0 90 30 168q2 2 2 6q-2 0 -3 -2t-3 -2h-526v-567h467v-111h-467v-532h306.5h157.5t58 1l8 1q-31 76 -30 166q0 51 14 107t43 112 l100 -43q-25 -47 -35 -92.5t-10 -81.5q0 -35 5.5 -66.5t15.5 -56.5q8 -14 22.5 -32.5t46.5 -31.5l-16 -96h-909zM270 1602l471 170l50 -91l-471 -170zM815 1319q0 2 2 2t4 2q-2 -4 -6 -4z" />
<glyph unicode="&#xea;" horiz-adv-x="1062" d="M68 0v113h110v1210h-110v111h909l16 -97q-63 -23 -76.5 -76t-13.5 -110q0 -37 10.5 -82t34.5 -92l-100 -43q-29 55 -43 111.5t-14 107.5q0 90 30 168q2 2 2 6q-2 0 -3 -2t-3 -2h-526v-567h467v-111h-467v-532h306.5h157.5t58 1l8 1q-31 76 -30 166q0 51 14 107t43 112 l100 -43q-25 -47 -35 -92.5t-10 -81.5q0 -35 5.5 -66.5t15.5 -56.5q8 -14 22.5 -32.5t46.5 -31.5l-16 -96h-909zM275 1595l256 152l256 -152l-49 -90l-207 123l-207 -123zM815 1319q0 2 2 2t4 2q-2 -4 -6 -4z" />
<glyph unicode="&#xeb;" horiz-adv-x="1062" d="M68 0v113h110v1210h-110v111h909l16 -97q-63 -23 -76.5 -76t-13.5 -110q0 -37 10.5 -82t34.5 -92l-100 -43q-29 55 -43 111.5t-14 107.5q0 90 30 168q2 2 2 6q-2 0 -3 -2t-3 -2h-526v-567h467v-111h-467v-532h306.5h157.5t58 1l8 1q-31 76 -30 166q0 51 14 107t43 112 l100 -43q-25 -47 -35 -92.5t-10 -81.5q0 -35 5.5 -66.5t15.5 -56.5q8 -14 22.5 -32.5t46.5 -31.5l-16 -96h-909zM352 1520v125h112v-125h-112zM600 1520v125h110v-125h-110zM815 1319q0 2 2 2t4 2q-2 -4 -6 -4z" />
<glyph unicode="&#xec;" horiz-adv-x="434" d="M-41 1681l49 91l472 -170l-50 -91zM47 0v115h113v1204h-113v115h342v-115h-115v-1204h115v-115h-342z" />
<glyph unicode="&#xed;" horiz-adv-x="434" d="M-41 1602l471 170l50 -91l-471 -170zM47 0v115h113v1204h-113v115h342v-115h-115v-1204h115v-115h-342z" />
<glyph unicode="&#xee;" horiz-adv-x="434" d="M-37 1595l256 152l256 -152l-49 -90l-207 123l-207 -123zM47 0v115h113v1204h-113v115h342v-115h-115v-1204h115v-115h-342z" />
<glyph unicode="&#xef;" horiz-adv-x="434" d="M41 1520v125h112v-125h-112zM47 0v115h113v1204h-113v115h342v-115h-115v-1204h115v-115h-342zM289 1520v125h110v-125h-110z" />
<glyph unicode="&#xf1;" d="M63 0v113h113v1208h-113v113h224v-197q25 39 59.5 78t81.5 69.5t110.5 49t145.5 18.5q100 0 184 -29.5t142.5 -84t91.5 -131.5t33 -173q0 -137 -62.5 -243.5t-163.5 -198.5q-59 -55 -107 -116.5t-48 -147.5v-11q0 -109 56 -167t134 -58q41 0 72 13.5t52.5 35t31.5 47 t10 50.5q0 37 -34 75.5t-111 71.5l75 92q104 -41 143.5 -108.5t39.5 -132.5q0 -53 -22.5 -99.5t-60.5 -81.5t-88.5 -55t-107.5 -20q-31 0 -82 13t-100 52t-85 106.5t-36 176.5q0 63 16.5 112t43 90t61.5 76t69 70q80 76 134.5 162t54.5 202q0 143 -92 221t-244 78 q-102 0 -177 -43t-124 -111.5t-72.5 -157.5t-23.5 -181v-733h112v-113h-336zM338 1559q6 12 25.5 42.5t47.5 61.5t62.5 54.5t75.5 23.5q49 0 80 -23.5t59 -54.5q14 -14 28.5 -25.5t31.5 -11.5q18 0 36.5 17.5t34.5 39.5q18 25 35 60l86 -37q0 -4 -13 -34t-39 -63.5 t-61.5 -61t-78.5 -27.5q-49 0 -82 23.5t-60 49.5q-16 16 -29.5 27.5t-27.5 11.5q-18 0 -37.5 -17.5t-35 -39t-25.5 -40.5t-12 -22z" />
<glyph unicode="&#xf2;" horiz-adv-x="1263" d="M57 717q0 162 43 297t119 233.5t181.5 152.5t232.5 54q137 0 244.5 -63.5t180 -168t110.5 -236.5t38 -269q0 -160 -42 -295t-117.5 -233.5t-181 -153.5t-232.5 -55t-233.5 55t-182.5 153.5t-118 233.5t-42 295zM170 717q0 -137 34 -252t95 -198t146.5 -129t187.5 -46 q100 0 185 46t146.5 129t95.5 198t34 252t-34 251.5t-95.5 197.5t-146.5 129t-185 46q-102 0 -187.5 -46t-146.5 -129t-95 -197.5t-34 -251.5zM370 1681l49 91l472 -170l-50 -91zM547 717q0 41 25.5 68.5t60.5 27.5t60.5 -27.5t25.5 -68.5t-25.5 -68.5t-60.5 -27.5 t-60.5 27.5t-25.5 68.5z" />
<glyph unicode="&#xf3;" horiz-adv-x="1263" d="M57 717q0 162 43 297t119 233.5t181.5 152.5t232.5 54q137 0 244.5 -63.5t180 -168t110.5 -236.5t38 -269q0 -160 -42 -295t-117.5 -233.5t-181 -153.5t-232.5 -55t-233.5 55t-182.5 153.5t-118 233.5t-42 295zM170 717q0 -137 34 -252t95 -198t146.5 -129t187.5 -46 q100 0 185 46t146.5 129t95.5 198t34 252t-34 251.5t-95.5 197.5t-146.5 129t-185 46q-102 0 -187.5 -46t-146.5 -129t-95 -197.5t-34 -251.5zM370 1602l471 170l50 -91l-471 -170zM547 717q0 41 25.5 68.5t60.5 27.5t60.5 -27.5t25.5 -68.5t-25.5 -68.5t-60.5 -27.5 t-60.5 27.5t-25.5 68.5z" />
<glyph unicode="&#xf4;" horiz-adv-x="1263" d="M57 717q0 162 43 297t119 233.5t181.5 152.5t232.5 54q137 0 244.5 -63.5t180 -168t110.5 -236.5t38 -269q0 -160 -42 -295t-117.5 -233.5t-181 -153.5t-232.5 -55t-233.5 55t-182.5 153.5t-118 233.5t-42 295zM170 717q0 -137 34 -252t95 -198t146.5 -129t187.5 -46 q100 0 185 46t146.5 129t95.5 198t34 252t-34 251.5t-95.5 197.5t-146.5 129t-185 46q-102 0 -187.5 -46t-146.5 -129t-95 -197.5t-34 -251.5zM375 1595l256 152l256 -152l-49 -90l-207 123l-207 -123zM547 717q0 41 25.5 68.5t60.5 27.5t60.5 -27.5t25.5 -68.5t-25.5 -68.5 t-60.5 -27.5t-60.5 27.5t-25.5 68.5z" />
<glyph unicode="&#xf5;" horiz-adv-x="1263" d="M57 717q0 162 43 297t119 233.5t181.5 152.5t232.5 54q137 0 244.5 -63.5t180 -168t110.5 -236.5t38 -269q0 -160 -42 -295t-117.5 -233.5t-181 -153.5t-232.5 -55t-233.5 55t-182.5 153.5t-118 233.5t-42 295zM170 717q0 -137 34 -252t95 -198t146.5 -129t187.5 -46 q100 0 185 46t146.5 129t95.5 198t34 252t-34 251.5t-95.5 197.5t-146.5 129t-185 46q-102 0 -187.5 -46t-146.5 -129t-95 -197.5t-34 -251.5zM330 1559q6 12 25.5 42.5t47.5 61.5t62.5 54.5t75.5 23.5q49 0 80 -23.5t59 -54.5q14 -14 28.5 -25.5t31.5 -11.5q18 0 36.5 17.5 t34.5 39.5q18 25 35 60l86 -37q0 -4 -13 -34t-39 -63.5t-61.5 -61t-78.5 -27.5q-49 0 -82 23.5t-60 49.5q-16 16 -29.5 27.5t-27.5 11.5q-18 0 -37.5 -17.5t-35 -39t-25.5 -40.5t-12 -22zM547 717q0 41 25.5 68.5t60.5 27.5t60.5 -27.5t25.5 -68.5t-25.5 -68.5t-60.5 -27.5 t-60.5 27.5t-25.5 68.5z" />
<glyph unicode="&#xf6;" horiz-adv-x="1263" d="M57 717q0 162 43 297t119 233.5t181.5 152.5t232.5 54q137 0 244.5 -63.5t180 -168t110.5 -236.5t38 -269q0 -160 -42 -295t-117.5 -233.5t-181 -153.5t-232.5 -55t-233.5 55t-182.5 153.5t-118 233.5t-42 295zM170 717q0 -137 34 -252t95 -198t146.5 -129t187.5 -46 q100 0 185 46t146.5 129t95.5 198t34 252t-34 251.5t-95.5 197.5t-146.5 129t-185 46q-102 0 -187.5 -46t-146.5 -129t-95 -197.5t-34 -251.5zM453 1520v125h112v-125h-112zM547 717q0 41 25.5 68.5t60.5 27.5t60.5 -27.5t25.5 -68.5t-25.5 -68.5t-60.5 -27.5t-60.5 27.5 t-25.5 68.5zM701 1520v125h110v-125h-110z" />
<glyph unicode="&#xf9;" d="M57 1200q0 55 24.5 101.5t62.5 80t86.5 53t95.5 19.5q37 0 91 -15.5t103 -53t84 -103t35 -166.5q0 -88 -27.5 -152.5t-70.5 -114.5t-91.5 -95t-91.5 -94.5t-70.5 -111t-27.5 -145.5q0 -152 90 -231.5t236 -79.5q109 0 185.5 43t125.5 112.5t71.5 159t22.5 181.5v733h-110 v113h336v-113h-113v-1208h113v-113h-226v184q-25 -35 -59.5 -71.5t-82.5 -66.5t-111.5 -48t-145.5 -18q-100 0 -182 29.5t-140.5 85t-91.5 133t-33 173.5q0 94 29 165t71 126.5t91 103.5t91 95t70.5 101.5t28.5 123.5q0 94 -52 159.5t-140 65.5q-41 0 -71 -14t-50 -35.5 t-30.5 -47t-10.5 -48.5q0 -41 34 -79t109 -66l-41 -107q-121 45 -169 117t-48 139zM379 1681l49 91l472 -170l-50 -91z" />
<glyph unicode="&#xfa;" d="M57 1200q0 55 24.5 101.5t62.5 80t86.5 53t95.5 19.5q37 0 91 -15.5t103 -53t84 -103t35 -166.5q0 -88 -27.5 -152.5t-70.5 -114.5t-91.5 -95t-91.5 -94.5t-70.5 -111t-27.5 -145.5q0 -152 90 -231.5t236 -79.5q109 0 185.5 43t125.5 112.5t71.5 159t22.5 181.5v733h-110 v113h336v-113h-113v-1208h113v-113h-226v184q-25 -35 -59.5 -71.5t-82.5 -66.5t-111.5 -48t-145.5 -18q-100 0 -182 29.5t-140.5 85t-91.5 133t-33 173.5q0 94 29 165t71 126.5t91 103.5t91 95t70.5 101.5t28.5 123.5q0 94 -52 159.5t-140 65.5q-41 0 -71 -14t-50 -35.5 t-30.5 -47t-10.5 -48.5q0 -41 34 -79t109 -66l-41 -107q-121 45 -169 117t-48 139zM378 1602l471 170l50 -91l-471 -170z" />
<glyph unicode="&#xfb;" d="M57 1200q0 55 24.5 101.5t62.5 80t86.5 53t95.5 19.5q37 0 91 -15.5t103 -53t84 -103t35 -166.5q0 -88 -27.5 -152.5t-70.5 -114.5t-91.5 -95t-91.5 -94.5t-70.5 -111t-27.5 -145.5q0 -152 90 -231.5t236 -79.5q109 0 185.5 43t125.5 112.5t71.5 159t22.5 181.5v733h-110 v113h336v-113h-113v-1208h113v-113h-226v184q-25 -35 -59.5 -71.5t-82.5 -66.5t-111.5 -48t-145.5 -18q-100 0 -182 29.5t-140.5 85t-91.5 133t-33 173.5q0 94 29 165t71 126.5t91 103.5t91 95t70.5 101.5t28.5 123.5q0 94 -52 159.5t-140 65.5q-41 0 -71 -14t-50 -35.5 t-30.5 -47t-10.5 -48.5q0 -41 34 -79t109 -66l-41 -107q-121 45 -169 117t-48 139zM383 1595l256 152l256 -152l-49 -90l-207 123l-207 -123z" />
<glyph unicode="&#xfc;" d="M57 1200q0 55 24.5 101.5t62.5 80t86.5 53t95.5 19.5q37 0 91 -15.5t103 -53t84 -103t35 -166.5q0 -88 -27.5 -152.5t-70.5 -114.5t-91.5 -95t-91.5 -94.5t-70.5 -111t-27.5 -145.5q0 -152 90 -231.5t236 -79.5q109 0 185.5 43t125.5 112.5t71.5 159t22.5 181.5v733h-110 v113h336v-113h-113v-1208h113v-113h-226v184q-25 -35 -59.5 -71.5t-82.5 -66.5t-111.5 -48t-145.5 -18q-100 0 -182 29.5t-140.5 85t-91.5 133t-33 173.5q0 94 29 165t71 126.5t91 103.5t91 95t70.5 101.5t28.5 123.5q0 94 -52 159.5t-140 65.5q-41 0 -71 -14t-50 -35.5 t-30.5 -47t-10.5 -48.5q0 -41 34 -79t109 -66l-41 -107q-121 45 -169 117t-48 139zM461 1520v125h112v-125h-112zM709 1520v125h110v-125h-110z" />
<glyph unicode="&#xfd;" horiz-adv-x="1071" />
<glyph unicode="&#x2c6;" horiz-adv-x="589" d="M39 1595l256 152l256 -152l-49 -90l-207 123l-207 -123z" />
<glyph unicode="&#x2dc;" horiz-adv-x="704" d="M51 1559q6 12 25.5 42.5t47.5 61.5t62.5 54.5t75.5 23.5q49 0 80 -23.5t59 -54.5q14 -14 28.5 -25.5t31.5 -11.5q18 0 36.5 17.5t34.5 39.5q18 25 35 60l86 -37q0 -4 -13 -34t-39 -63.5t-61.5 -61t-78.5 -27.5q-49 0 -82 23.5t-60 49.5q-16 16 -29.5 27.5t-27.5 11.5 q-18 0 -37.5 -17.5t-35 -39t-25.5 -40.5t-12 -22z" />
<glyph unicode="&#x2000;" horiz-adv-x="886" />
<glyph unicode="&#x2001;" horiz-adv-x="1772" />
<glyph unicode="&#x2002;" horiz-adv-x="886" />
<glyph unicode="&#x2003;" horiz-adv-x="1772" />
<glyph unicode="&#x2004;" horiz-adv-x="590" />
<glyph unicode="&#x2005;" horiz-adv-x="443" />
<glyph unicode="&#x2006;" horiz-adv-x="295" />
<glyph unicode="&#x2007;" horiz-adv-x="295" />
<glyph unicode="&#x2008;" horiz-adv-x="221" />
<glyph unicode="&#x2009;" horiz-adv-x="354" />
<glyph unicode="&#x200a;" horiz-adv-x="98" />
<glyph unicode="&#x2010;" horiz-adv-x="600" d="M76 709v112h450v-112h-450z" />
<glyph unicode="&#x2011;" horiz-adv-x="600" d="M76 709v112h450v-112h-450z" />
<glyph unicode="&#x2012;" horiz-adv-x="600" d="M76 709v112h450v-112h-450z" />
<glyph unicode="&#x2013;" horiz-adv-x="1174" d="M76 709v112h1024v-112h-1024z" />
<glyph unicode="&#x2014;" horiz-adv-x="2198" d="M76 709v112h2048v-112h-2048z" />
<glyph unicode="&#x202f;" horiz-adv-x="354" />
<glyph unicode="&#x205f;" horiz-adv-x="443" />
<glyph unicode="&#xe000;" horiz-adv-x="1433" d="M0 0v1434h1434v-1434h-1434z" />
</font>
</defs>
</svg>
