<?xml version="1.0" encoding="UTF-8" standalone="no"?>
<!-- Created with Inkscape (http://www.inkscape.org/) -->

<svg
   xmlns:dc="http://purl.org/dc/elements/1.1/"
   xmlns:cc="http://creativecommons.org/ns#"
   xmlns:rdf="http://www.w3.org/1999/02/22-rdf-syntax-ns#"
   xmlns:svg="http://www.w3.org/2000/svg"
   xmlns="http://www.w3.org/2000/svg"
   xmlns:sodipodi="http://sodipodi.sourceforge.net/DTD/sodipodi-0.dtd"
   xmlns:inkscape="http://www.inkscape.org/namespaces/inkscape"
   width="87.03125"
   height="86.5625"
   id="svg3140"
   version="1.1"
   inkscape:version="0.48.3.1 r9886"
   sodipodi:docname="club.svg">
  <defs
     id="defs3142" />
  <sodipodi:namedview
     id="base"
     pagecolor="#ffffff"
     bordercolor="#666666"
     borderopacity="1.0"
     inkscape:pageopacity="0.0"
     inkscape:pageshadow="2"
     inkscape:zoom="0.35"
     inkscape:cx="43.51562"
     inkscape:cy="43.281247"
     inkscape:document-units="px"
     inkscape:current-layer="layer1"
     showgrid="false"
     inkscape:window-width="472"
     inkscape:window-height="383"
     inkscape:window-x="735"
     inkscape:window-y="451"
     inkscape:window-maximized="0"
     fit-margin-top="0"
     fit-margin-left="0"
     fit-margin-right="0"
     fit-margin-bottom="0" />
  <metadata
     id="metadata3145">
    <rdf:RDF>
      <cc:Work
         rdf:about="">
        <dc:format>image/svg+xml</dc:format>
        <dc:type
           rdf:resource="http://purl.org/dc/dcmitype/StillImage" />
        <dc:title></dc:title>
      </cc:Work>
    </rdf:RDF>
  </metadata>
  <g
     inkscape:label="Layer 1"
     inkscape:groupmode="layer"
     id="layer1"
     transform="translate(-331.48438,-489.08093)">
    <path
       inkscape:connector-curvature="0"
       id="path1937"
       d="m 374.98438,489.08093 c -5.53119,7e-5 -10.164,1.85946 -13.9375,5.5625 -3.77337,3.70319 -5.65619,8.10944 -5.65625,13.21875 6e-5,4.17192 1.60944,8.53131 4.84375,13.125 -2.80186,-2.33453 -5.59548,-3.71875 -10.90625,-3.71875 -10.39121,-10e-6 -17.84375,8.52979 -17.84375,19.1875 -3e-5,11.30109 8.24765,19.90626 19.25,19.90625 11.0157,-2e-5 19.28177,-7.51392 23.34375,-16.65625 -0.18745,7.45314 -1.32027,13.35159 -3.40625,17.6875 -2.08588,4.33595 -5.28119,7.92189 -9.59375,10.78125 -2.90619,1.92187 -8.14055,3.60938 -15.6875,5.0625 l -0.5625,2.40625 30.15625,0 30.1875,0 -0.5625,-2.40625 c -7.54695,-1.45312 -12.78132,-3.14063 -15.6875,-5.0625 -4.31256,-2.85936 -7.50786,-6.4453 -9.59375,-10.78125 -2.08598,-4.33591 -3.21881,-10.23436 -3.40625,-17.6875 4.06198,9.14233 12.32804,16.65623 23.34375,16.65625 11.00235,1e-5 19.25002,-8.60516 19.25,-19.90625 0,-10.65771 -7.45255,-19.18751 -17.84375,-19.1875 -5.31077,0 -8.1044,1.38422 -10.90625,3.71875 3.23431,-4.59369 4.8437,-8.95308 4.84375,-13.125 -6e-5,-5.10931 -1.88288,-9.51556 -5.65625,-13.21875 -3.7735,-3.70304 -8.43756,-5.56243 -13.96875,-5.5625 z"
       style="font-size:144px;font-style:normal;font-weight:normal;fill:#000000;fill-opacity:1;stroke:none;font-family:Bitstream Vera Sans" />
  </g>
</svg>
