<?xml version="1.0" encoding="utf-8"?>
<!-- Generator: Adobe Illustrator 15.0.2, SVG Export Plug-In  -->
<!DOCTYPE svg PUBLIC "-//W3C//DTD SVG 1.1//EN" "http://www.w3.org/Graphics/SVG/1.1/DTD/svg11.dtd" [
	<!ENTITY ns_flows "http://ns.adobe.com/Flows/1.0/">
]>
<svg version="1.1"
	 xmlns="http://www.w3.org/2000/svg" xmlns:xlink="http://www.w3.org/1999/xlink" xmlns:a="http://ns.adobe.com/AdobeSVGViewerExtensions/3.0/"
	 x="0px" y="0px" width="73px" height="100px" viewBox="-0.829 -0.789 73 100"
	 overflow="visible" enable-background="new -0.829 -0.789 73 100" xml:space="preserve">
<defs>
</defs>
<path d="M13.671,24.93c1.131,0.478,1.846,1.49,2.145,3.038L13.314,27.7l-0.894,2.502l-0.357,7.774l0.983,5.272l2.145,0.268
	l-1.519,2.234h-1.608l-2.145-0.983v1.876l-0.625,1.519v19.926l2.502,0.268l1.519,1.608l0.625,5.897l-0.894,0.625l0.625,1.251v1.876
	l-1.251,1.251l0.625,1.787l-0.625,1.608l-3.127,1.251v13.313h-2.77V85.156l-3.396-1.519l-0.268-0.983l0.625-2.413l-0.983-0.625
	l0.625-7.148l-0.625-0.625v-1.876l0.983-1.251l3.038-0.625V48.788l-0.625-1.251l-0.268-2.77l-1.251,0.625H1.876L0,43.516
	l0.357-0.625h1.876l0.625-3.127V28.326l-1.608-0.983L0,27.7l0.625-1.608l1.608-1.162H13.671z M5.897,25.466v1.251H5.272
	l-0.536-1.251l-3.485,0.625v0.625h0.983L3.127,27.7l0.625,1.876l1.876,0.268l0.625-0.625l2.145,0.983l0.625-1.251H9.65l-0.357,0.894
	h2.502l0.894-2.502l1.608-0.268v-1.251h-3.127l-0.894,0.894l-0.357-1.251l-3.396-0.268L5.897,25.466z M3.485,41.372l-0.983,2.145
	H1.251v0.983l2.502,0.625c1.072-0.119,1.698-0.744,1.876-1.876l-0.894-0.357C4.616,42.236,4.2,41.729,3.485,41.372z M3.753,30.47
	v0.983h8.042l-0.268-0.983H3.753z M3.753,32.079v7.417l0.983,2.502c0.773,0.775,1.787,1.192,3.038,1.251h0.894l0.625-1.608
	l-1.519-0.268v-1.608c-1.192,0-2.205-0.387-3.038-1.162h2.413v-0.983l1.519-0.268v-1.608l-1.251-3.664H3.753z M4.736,69.965
	L4.11,70.591l0.625,0.894l6.434-0.268l0.357-0.983l-5.004-0.625L4.736,69.965z M4.736,73.718L4.11,75.237l2.413,0.894l4.021-0.268
	l1.251-0.625v-1.519l-6.523-0.357L4.736,73.718z M4.378,78.365l0.625,1.519h5.897l0.894-1.519l-0.268-0.625H6.255L4.378,78.365z
	 M5.272,81.76l-0.268,1.251l5.54,0.268l0.625-1.251L5.897,81.76H5.272z M5.808,33.955c1.012,0,1.488,0.328,1.43,0.983
	c-0.06,0.656-0.596,0.954-1.608,0.894C7.417,35.355,7.475,34.73,5.808,33.955z M6.523,34.849l-0.268,0.625l-0.625-0.357l0.268-0.625
	L6.523,34.849z M8.042,12.778c1.191,0.12,1.906,1.043,2.145,2.77c0.595-1.251,1.43-1.816,2.502-1.698
	c1.072,0.12,1.682,0.625,1.832,1.519c0.148,0.894-0.551,2.205-2.1,3.932l-3.753,3.396l-2.413-5.54
	c-0.239-2.145,0.119-3.514,1.072-4.11L8.042,12.778z M6.523,43.874l-0.268,1.519l0.536,2.77l0.983,0.983
	c0.952-0.715,1.459-1.667,1.519-2.859L9.65,45.75l-0.625-2.234L6.523,43.874z M7.148,49.771v17.96l1.519,0.357V49.771H7.148z
	 M7.148,85.513v12.42l1.251,0.269l0.268-12.688l-0.894-0.357L7.148,85.513z M9.293,27.968h0.625v0.625L9.293,27.968z M9.65,27.075
	h0.625V27.7L9.65,27.075z M11.169,41.014v0.625L9.65,42.891l0.268,0.983c0.297,0.656,1.131,1.162,2.502,1.519
	c0.952-0.059,1.459-0.565,1.519-1.519l-0.894-0.357l-1.251-2.502H11.169z M41.64,0l6.791,2.502l6.523-2.145l6.255,1.876l2.502,2.145
	l2.145,5.004v1.519c-0.179,1.072,0.163,2.1,1.027,3.083c0.863,0.983,2.487,2.16,4.87,3.529c0.179,0.536,0.268,0.983,0.268,1.34
	c0,1.371-1.014,1.937-3.038,1.698l1.519,2.77c-0.894-0.595-1.519-0.476-1.876,0.357l-0.447-3.038c-2.443,1.49-3.842,1.34-4.2-0.447
	c1.31-2.621,1.935-5.301,1.876-8.042c-0.299-1.012-1.43-1.727-3.396-2.145h-2.77l-2.502,1.162c-0.894,0.715-1.43,1.668-1.608,2.859
	l-1.519,5.272l-0.268,36.01l1.787,7.148l3.485,2.859l2.413,0.268l2.502-0.894v2.502l-3.664,4.646l-4.378,1.251l-6.523-1.876
	l-3.127-2.502v8.042l-1.251,4.736l-3.753,5.897h-0.894l-4.378-3.127l-2.502-4.646l-1.162-5.272v-4.378l-0.625-0.357l-0.357,0.625
	l-5.004,2.234l-6.523-0.357l-2.413-0.894l-3.485-2.859c-0.715-0.595-1.132-1.519-1.251-2.77l-0.268-1.251l1.519,0.625l4.736-0.625
	c0.952-0.357,1.756-1.399,2.413-3.127l1.251-7.148V17.782l-1.519-4.736c-0.536-1.072-1.46-1.787-2.77-2.145l-0.983-0.625
	l-4.378,0.625l-1.787,1.519l1.162-5.54l1.608-2.234l3.127-2.77l4.289-1.251h1.608l7.148,2.234l1.876-1.251L36.368,0H41.64z
	 M18.943,2.859l-2.77,1.519l-2.859,4.378l5.361,0.268l3.038,2.145l2.502,7.506h8.757L29.219,5.004l-0.983-0.983L23.59,2.502h-2.145
	L18.943,2.859z M23.59,55.937l-1.876,7.506l-3.038,2.77l-4.378,0.357l0.625,1.162l1.876,1.608l4.646,1.876l6.166-0.625l2.234-0.983
	l2.77-2.77l0.625-1.251l-5.004-3.127l-3.664-5.272l-0.357-1.251H23.59z M28.549,72.825c1.22-0.357,2.055,0,2.502,1.072
	s0.134,2.145-0.938,3.217c1.906,0.179,2.353,1.49,1.34,3.932c-2.086,0.715-3.426,0.031-4.021-2.055l-0.715,3.396
	c-0.536-0.715-1.251-0.923-2.145-0.625l1.698-3.038c-2.265,0.478-3.485-0.476-3.664-2.859c1.31-1.667,2.681-1.756,4.11-0.268
	C26.717,74.106,27.327,73.182,28.549,72.825z M24.215,23.947h27.968v-3.753H24.215V23.947z M24.215,25.466v23.947l1.251,6.255
	l4.021,5.897l3.753,2.502l3.396,0.625h4.378l1.519-0.983c1.072-0.179,1.816-0.894,2.234-2.145l0.268-1.519l-1.251-1.876
	l-1.876-0.625h-4.289l2.145-2.234l1.519-2.413h-4.915l-2.234-0.625l-6.523-4.736v-0.625l3.753,1.251l5.629,0.983v-4.021h5.897
	l0.268-1.608l-4.915-18.05H24.215z M30.292,33.285c0.715-0.625,1.593-0.938,2.636-0.938c1.042,0,1.876,0.313,2.502,0.938
	s0.983,1.46,1.072,2.502c0.089,1.043-0.12,1.921-0.625,2.636c-0.507,0.715-1.177,1.177-2.01,1.385
	c-0.835,0.209-1.803,0.031-2.904-0.536c-1.103-0.565-1.668-1.548-1.698-2.949C29.233,34.924,29.577,33.911,30.292,33.285z
	 M32.615,32.972c-1.787,0.478-2.711,1.608-2.77,3.396c0.297,1.787,1.43,2.741,3.396,2.859c1.667-0.416,2.502-1.578,2.502-3.485
	C35.385,34.254,34.342,33.33,32.615,32.972z M37.887,1.251l-6.166,1.876l-0.625,0.625l1.876,8.399l2.145,6.523h6.166l5.004-15.19
	l-1.519-0.983L38.87,1.608L37.887,1.251z M33.508,34.849c0.416,0.299,0.625,0.715,0.625,1.251c-0.179,1.072-0.894,1.49-2.145,1.251
	c-0.656-0.894-0.746-1.638-0.268-2.234C32.079,34.641,32.673,34.551,33.508,34.849z M40.121,66.212l-5.629-0.268l-0.983,3.664
	l0.625,6.88l1.251,4.021l2.234,2.77l2.145,1.876h1.519l3.127-6.166l0.625-10.008l-1.251-4.021L40.121,66.212z M43.159,34.491v1.876
	l2.502-1.251l2.77,0.357l1.251,1.251l0.625-0.357l-0.268-1.519l-4.021-1.608L43.159,34.491z M53.167,2.502l-3.485,1.519
	c-1.014,0.299-1.729,1.043-2.145,2.234l-4.021,12.063l8.667,0.357l2.145-6.523l0.983-1.519l4.021-2.502l4.021,0.268l-0.894-1.876
	c-0.179-0.952-0.804-1.787-1.876-2.502l-2.145-1.162L54.06,2.502H53.167z M52.184,55.668l-1.251,2.502l-5.272,5.54l-0.894,0.357
	l0.268,1.251l4.378,4.289l2.145,1.251l5.004,0.983l2.145-0.625l2.502-1.876l1.519-2.77h-4.289l-2.502-1.251l-1.251-1.251
	l-2.145-8.131L52.184,55.668z M47.805,72.11c2.024,1.907,4.2,2.83,6.523,2.77c-0.954,1.907-1.132,4.289-0.536,7.148
	c-2.086-2.024-4.289-2.829-6.612-2.413C48.132,77.114,48.341,74.612,47.805,72.11z"/>
</svg>
