<?xml version="1.0" encoding="UTF-8" standalone="no"?>
<!-- Created with Inkscape (http://www.inkscape.org/) -->

<svg
   xmlns:dc="http://purl.org/dc/elements/1.1/"
   xmlns:cc="http://creativecommons.org/ns#"
   xmlns:rdf="http://www.w3.org/1999/02/22-rdf-syntax-ns#"
   xmlns:svg="http://www.w3.org/2000/svg"
   xmlns="http://www.w3.org/2000/svg"
   xmlns:sodipodi="http://sodipodi.sourceforge.net/DTD/sodipodi-0.dtd"
   xmlns:inkscape="http://www.inkscape.org/namespaces/inkscape"
   width="76.640633"
   height="88.242188"
   id="svg3080"
   version="1.1"
   inkscape:version="0.48.3.1 r9886"
   sodipodi:docname="heart.svg">
  <defs
     id="defs3082" />
  <sodipodi:namedview
     id="base"
     pagecolor="#ffffff"
     bordercolor="#666666"
     borderopacity="1.0"
     inkscape:pageopacity="0.0"
     inkscape:pageshadow="2"
     inkscape:zoom="0.35"
     inkscape:cx="38.32031"
     inkscape:cy="44.121097"
     inkscape:document-units="px"
     inkscape:current-layer="layer1"
     showgrid="false"
     inkscape:window-width="753"
     inkscape:window-height="383"
     inkscape:window-x="1048"
     inkscape:window-y="162"
     inkscape:window-maximized="0"
     fit-margin-top="0"
     fit-margin-left="0"
     fit-margin-right="0"
     fit-margin-bottom="0" />
  <metadata
     id="metadata3085">
    <rdf:RDF>
      <cc:Work
         rdf:about="">
        <dc:format>image/svg+xml</dc:format>
        <dc:type
           rdf:resource="http://purl.org/dc/dcmitype/StillImage" />
        <dc:title></dc:title>
      </cc:Work>
    </rdf:RDF>
  </metadata>
  <g
     inkscape:label="Layer 1"
     inkscape:groupmode="layer"
     id="layer1"
     transform="translate(-336.67969,-488.24109)">
    <path
       inkscape:connector-curvature="0"
       id="path1935"
       d="m 375.14063,576.48328 c -1.45317,-5.53125 -3.52738,-10.72265 -6.22266,-15.57422 -2.69534,-4.85155 -7.91018,-12.3867 -15.64453,-22.60547 -5.67189,-7.49996 -9.16407,-12.25777 -10.47656,-14.27344 -2.15626,-3.2812 -3.71485,-6.29291 -4.67578,-9.03516 -0.96095,-2.74212 -1.44141,-5.51946 -1.44141,-8.33203 0,-5.20305 1.73437,-9.56242 5.20313,-13.07812 3.46873,-3.51554 7.75779,-5.27335 12.86718,-5.27344 5.15623,9e-5 9.63278,1.82821 13.42969,5.48438 2.85934,2.71882 5.17965,6.77351 6.96094,12.16406 1.54683,-5.2968 3.72651,-9.32805 6.53906,-12.09375 3.89057,-3.74992 8.39057,-5.62492 13.5,-5.625 5.06243,8e-5 9.35149,1.74618 12.86719,5.23828 3.51554,3.49226 5.27336,7.65242 5.27344,12.48047 -8e-5,4.21881 -1.03133,8.61334 -3.09375,13.18359 -2.06258,4.57037 -6.04695,10.55864 -11.95313,17.96485 -7.68756,9.70315 -13.28911,17.67189 -16.80469,23.90625 -2.76567,4.92188 -4.87504,10.07812 -6.32812,15.46875 l 0,0 z"
       style="font-size:144px;font-style:normal;font-weight:normal;fill:#aa0000;fill-opacity:1;stroke:none;font-family:Bitstream Vera Sans" />
  </g>
</svg>
