<?xml version="1.0" encoding="utf-8"?>
<!-- Generator: Adobe Illustrator 15.0.2, SVG Export Plug-In  -->
<!DOCTYPE svg PUBLIC "-//W3C//DTD SVG 1.1//EN" "http://www.w3.org/Graphics/SVG/1.1/DTD/svg11.dtd" [
	<!ENTITY ns_flows "http://ns.adobe.com/Flows/1.0/">
]>
<svg version="1.1"
	 xmlns="http://www.w3.org/2000/svg" xmlns:xlink="http://www.w3.org/1999/xlink" xmlns:a="http://ns.adobe.com/AdobeSVGViewerExtensions/3.0/"
	 x="0px" y="0px" width="73px" height="72px" viewBox="-0.476 -0.333 73 72"
	 overflow="visible" enable-background="new -0.476 -0.333 73 72" xml:space="preserve">
<defs>
</defs>
<path d="M54.75,12.286c0,6.253-2.691,10.669-5.603,14.982c-0.648,0.97,0.216,1.614,0.97,0.861c1.941-1.941,4.633-4.42,10.67-4.42
	c6.467,0,11.209,5.605,11.209,16.383c0,11.643-7.112,20.264-15.087,20.264c-7.762,0-15.198-7.115-17.354-11.749
	c-0.756-1.616-1.401-2.694-2.158-2.694c-0.536,0-0.752,0.646-0.752,1.509c0,9.703,4.095,18.787,8.818,21.356
	c0.151,0.082,1.408,1.243-0.911,1.74c-1.906,0.414-14.502,1.408-18.612-1.186c-0.53-0.335,0.016-1.058,0.539-1.187
	c6.555-1.605,7.903-16.198,7.903-21.802c0-0.862-0.216-1.511-0.861-1.511c-0.757,0-1.187,0.758-1.618,1.619
	c-2.479,5.064-8.19,11.746-16.813,11.746C6.468,58.199,0,48.283,0,38.8c0-9.484,5.174-17.244,12.504-17.244
	c4.31,0,8.838,2.802,11.638,4.527c0.757,0.431,1.295-0.433,0.54-0.972c-4.634-3.342-6.144-7.221-6.144-13.04
	C18.538,8.19,22.42,0,36.213,0C50.01,0,54.75,5.388,54.75,12.286z"/>
</svg>
