<?xml version="1.0" encoding="utf-8"?>
<!-- Generator: Adobe Illustrator 15.0.2, SVG Export Plug-In  -->
<!DOCTYPE svg PUBLIC "-//W3C//DTD SVG 1.1//EN" "http://www.w3.org/Graphics/SVG/1.1/DTD/svg11.dtd" [
	<!ENTITY ns_flows "http://ns.adobe.com/Flows/1.0/">
]>
<svg version="1.1"
	 xmlns="http://www.w3.org/2000/svg" xmlns:xlink="http://www.w3.org/1999/xlink" xmlns:a="http://ns.adobe.com/AdobeSVGViewerExtensions/3.0/"
	 x="0px" y="0px" width="71px" height="73px" viewBox="-0.474 -0.98 71 73"
	 overflow="visible" enable-background="new -0.474 -0.98 71 73" xml:space="preserve">
<defs>
</defs>
<path d="M49.508,15.563C42.124,10.333,35.799,2.982,35.038,0c-0.89,3.043-6.568,10.191-14.546,15.417
	C12.264,20.806-0.093,25.844,0,39.323c0.164,23.69,24.166,29.105,33.98,10.432c-0.27,6.223-1.89,17.696-7.556,19.085
	c-0.503,0.124-1.028,0.817-0.518,1.14c3.952,2.496,16.065,1.54,17.899,1.141c2.231-0.478,1.022-1.594,0.877-1.674
	c-4.333-2.355-8.113-10.413-8.454-19.248C45.891,67.568,69.837,62.985,70,39.47C70.093,25.991,57.583,21.284,49.508,15.563z"/>
</svg>
