<?xml version="1.0" standalone="no"?>
<!DOCTYPE svg PUBLIC "-//W3C//DTD SVG 1.1//EN" "http://www.w3.org/Graphics/SVG/1.1/DTD/svg11.dtd" >
<svg xmlns="http://www.w3.org/2000/svg">
<metadata></metadata>
<defs>
<font id="uralitafina" horiz-adv-x="1292" >
<font-face units-per-em="2048" ascent="1536" descent="-512" />
<missing-glyph horiz-adv-x="696" />
<glyph horiz-adv-x="2048" />
<glyph horiz-adv-x="2048" />
<glyph unicode="&#xd;" horiz-adv-x="2048" />
<glyph unicode=" "  horiz-adv-x="696" />
<glyph unicode="&#x09;" horiz-adv-x="696" />
<glyph unicode="&#xa0;" horiz-adv-x="696" />
<glyph unicode="!" horiz-adv-x="366" d="M147 0v88h68v-88h-68zM164 246v1188h39v-1188h-39z" />
<glyph unicode="'" horiz-adv-x="264" d="M86 1327l76 209h47l-84 -209h-39z" />
<glyph unicode="," horiz-adv-x="272" d="M70 -66l32 154h68l-33 -154h-67z" />
<glyph unicode="-" horiz-adv-x="729" d="M178 766v39h406v-39h-406z" />
<glyph unicode="." horiz-adv-x="284" d="M102 0v88h68v-88h-68z" />
<glyph unicode="0" horiz-adv-x="1331" d="M100 717q0 213 73 381.5t202.5 262t292.5 93.5q178 0 315 -113l53 93h43l-67 -117q109 -97 165 -252t56 -348q0 -211 -70.5 -379t-200 -263t-294.5 -95q-204 0 -355 145l-71 -125h-43l88 152q-89 102 -138 246.5t-49 318.5zM139 717q0 -164 43.5 -300t124.5 -231 l656 1123q-128 106 -295 106q-233 0 -381 -194.5t-148 -503.5zM334 158q140 -140 334 -140q233 0 380.5 195t147.5 504q0 182 -53.5 328t-151.5 239z" />
<glyph unicode="1" horiz-adv-x="520" d="M8 1237l316 207l30 -17v-1388h121v-39h-280v39h120v1354l-284 -189z" />
<glyph unicode="2" horiz-adv-x="919" d="M106 20q0 58 36 127.5t94 139t128 145t140 156t128 160.5t94 169.5t36 172.5q0 158 -75.5 242.5t-215.5 84.5q-61 0 -118 -17.5t-104 -52t-75.5 -92.5t-28.5 -131q0 -186 154 -186q63 0 108.5 51t45.5 101h36q0 -73 -60 -132t-130 -59q-92 0 -142.5 59.5t-50.5 165.5 q0 146 104 238t261 92q156 0 243 -95.5t87 -268.5q0 -85 -34.5 -175t-90 -169.5t-123 -158.5t-136.5 -152.5t-127.5 -140.5t-98 -133.5t-46.5 -121.5h617v258h39v-277l-19 -20h-657z" />
<glyph unicode="3" horiz-adv-x="956" d="M106 295q0 112 62 173.5t162 61.5v-38q-85 0 -136 -52t-51 -149q0 -61 22 -110t56 -78.5t78 -49.5t85 -27.5t81 -7.5q91 0 172 40.5t134.5 123t53.5 189.5q0 137 -104 243.5t-240 118.5l2 37q147 0 226 83.5t79 236.5q0 156 -85.5 240.5t-249.5 84.5q-150 0 -230 -72.5 t-80 -216.5q0 -7 1 -18t7.5 -36.5t17.5 -45t35 -35.5t56 -16q63 0 108.5 51t45.5 100h39q0 -69 -59.5 -128.5t-131.5 -59.5q-71 0 -113.5 59t-42.5 152q0 137 92.5 221t258.5 84q177 0 273.5 -97.5t96.5 -266.5q0 -139 -65 -231t-182 -118q136 -49 209 -146.5t73 -227.5 q0 -173 -118.5 -280t-288.5 -107q-154 0 -251.5 88t-97.5 227z" />
<glyph unicode="4" horiz-adv-x="921" d="M27 1270q0 31 9 60.5t29 58.5t57.5 47t88.5 18q102 0 159.5 -71.5t57.5 -219.5q0 -100 -27 -194.5t-76.5 -176t-100 -143.5t-115.5 -127h557v912h36v-912h154v-39h-154v-444h121v-39h-276v39h119v444h-603l-14 33q73 71 128.5 137t106.5 147.5t78 173.5t27 189 q0 254 -178 254q-77 0 -111 -44.5t-34 -98.5q0 -94 75 -131l-18 -35q-45 24 -70.5 66.5t-25.5 95.5z" />
<glyph unicode="5" horiz-adv-x="997" d="M98 315q0 65 20 121t67.5 95.5t115.5 39.5q22 0 42 -4t36 -11t29.5 -16t24 -18.5t18.5 -19.5t13.5 -18.5t9.5 -15.5t6 -10l1 -3l-37 -13q0 4 -5 13.5t-17 22.5t-28 25t-40.5 20.5t-52.5 8.5q-80 0 -122 -62t-42 -155q0 -79 32.5 -139t86 -93t113 -49t123.5 -16 q171 0 268.5 106.5t97.5 287.5q0 54 -9 101t-36 96.5t-69 84.5t-114 57.5t-167 22.5h-291l-18 21v620l18 19h637l18 -19v-276h-39v258h-595v-584h270q228 0 338 -119q96 -104 96 -282q0 -201 -110.5 -316.5t-299.5 -115.5q-171 0 -280 91.5t-109 243.5z" />
<glyph unicode="6" horiz-adv-x="1005" d="M80 586q0 255 96 447t273 296.5t411 104.5v-37q-338 0 -539.5 -220.5t-201.5 -590.5q0 -156 56.5 -286.5t155.5 -206t218 -75.5q166 0 263 106t97 290q0 157 -73 248.5t-195 91.5q-83 0 -147 -46t-64 -122h-39q0 92 76 149.5t174 57.5q99 0 170.5 -55.5t104 -139.5 t32.5 -184q0 -196 -109.5 -315t-289.5 -119q-129 0 -237 81.5t-170 220.5t-62 304z" />
<glyph unicode="7" horiz-adv-x="882" d="M80 1133v280l20 21h631l19 -27l-244 -750q61 -30 106 -30q50 0 111 30l16 -34q-72 -35 -127 -35q-56 0 -118 33l-189 -582h115v-39h-281v39h125l195 600l-29 18q-99 62 -147 62q-35 0 -56 -21l-26 29q39 31 82 31q27 0 54.5 -8.5t44.5 -18t46.5 -28t42.5 -25.5l234 717 h-586v-262h-39z" />
<glyph unicode="8" horiz-adv-x="974" d="M96 375q0 54 13.5 102t33 83.5t52 69t60 54.5t68 43.5t65 33.5t61.5 27l34 15q297 117 297 323q0 77 -25 134.5t-67.5 90t-91.5 48.5t-104 16q-60 0 -116.5 -17.5t-103.5 -51.5t-75.5 -91t-28.5 -129q0 -51 23.5 -95.5t56 -70t62.5 -39.5t48 -14l-6 -39q-8 0 -29 5.5 t-55 23t-63.5 44.5t-51.5 75.5t-22 109.5q0 146 103 237t258 91q148 0 237.5 -88t89.5 -240q0 -232 -319 -358l-35 -14q-43 -18 -71.5 -31.5t-72 -38t-72.5 -52.5t-57.5 -65.5t-42.5 -86t-14 -105.5q0 -166 95.5 -261.5t261.5 -95.5q152 0 254 102t102 255q0 158 -96 258 q-40 43 -95 65l11 37l6 -3q7 -3 18 -8t24 -13t30 -21t32 -28q109 -109 109 -287q0 -165 -113.5 -280t-281.5 -115q-180 0 -288 107t-108 288z" />
<glyph unicode="9" horiz-adv-x="1005" d="M57 999q0 196 110 315.5t290 119.5q129 0 237 -81.5t170 -221t62 -304.5q0 -385 -213 -616t-568 -231v36q338 0 540 220.5t202 590.5q0 156 -56.5 286.5t-155.5 206t-218 75.5q-166 0 -263.5 -106t-97.5 -290q0 -157 73.5 -248.5t195.5 -91.5q83 0 146.5 46t63.5 122h39 q0 -92 -75.5 -149t-173.5 -57q-99 0 -170.5 55t-104.5 139t-33 184z" />
<glyph unicode=":" horiz-adv-x="286" d="M102 0v88h68v-88h-68zM102 205v88h68v-88h-68z" />
<glyph unicode=";" horiz-adv-x="1705" />
<glyph unicode="?" horiz-adv-x="1030" d="M164 1110q0 36 6 74t28 88.5t57.5 89t101 65.5t151.5 27q196 0 285 -127q73 -104 73 -293q0 -57 -7.5 -106.5t-18.5 -85.5t-30.5 -70t-36 -55.5t-41.5 -45t-41 -35.5t-42 -30.5t-37 -27.5q-47 -35 -72.5 -70.5t-39.5 -83.5q-14 -56 -17 -109q-2 -41 -2 -82v-32h-39v30 q0 54 9.5 124t27.5 116q19 49 53 86t91 76q39 27 58.5 42.5t52.5 52t49.5 73.5t30 98.5t13.5 136.5q0 379 -313 379q-77 0 -135.5 -23.5t-91 -57t-52.5 -78t-26 -79t-6 -67.5q0 -94 49.5 -154.5t132.5 -60.5q61 0 93 33.5t32 89.5q0 72 -51 123l26 28q64 -67 64 -151 q0 -70 -43 -116t-121 -46q-97 0 -159 71t-62 183zM426 0v88h68v-88h-68z" />
<glyph unicode="A" d="M43 0v39h127l164 483l-232 178l23 31l221 -170l283 834h-252v39h534v-39h-229l266 -820l182 156l27 -29l-194 -167l159 -496h127v-39h-280v39h114l-153 469l-275 -236l-288 226l-156 -459h111v-39h-279zM379 537l276 -213l263 223l-263 805z" />
<glyph unicode="B" horiz-adv-x="1179" d="M94 0v39h121v1356h-121v39h420q261 0 384.5 -84t123.5 -236q0 -123 -97 -220.5t-282 -158.5q61 -3 118.5 -13t119.5 -33t107 -56t74.5 -86.5t29.5 -120.5q0 -81 -31.5 -149t-83.5 -113t-114 -78.5t-129.5 -51t-121.5 -26t-98 -8.5h-420zM254 39h260q41 0 91.5 7.5t113 24 t120.5 47t106.5 71t78 101.5t29.5 134q0 56 -22 100t-54.5 72.5t-84 48.5t-95 30t-104.5 15.5t-95.5 6.5t-83.5 1l-4 37q158 43 244 86q228 115 229 295q0 279 -469 279h-260v-1356z" />
<glyph unicode="C" horiz-adv-x="1288" d="M88 717q0 137 55.5 272.5t143.5 237t204 164.5t232 63t207.5 -31t146.5 -82.5t83 -114.5t28 -132q0 -142 -84 -235t-209 -93q-96 0 -172 71.5t-76 174.5q0 85 62 162l28 -25q-51 -63 -51 -135q0 -88 63 -148.5t146 -60.5q48 0 92 17.5t81 51.5t59 91t22 129q0 62 -26 118 t-76.5 102t-134 73.5t-189.5 27.5q-108 0 -217 -60t-192 -156t-135 -224.5t-52 -257.5q0 -199 72 -359t200.5 -250t290.5 -90q190 0 324.5 124.5t134.5 299.5h39q0 -125 -67.5 -231.5t-182.5 -168.5t-248 -62q-173 0 -310.5 95t-214.5 263.5t-77 378.5z" />
<glyph unicode="D" horiz-adv-x="1249" d="M98 0v39h121v1356h-121v39h445q288 0 440 -158q172 -178 172 -559q0 -209 -77.5 -372.5t-217 -254t-317.5 -90.5h-445zM258 39h285q257 0 415 187.5t158 490.5q0 345 -140 511.5t-433 166.5h-285v-1356z" />
<glyph unicode="E" d="M94 717q0 192 78 362.5t208.5 272.5t278.5 102q170 0 279.5 -61.5t155.5 -161.5q14 102 57 152.5t125 50.5v-37q-85 0 -118.5 -69.5t-33.5 -233.5q0 -142 -84 -235t-209 -93v39q48 0 92 17.5t81 51.5t59 91t22 129q0 62 -26 118t-76.5 102t-134 73.5t-189.5 27.5 q-126 0 -240.5 -82.5t-190 -223t-91.5 -304.5h455v-39h-459v-49q0 -199 72 -359t200 -250t289 -90q190 0 325.5 124.5t135.5 299.5h37q0 -126 -68 -232.5t-182.5 -168t-247.5 -61.5q-172 0 -309 95t-214 263.5t-77 378.5z" />
<glyph unicode="F" horiz-adv-x="897" d="M66 0v39h118v809q0 109 14.5 199.5t38.5 152t58.5 108.5t69.5 74t76 44t74.5 22.5t68.5 5.5q154 0 231 -92q66 -78 66 -203q0 -105 -70 -182.5t-158 -77.5q-78 0 -131 49.5t-53 122.5q0 53 31 98l30 -20q-22 -36 -22 -76q0 -61 41 -98t104 -37q74 0 131.5 65.5 t57.5 155.5q0 29 -4 56.5t-19.5 66.5t-41.5 67t-76 48t-117 20q-175 0 -268 -145t-93 -424v-256h326v-39h-326v-514h119v-39h-276z" />
<glyph unicode="G" d="M92 717q0 199 82.5 368t229 269t323.5 100q145 0 262 -59t164 -156l-33 -18q-44 90 -150.5 142t-242.5 52q-165 0 -302.5 -92.5t-216.5 -252.5t-79 -353q0 -107 22 -206.5t69.5 -189.5t116 -157t169 -106.5t221.5 -39.5q98 0 180.5 26.5t139.5 71.5t97 104t58.5 124 t18.5 133q0 182 -96.5 286.5t-262.5 104.5q-105 0 -182.5 -75t-77.5 -183q0 -96 70 -190l-29 -23q-80 106 -80 215q0 122 90.5 208.5t208.5 86.5q181 0 288 -117t107 -313q0 -217 -148.5 -357t-381.5 -140q-190 0 -334.5 94t-222.5 261t-78 382z" />
<glyph unicode="H" horiz-adv-x="1275" d="M98 0v39h119v1356h-119v39h279v-39h-121v-799h764v799h-121v39h279v-39h-119v-1356h119v-39h-279v39h121v518h-764v-518h121v-39h-279z" />
<glyph unicode="I" horiz-adv-x="442" d="M86 0v39h119v1356h-119v39h279v-39h-121v-1356h121v-39h-279z" />
<glyph unicode="J" horiz-adv-x="561" d="M23 156q0 50 30 96l33 -21q-25 -39 -25 -77q0 -59 43.5 -97.5t104.5 -38.5q79 0 116 69.5t37 223.5v1086h-120v37h276v-37h-119v-1086q0 -171 -46.5 -251t-143.5 -80q-77 0 -131.5 50t-54.5 126z" />
<glyph unicode="K" horiz-adv-x="1150" d="M86 0v39h119v1343h-119v39h276v-39h-118v-1343h118v-39h-276zM375 604q1 3 102 240t144 323q43 92 81 152t71 88t57 37.5t53 9.5q84 0 136 -52.5t52 -129.5q0 -83 -60 -142t-130 -59v39q50 0 100.5 46t50.5 114q0 64 -43 105.5t-94 41.5q-36 0 -71 -23.5t-70 -71.5 t-65.5 -101t-67 -134.5t-65 -148.5t-69 -165t-69.5 -163l436 -571h199v-39h-217z" />
<glyph unicode="L" horiz-adv-x="884" d="M84 0v39h121v1356h-121v39h281v-39h-121v-1356h399q92 0 141.5 57t49.5 133q0 59 -35 104.5t-82 45.5q-52 0 -94 -57l-31 22q56 74 125 74q21 0 39 -6q51 -17 82.5 -68.5t31.5 -114.5q0 -93 -60.5 -161t-166.5 -68h-559z" />
<glyph unicode="M" horiz-adv-x="1671" d="M102 0v37h119v1345h-119v37h156v-172q23 56 64 103q96 104 221 104q99 0 172.5 -51.5t109.5 -149.5q130 201 332 201q94 0 170.5 -37t127 -100.5t77.5 -147.5t27 -180q0 -86 -36 -167t-87 -143.5t-102.5 -121.5t-87.5 -123.5t-36 -126.5q0 -71 22 -128.5t56.5 -91 t71.5 -51.5t72 -18q92 0 145 55.5t53 125.5q0 58 -36.5 110t-116.5 82l14 35q91 -36 133.5 -97.5t42.5 -129.5q0 -83 -62.5 -151t-172.5 -68q-31 0 -64 9.5t-68.5 34t-62.5 60t-45 93.5t-18 130q0 58 25.5 116.5t64 104.5t83.5 101.5t83.5 106.5t64 120.5t25.5 142.5 q0 177 -98.5 296.5t-264.5 119.5q-103 0 -186.5 -57t-126.5 -152q24 -92 24 -215v-991h-37v991q0 138 -36 240q-15 45 -37 74q-82 110 -215 110q-52 0 -98.5 -21t-76 -49.5t-54.5 -66.5t-36.5 -62.5t-19.5 -48.5v-1130h119v-37h-275z" />
<glyph unicode="N" horiz-adv-x="1261" d="M92 0v37h119v1360h-119v37h156v-373q23 107 84 196q135 197 377 197q196 0 315 -109.5t119 -291.5q0 -127 -57.5 -229.5t-167.5 -205.5q-85 -75 -131 -146t-46 -165v-10q0 -130 69 -204.5t173 -74.5q98 0 156.5 61.5t58.5 133.5q0 54 -34 101.5t-107 76.5l14 35 q86 -33 126 -91t40 -124q0 -94 -75.5 -162.5t-178.5 -68.5q-27 0 -59.5 7.5t-73 30t-72.5 57t-54 95t-22 137.5q0 27 3 51.5t11 48t14 41t21.5 39.5t22.5 33.5t28 34t28.5 30l32 32l30.5 30.5q102 97 156.5 193t54.5 219q0 168 -107.5 262t-287.5 94q-92 0 -169 -31.5 t-130.5 -85.5t-90.5 -126t-54 -152.5t-17 -165.5v-817h119v-37h-275z" />
<glyph unicode="O" d="M96 717q0 213 73 381.5t202.5 262t292.5 93.5q243 0 403 -201q162 -203 162 -536q0 -211 -70.5 -379t-200 -263t-294.5 -95t-294.5 95t-201.5 263t-72 379zM135 717q0 -309 148 -504t381 -195t380.5 195t147.5 504t-147.5 503.5t-380.5 194.5t-381 -194.5t-148 -503.5z " />
<glyph unicode="P" horiz-adv-x="1048" d="M92 0v39h121v1356h-121v39h316q63 0 102 -1t95.5 -4.5t93.5 -10.5t82 -21t76 -33.5t61 -49t51 -67.5q51 -102 51 -250q0 -204 -88.5 -322t-245.5 -118q-73 0 -127 26t-82.5 67.5t-41.5 84.5t-13 86h39q0 -35 12.5 -72t38 -72.5t72.5 -58t108 -22.5q135 0 212 108t77 295 q0 62 -9.5 113t-25 89t-42.5 68t-54.5 50.5t-69.5 34.5t-79 22t-91 12.5t-96.5 5.5t-105.5 1h-156v-1356h121v-39h-281z" />
<glyph unicode="Q" horiz-adv-x="1402" d="M98 717q0 217 74 384.5t210.5 260t315.5 92.5t315.5 -92.5t210.5 -260t74 -384.5q0 -338 -165 -539l-19 -18q52 -60 90.5 -91.5t75.5 -31.5v-37q-46 0 -89.5 33.5t-103.5 97.5q-157 -151 -389 -151q-179 0 -315.5 92t-210.5 259.5t-74 385.5zM135 717q0 -319 153 -509 t410 -190q220 0 365 142q-23 29 -66.5 89t-75.5 100.5t-72 85.5t-78.5 68t-72.5 23v39q24 0 47.5 -7t48 -24.5t42 -31.5t44.5 -45.5t40 -47t43.5 -55.5t40.5 -53l86 -115q172 194 172 531q0 319 -153.5 508.5t-410.5 189.5t-410 -189.5t-153 -508.5z" />
<glyph unicode="R" horiz-adv-x="1134" d="M94 0v39h121v1356h-121v39h420q276 0 391 -72t115 -238q0 -126 -61.5 -207t-192.5 -143q-132 -61 -231 -74q2 -38 6 -78.5t14.5 -109t24 -128.5t38 -125.5t54 -112t73.5 -77t95 -30.5q89 0 146.5 76t57.5 170q0 84 -53 143t-164 59v39q130 0 195 -73q61 -67 61 -168 q0 -116 -74 -200.5t-173 -84.5q-60 0 -111.5 37t-85.5 95.5t-61 134t-42.5 147.5t-25 142.5t-13 113t-3.5 63.5q22 0 103.5 22t154.5 54q119 54 175 129.5t56 185.5q0 150 -109 210.5t-360 60.5h-260v-1395h-160z" />
<glyph unicode="S" horiz-adv-x="958" d="M96 311q0 107 55 180.5t138 73.5q61 0 104 -40t43 -101q0 -48 -30 -94l-33 20q24 38 24 74q0 44 -31.5 73t-78.5 29q-68 0 -110 -63t-42 -150q0 -94 51.5 -163t125.5 -100.5t157 -31.5q142 0 244 93t102 229q0 54 -14.5 92t-62.5 77t-83.5 60.5t-131.5 73.5 q-27 15 -42 23q-74 44 -121.5 76t-95.5 73.5t-74 81.5t-42.5 91.5t-16.5 111.5q0 162 100 258t275 96q99 0 157.5 -31.5t100.5 -87.5q45 77 104 84v-37q-8 0 -18.5 -5t-25.5 -19.5t-29 -38t-28.5 -64.5t-25.5 -94.5t-17.5 -132.5t-6.5 -174h-39q7 182 37 336q11 57 28 104 q-36 59 -89 90t-148 31q-161 0 -249.5 -87t-88.5 -224q0 -43 10.5 -82.5t24.5 -69.5t43 -62.5t50.5 -53t64 -49.5t67 -44t74.5 -45q31 -18 84 -45.5t83.5 -43.5t70 -45t60.5 -57t36.5 -71t15.5 -94q0 -153 -113.5 -257.5t-269.5 -104.5q-67 0 -132 21.5t-119.5 61.5 t-88 104.5t-33.5 143.5z" />
<glyph unicode="T" horiz-adv-x="1005" d="M90 1397l6 37h795l12 -33q-14 -14 -46.5 -48t-105 -113.5t-143 -162.5t-151.5 -189.5t-141 -200t-100 -187.5t-40 -160q0 -134 100.5 -228t233.5 -94q67 0 130 20t115 58.5t83.5 103t31.5 144.5q0 116 -56 187t-130 71q-77 0 -115.5 -49t-38.5 -139h-38q0 105 50.5 166 t141.5 61q90 0 156 -82q69 -82 69 -215q0 -156 -113 -260t-286 -104q-150 0 -260.5 103.5t-110.5 254.5q0 238 400 719q140 167 307 340h-690q36 -38 58 -105t22 -147q0 -116 -56 -191l-30 25q47 63 47 166q0 87 -32.5 163.5t-74.5 88.5z" />
<glyph unicode="U" horiz-adv-x="1333" d="M96 1223q0 97 77 164t177 67q26 0 57.5 -7.5t72.5 -29.5t73.5 -56.5t55 -95.5t22.5 -139q0 -69 -22 -127t-57.5 -100.5t-78.5 -82.5t-86 -82.5t-78.5 -90.5t-57.5 -117t-22 -151q0 -168 107.5 -262.5t288.5 -94.5q93 0 170 31.5t129.5 85t89 126t53 153t16.5 166.5v817 h-116v37h274v-37h-119v-1360h119v-37h-158v373q-22 -115 -75 -197q-129 -196 -383 -196q-198 0 -316.5 108t-118.5 293q0 85 22 156t57.5 120.5t78.5 93t86 83t78.5 80.5t57.5 95t22 117q0 133 -67 211t-175 78q-99 0 -157 -61t-58 -135q0 -53 34 -101.5t107 -75.5l-14 -34 q-86 33 -126 91t-40 124z" />
<glyph unicode="V" horiz-adv-x="1191" d="M33 1395v39h280v-39h-114l397 -1321l395 1321h-114v39h282v-39h-127l-418 -1395h-36l-418 1395h-127z" />
<glyph unicode="W" horiz-adv-x="1536" d="M63 1395v39h283v-39h-119l262 -1307l261 907h36l261 -907l264 1307h-121v39h283v-39h-123l-281 -1395h-39l-262 920l-262 -920h-39l-279 1395h-125z" />
<glyph unicode="X" horiz-adv-x="1202" d="M80 0v39h127l373 678l-373 678h-127v39h278v-39h-106l350 -637l350 637h-106v39h278v-39h-127l-372 -678l372 -678h127v-39h-278v39h106l-350 637l-350 -637h106v-39h-278z" />
<glyph unicode="Y" horiz-adv-x="1062" d="M51 1229q0 102 61.5 163.5t129.5 61.5q85 0 132.5 -28.5t71 -100t23.5 -201.5v-483q0 -7 1 -15.5t9 -27.5t22 -34t43.5 -27.5t69.5 -14.5l258 860h-112v39h276v-39h-123l-403 -1343h113v-39h-277v39h123l135 446q-107 7 -151 82q-20 33 -23 74v483q0 168 -40 230.5 t-148 62.5q-31 0 -64.5 -18t-61.5 -63t-28 -107q0 -71 42 -112.5t112 -41.5v-39q-86 0 -138.5 53.5t-52.5 139.5z" />
<glyph unicode="Z" horiz-adv-x="1220" d="M98 1397l6 37h940l17 -31l-459 -733q90 -56 162 -56q57 0 133 39l16 -35q-82 -43 -149 -43q-76 0 -182 62l-373 -598h844q-36 36 -58 96.5t-22 130.5q0 107 57 183l31 -23q-49 -66 -49 -160q0 -51 16 -104q37 -105 92 -125l-6 -37h-940l-16 29l391 628q-7 4 -27.5 16 t-30.5 17.5t-29.5 15t-32.5 14t-30 8t-32 3.5q-41 0 -68 -24l-27 28q42 37 95 37q34 0 66 -11.5t78 -38t58 -32.5l441 705h-844q36 -38 58 -98.5t22 -131.5q0 -104 -58 -182l-30 25q47 63 47 159q0 83 -32.5 149.5t-74.5 80.5z" />
<glyph unicode="`" horiz-adv-x="671" d="M113 1753l16 25l430 -156l-16 -25z" />
<glyph unicode="a" d="M43 0v39h127l164 483l-232 178l23 31l221 -170l283 834h-252v39h534v-39h-229l266 -820l182 156l27 -29l-194 -167l159 -496h127v-39h-280v39h114l-153 469l-275 -236l-288 226l-156 -459h111v-39h-279zM379 537l276 -213l263 223l-263 805z" />
<glyph unicode="b" horiz-adv-x="1179" d="M94 0v39h121v1356h-121v39h420q261 0 384.5 -84t123.5 -236q0 -123 -97 -220.5t-282 -158.5q269 -23 373 -123q76 -68 76 -186q0 -81 -31.5 -149t-83.5 -113t-114 -78.5t-129.5 -51t-121.5 -26t-98 -8.5h-420zM254 39h260q41 0 91.5 7.5t113 24t120.5 47t106.5 71 t78 101.5t29.5 134q0 56 -22 100t-54.5 72.5t-84 48.5t-95 30t-104.5 15.5t-95.5 6.5t-83.5 1l-4 37q158 43 244 86q228 115 229 295q0 279 -469 279h-260v-1356z" />
<glyph unicode="c" horiz-adv-x="1288" d="M88 717q0 137 55.5 272.5t143.5 237t204 164.5t232 63t207.5 -31t146.5 -82.5t83 -114.5t28 -132q0 -142 -84 -235t-209 -93q-96 0 -172 71.5t-76 174.5q0 85 62 162l28 -25q-51 -63 -51 -135q0 -88 63 -148.5t146 -60.5q48 0 92 17.5t81 51.5t59 91t22 129q0 62 -26 118 t-76.5 102t-134 73.5t-189.5 27.5q-108 0 -217 -60t-192 -156t-135 -224.5t-52 -257.5q0 -199 72 -359t200.5 -250t290.5 -90q190 0 324.5 124.5t134.5 299.5h39q0 -125 -67.5 -231.5t-182.5 -168.5t-248 -62q-173 0 -310.5 95t-214.5 263.5t-77 378.5z" />
<glyph unicode="d" horiz-adv-x="1249" d="M98 0v39h121v1356h-121v39h445q288 0 440 -158q172 -178 172 -559q0 -209 -77.5 -372.5t-217 -254t-317.5 -90.5h-445zM258 39h285q257 0 415 187.5t158 490.5q0 345 -140 511.5t-433 166.5h-285v-1356z" />
<glyph unicode="e" horiz-adv-x="1114" d="M90 0v39h121v1356h-121v39h907l7 -37q-48 -19 -70.5 -85t-22.5 -143q0 -100 33 -165l-33 -17q-39 74 -39 184q0 150 66 224h-688v-660h504v-39h-504v-657h688q-66 75 -66 219q0 111 39 188l33 -16q-33 -67 -33 -166q0 -85 27 -149q26 -64 66 -78l-7 -37h-907z" />
<glyph unicode="f" horiz-adv-x="897" d="M66 0v39h118v809q0 109 14.5 199.5t38.5 152t58.5 108.5t69.5 74t76 44t74.5 22.5t68.5 5.5q154 0 231 -92q66 -78 66 -203q0 -105 -70 -182.5t-158 -77.5q-78 0 -131 49.5t-53 122.5q0 53 31 98l30 -20q-22 -36 -22 -76q0 -61 41 -98t104 -37q74 0 131.5 65.5 t57.5 155.5q0 29 -4 56.5t-19.5 66.5t-41.5 67t-76 48t-117 20q-175 0 -268 -145t-93 -424v-256h326v-39h-326v-514h119v-39h-276z" />
<glyph unicode="g" horiz-adv-x="1372" d="M94 688q0 165 54 309t145 243.5t213 156.5t256 57q122 0 230 -44t179.5 -133t71.5 -204q0 -114 -64 -193t-167 -79q-87 0 -143 56t-56 149q0 99 55 168l29 -25q-47 -65 -47 -141q0 -74 45.5 -122t118.5 -48q88 0 140 68t52 167q0 80 -38.5 146t-102 108t-142 65 t-161.5 23q-128 0 -243.5 -54t-201 -148.5t-136 -230t-50.5 -290.5q0 -97 19 -192t61 -182.5t101 -154t145 -106t188 -39.5q78 0 144 23.5t110 61t78.5 88.5t54.5 101.5t32.5 104.5t16.5 93t4 71h-426v37h463v-109q0 -70 5.5 -133t20 -138t47.5 -124t81 -57v-37 q-151 0 -186 342q-48 -168 -168 -265t-285 -97q-127 0 -232 60.5t-171.5 160.5t-103 226t-36.5 261z" />
<glyph unicode="h" horiz-adv-x="1275" d="M98 0v39h119v1356h-119v39h279v-39h-121v-799h764v799h-121v39h279v-39h-119v-1356h119v-39h-279v39h121v518h-764v-518h121v-39h-279z" />
<glyph unicode="i" horiz-adv-x="319" d="M23 0v39h118v1356h-118v39h278v-39h-121v-1356h121v-39h-278z" />
<glyph unicode="j" horiz-adv-x="561" d="M23 156q0 50 30 96l33 -21q-25 -39 -25 -77q0 -59 43.5 -97.5t104.5 -38.5q79 0 116 69.5t37 223.5v1086h-120v37h276v-37h-119v-1086q0 -171 -46.5 -251t-143.5 -80q-77 0 -131.5 50t-54.5 126z" />
<glyph unicode="k" horiz-adv-x="1150" d="M86 0v39h119v1343h-119v39h276v-39h-118v-1343h118v-39h-276zM375 604q1 3 102 240t144 323q43 92 81 152t71 88t57 37.5t53 9.5q84 0 136 -52.5t52 -129.5q0 -83 -60 -142t-130 -59v39q50 0 100.5 46t50.5 114q0 64 -43 105.5t-94 41.5q-36 0 -71 -23.5t-70 -71.5 t-65.5 -101t-67 -134.5t-65 -148.5t-69 -165t-69.5 -163l436 -571h199v-39h-217z" />
<glyph unicode="l" horiz-adv-x="884" d="M84 0v39h121v1356h-121v39h281v-39h-121v-1356h399q92 0 141.5 57t49.5 133q0 60 -35 105t-82 45q-52 0 -94 -57l-31 22q56 74 125 74q21 0 39 -6q51 -17 82.5 -68.5t31.5 -114.5q0 -93 -60.5 -161t-166.5 -68h-559z" />
<glyph unicode="m" horiz-adv-x="1812" d="M113 205q0 72 46 131t124 90l14 -35q-74 -30 -109.5 -79.5t-35.5 -102.5q0 -72 55 -131.5t145 -59.5q97 0 162.5 75t65.5 200q0 68 -22 124.5t-57.5 97t-78 79t-85 80.5t-78 90.5t-57.5 119t-22 156.5q0 189 97.5 301.5t252.5 112.5q164 0 258.5 -133.5t118.5 -380.5 q24 244 119.5 379t259.5 135q65 0 125.5 -22.5t112.5 -67t83 -122t31 -177.5q0 -84 -22.5 -154.5t-58 -120.5t-78.5 -95t-86.5 -87t-79 -85.5t-58 -102.5t-22.5 -127q0 -122 64 -198.5t163 -76.5q91 0 145 59t54 132q0 57 -36 105.5t-107 76.5l14 35q71 -28 119.5 -85.5 t48.5 -131.5q0 -99 -71.5 -164t-164.5 -65q-45 0 -89 17t-85 51.5t-66.5 97t-25.5 143.5q0 74 22.5 137t58 109.5t79 90t87 88t79 93t58 115.5t22.5 145q0 167 -92.5 257.5t-225.5 90.5q-183 0 -270.5 -180.5t-87.5 -536.5v-698h-39v698q0 717 -357 717q-139 0 -225 -100.5 t-86 -274.5q0 -83 22 -151t57 -114t77.5 -86t84.5 -78t77 -80t57 -102t22 -134q0 -79 -23.5 -141t-62 -99t-84 -56t-94.5 -19q-95 0 -167 65t-72 160z" />
<glyph unicode="n" horiz-adv-x="1333" d="M92 0v37h119v1360h-119v37h156v-373q23 107 84 196q135 197 377 197q196 0 315 -109.5t119 -291.5q0 -127 -57.5 -229.5t-167.5 -205.5q-85 -75 -131 -146t-46 -165v-10q0 -130 69 -204.5t173 -74.5q98 0 156.5 61.5t58.5 133.5q0 54 -34 101.5t-107 76.5l14 35 q86 -33 126 -91t40 -124q0 -94 -75.5 -162.5t-178.5 -68.5q-27 0 -59.5 7.5t-73 30t-72.5 57t-54 95t-22 137.5q0 27 3 51.5t11 48t14 41t21.5 39.5t22.5 33.5t28 34t28.5 30l32 32l30.5 30.5q102 97 156.5 193t54.5 219q0 168 -107.5 262t-287.5 94q-92 0 -169 -31.5 t-130.5 -85.5t-90.5 -126t-54 -152.5t-17 -165.5v-817h119v-37h-275z" />
<glyph unicode="o" horiz-adv-x="1327" d="M96 717q0 213 73 381.5t202.5 262t292.5 93.5q243 0 403 -201q162 -203 162 -536q0 -211 -70.5 -379t-200 -263t-294.5 -95t-294.5 95t-201.5 263t-72 379zM135 717q0 -309 148 -504t381 -195t380.5 195t147.5 504t-147.5 503.5t-380.5 194.5t-381 -194.5t-148 -503.5z M616 717q0 20 14 34.5t34 14.5t34.5 -14.5t14.5 -34.5t-14.5 -33.5t-34.5 -13.5t-34 13.5t-14 33.5z" />
<glyph unicode="p" horiz-adv-x="1048" d="M92 0v39h121v1356h-121v39h316q63 0 102 -1t95.5 -4.5t93.5 -10.5t82 -21t76 -33.5t61 -49t51 -67.5q51 -102 51 -250q0 -204 -88.5 -322t-245.5 -118q-73 0 -127 26t-82.5 67.5t-41.5 84.5t-13 86h39q0 -35 12.5 -72t38 -72.5t72.5 -58t108 -22.5q135 0 212 108t77 295 q0 62 -9.5 113t-25 89t-42.5 68t-54.5 50.5t-69.5 34.5t-79 22t-91 12.5t-96.5 5.5t-105.5 1h-156v-1356h121v-39h-281z" />
<glyph unicode="q" horiz-adv-x="1402" d="M98 717q0 217 74 384.5t210.5 260t315.5 92.5t315.5 -92.5t210.5 -260t74 -384.5q0 -338 -165 -539l-19 -18q52 -60 90.5 -91.5t75.5 -31.5v-37q-46 0 -89.5 33.5t-103.5 97.5q-157 -151 -389 -151q-179 0 -315.5 92t-210.5 259.5t-74 385.5zM135 717q0 -319 153 -509 t410 -190q220 0 365 142q-23 29 -66.5 89t-75.5 100.5t-72 85.5t-78.5 68t-72.5 23v39q24 0 47.5 -7t48 -24.5t42 -31.5t44.5 -45.5t40 -47t43.5 -55.5t40.5 -53l86 -115q172 194 172 531q0 319 -153.5 508.5t-410.5 189.5t-410 -189.5t-153 -508.5z" />
<glyph unicode="r" horiz-adv-x="1185" d="M94 0v39h121v1356h-121v39h420q276 0 391 -72t115 -238q0 -126 -61.5 -207t-192.5 -143q-132 -61 -231 -74q2 -38 6 -78.5t14.5 -109t24 -128.5t38 -125.5t54 -112t73.5 -77t95 -30.5q89 0 146.5 76t57.5 170q0 84 -53 143t-164 59v39q130 0 195 -73q61 -67 61 -168 q0 -116 -74 -200.5t-173 -84.5q-60 0 -111.5 37t-85.5 95.5t-61 134t-42.5 147.5t-25 142.5t-13 113t-3.5 63.5q22 0 103.5 22t154.5 54q119 54 175 129.5t56 185.5q0 150 -109 210.5t-360 60.5h-260v-1395h-160z" />
<glyph unicode="s" horiz-adv-x="958" d="M96 311q0 107 55 180.5t138 73.5q61 0 104 -40t43 -101q0 -48 -30 -94l-33 20q24 38 24 74q0 44 -31.5 73t-78.5 29q-68 0 -110 -63t-42 -150q0 -94 51.5 -163t125.5 -100.5t157 -31.5q142 0 244 93t102 229q0 54 -14.5 92t-62.5 77t-83.5 60.5t-131.5 73.5 q-27 15 -42 23q-74 44 -121.5 76t-95.5 73.5t-74 81.5t-42.5 91.5t-16.5 111.5q0 162 100 258t275 96q99 0 157.5 -31.5t100.5 -87.5q45 77 104 84v-37q-8 0 -18.5 -5t-25.5 -19.5t-29 -38t-28.5 -64.5t-25.5 -94.5t-17.5 -132.5t-6.5 -174h-39q7 182 37 336q11 57 28 104 q-36 59 -89 90t-148 31q-161 0 -249.5 -87t-88.5 -224q0 -43 10.5 -82.5t24.5 -69.5t43 -62.5t50.5 -53t64 -49.5t67 -44t74.5 -45q31 -18 84 -45.5t83.5 -43.5t70 -45t60.5 -57t36.5 -71t15.5 -94q0 -153 -113.5 -257.5t-269.5 -104.5q-67 0 -132 21.5t-119.5 61.5 t-88 104.5t-33.5 143.5z" />
<glyph unicode="t" horiz-adv-x="1005" d="M90 1397l6 37h795l12 -33q-14 -14 -46.5 -48t-105 -113.5t-143 -162.5t-151.5 -189.5t-141 -200t-100 -187.5t-40 -160q0 -134 100.5 -228t233.5 -94q67 0 130 20t115 58.5t83.5 103t31.5 144.5q0 116 -56 187t-130 71q-77 0 -115.5 -49t-38.5 -139h-38q0 105 50.5 166 t141.5 61q90 0 156 -82q69 -82 69 -215q0 -156 -113 -260t-286 -104q-150 0 -260.5 103.5t-110.5 254.5q0 238 400 719q140 167 307 340h-690q36 -38 58 -105t22 -147q0 -116 -56 -191l-30 25q47 63 47 166q0 87 -32.5 163.5t-74.5 88.5z" />
<glyph unicode="u" horiz-adv-x="1333" d="M96 1223q0 97 77 164t177 67q26 0 57.5 -7.5t72.5 -29.5t73.5 -56.5t55 -95.5t22.5 -139q0 -69 -22 -127t-57.5 -100.5t-78.5 -82.5t-86 -82.5t-78.5 -90.5t-57.5 -117t-22 -151q0 -168 107.5 -262.5t288.5 -94.5q93 0 170 31.5t129.5 85t89 126t53 153t16.5 166.5v817 h-116v37h274v-37h-119v-1360h119v-37h-158v373q-22 -115 -75 -197q-129 -196 -383 -196q-198 0 -316.5 108t-118.5 293q0 85 22 156t57.5 120.5t78.5 93t86 83t78.5 80.5t57.5 95t22 117q0 133 -67 211t-175 78q-99 0 -157 -61t-58 -135q0 -53 34 -101.5t107 -75.5l-14 -34 q-86 33 -126 91t-40 124z" />
<glyph unicode="v" horiz-adv-x="1191" d="M33 1395v39h280v-39h-114l397 -1321l395 1321h-114v39h282v-39h-127l-418 -1395h-36l-418 1395h-127z" />
<glyph unicode="w" horiz-adv-x="1536" d="M63 1395v39h283v-39h-119l262 -1307l261 907h36l261 -907l264 1307h-121v39h283v-39h-123l-281 -1395h-39l-262 920l-262 -920h-39l-279 1395h-125z" />
<glyph unicode="x" horiz-adv-x="1202" d="M80 0v39h127l373 678l-373 678h-127v39h278v-39h-106l350 -637l350 637h-106v39h278v-39h-127l-372 -678l372 -678h127v-39h-278v39h106l-350 637l-350 -637h106v-39h-278z" />
<glyph unicode="y" horiz-adv-x="1062" d="M51 1229q0 102 61.5 163.5t129.5 61.5q85 0 132.5 -28.5t71 -100t23.5 -201.5v-483q0 -7 1 -15.5t9 -27.5t22 -34t43.5 -27.5t69.5 -14.5l258 860h-112v39h276v-39h-123l-403 -1343h113v-39h-277v39h123l135 446q-107 7 -151 82q-20 33 -23 74v483q0 168 -40 230.5 t-148 62.5q-31 0 -64.5 -18t-61.5 -63t-28 -107q0 -71 42 -112.5t112 -41.5v-39q-86 0 -138.5 53.5t-52.5 139.5z" />
<glyph unicode="z" horiz-adv-x="1220" d="M98 1397l6 37h940l17 -31l-459 -733q90 -56 162 -56q57 0 133 39l16 -35q-82 -43 -149 -43q-76 0 -182 62l-373 -598h844q-36 36 -58 96.5t-22 130.5q0 107 57 183l31 -23q-49 -66 -49 -160q0 -51 16 -104q37 -105 92 -125l-6 -37h-940l-16 29l391 628q-7 4 -27.5 16 t-30.5 17.5t-29.5 15t-32.5 14t-30 8t-32 3.5q-41 0 -68 -24l-27 28q42 37 95 37q34 0 66 -11.5t78 -38t58 -32.5l441 705h-844q36 -38 58 -98.5t22 -131.5q0 -104 -58 -182l-30 25q47 63 47 159q0 83 -32.5 149.5t-74.5 80.5z" />
<glyph unicode="&#xa1;" horiz-adv-x="366" d="M152 1262v88h67v-88h-67zM164 -102v1187h39v-1187h-39z" />
<glyph unicode="&#xa8;" horiz-adv-x="632" d="M164 1597v54h39v-54h-39zM430 1597v54h39v-54h-39z" />
<glyph unicode="&#xad;" horiz-adv-x="729" d="M178 766v39h406v-39h-406z" />
<glyph unicode="&#xb4;" horiz-adv-x="671" d="M113 1622l430 156l16 -25l-430 -156z" />
<glyph unicode="&#xb8;" horiz-adv-x="299" d="M41 -272q65 22 122.5 55t57.5 57t-38.5 34.5t-71.5 10.5l-17 19v96h35v-80q50 -2 89.5 -21.5t39.5 -58.5q0 -52 -106 -104q-22 -11 -46.5 -21.5t-38 -15t-14.5 -4.5z" />
<glyph unicode="&#xbf;" horiz-adv-x="1030" d="M164 297q0 -187 74 -293q89 -127 284 -127q86 0 151.5 27t101 65.5t57.5 89t28 88.5t6 74q0 112 -62 183t-159 71q-78 0 -121 -46t-43 -116q0 -84 64 -151l26 28q-51 51 -51 123q0 56 32 89.5t93 33.5q83 0 132.5 -60.5t49.5 -154.5q0 -33 -6 -67.5t-26 -79t-52.5 -78 t-91 -57t-135.5 -23.5q-313 0 -313 379q0 75 13.5 136.5t30 98.5t50 73.5t53 51.5t58.5 43q108 73 143 162q18 46 27.5 116t9.5 124v30h-39v-32q0 -118 -21 -191q-23 -89 -110 -153q-10 -8 -42 -31t-49.5 -37.5t-46.5 -43t-46 -58.5t-35 -72t-26.5 -96.5t-8.5 -118.5z M535 1262v88h67v-88h-67z" />
<glyph unicode="&#xc0;" d="M43 0h279v39h-111l156 459l288 -226l275 236l153 -469h-114v-39h280v39h-127l-159 496l194 167l-27 29l-182 -156l-266 820h229v39h-534v-39h252l-283 -834l-221 170l-23 -31l232 -178l-164 -483h-127v-39zM379 537l276 815l263 -805l-263 -223zM422 1753l16 25l430 -156 l-16 -25z" />
<glyph unicode="&#xc1;" d="M43 0h279v39h-111l156 459l288 -226l275 236l153 -469h-114v-39h280v39h-127l-159 496l194 167l-27 29l-182 -156l-266 820h229v39h-534v-39h252l-283 -834l-221 170l-23 -31l232 -178l-164 -483h-127v-39zM379 537l276 815l263 -805l-263 -223zM422 1622l430 156l16 -25 l-430 -156z" />
<glyph unicode="&#xc2;" d="M43 0h279v39h-111l156 459l288 -226l275 236l153 -469h-114v-39h280v39h-127l-159 496l194 167l-27 29l-182 -156l-266 820h229v39h-534v-39h252l-283 -834l-221 170l-23 -31l232 -178l-164 -483h-127v-39zM379 537l276 815l263 -805l-263 -223zM422 1622l223 133 l223 -133l-16 -25l-207 125l-207 -125z" />
<glyph unicode="&#xc3;" horiz-adv-x="1329" d="M43 0h279v39h-111l156 459l288 -226l275 236l153 -469h-114v-39h280v39h-127l-159 496l194 167l-27 29l-182 -156l-266 820h229v39h-534v-39h252l-283 -834l-221 170l-23 -31l232 -178l-164 -483h-127v-39zM379 537l276 815l263 -805l-263 -223zM461 1618q8 15 20.5 33 t34.5 43.5t52.5 42t62.5 16.5q28 0 52.5 -12.5t42.5 -30.5t35 -36.5t39 -31t46 -12.5q23 0 45.5 11.5t38 28t27.5 33.5t18 29l6 11l31 -14q0 -3 -7.5 -16t-22.5 -33t-34 -38.5t-46.5 -31.5t-55.5 -13q-35 0 -66.5 19t-51 41.5t-45.5 41.5t-52 19q-28 0 -54.5 -15.5 t-45 -39.5t-26.5 -36.5t-13 -22.5z" />
<glyph unicode="&#xc4;" d="M43 0h279v39h-111l156 459l288 -226l275 236l153 -469h-114v-39h280v39h-127l-159 496l194 167l-27 29l-182 -156l-266 820h229v39h-534v-39h252l-283 -834l-221 170l-23 -31l232 -178l-164 -483h-127v-39zM379 537l276 815l263 -805l-263 -223zM494 1597v54h38v-54h-38z M760 1597v54h39v-54h-39z" />
<glyph unicode="&#xc7;" horiz-adv-x="1288" d="M88 717q0 137 55.5 272.5t143.5 237t204 164.5t232 63t207.5 -31t146.5 -82.5t83 -114.5t28 -132q0 -142 -84 -235t-209 -93q-96 0 -172 71.5t-76 174.5q0 85 62 162l28 -25q-51 -63 -51 -135q0 -88 63 -148.5t146 -60.5q48 0 92 17.5t81 51.5t59 91t22 129q0 62 -26 118 t-76.5 102t-134 73.5t-189.5 27.5q-108 0 -217 -60t-192 -156t-135 -224.5t-52 -257.5q0 -199 72 -359t200.5 -250t290.5 -90q190 0 324.5 124.5t134.5 299.5h39q0 -125 -67.5 -231.5t-182.5 -168.5t-248 -62q-173 0 -310.5 95t-214.5 263.5t-77 378.5zM616 -272 q65 22 123 55t58 57t-39 34.5t-72 10.5l-16 19v96h35v-80q50 -2 89.5 -21.5t39.5 -58.5q0 -52 -107 -104q-22 -11 -46 -21.5t-37.5 -15t-14.5 -4.5z" />
<glyph unicode="&#xc8;" horiz-adv-x="1351" d="M94 717q0 -210 77 -378.5t214 -263.5t309 -95q133 0 247.5 61.5t182.5 168t68 232.5h-37q0 -175 -135.5 -299.5t-325.5 -124.5q-161 0 -289 90t-200 250t-72 359v49h459v39h-455q16 164 91.5 304.5t190 223t240.5 82.5q106 0 189.5 -27.5t134 -73.5t76.5 -102t26 -118 q0 -72 -22 -129t-59 -91t-81 -51.5t-92 -17.5v-39q125 0 209 93t84 235q0 164 33.5 233.5t118.5 69.5v37q-82 0 -125 -50.5t-57 -152.5q-46 100 -155.5 161.5t-279.5 61.5q-148 0 -278.5 -102t-208.5 -272.5t-78 -362.5zM453 1753l16 25l430 -156l-16 -25z" />
<glyph unicode="&#xc9;" horiz-adv-x="1351" d="M94 717q0 -210 77 -378.5t214 -263.5t309 -95q133 0 247.5 61.5t182.5 168t68 232.5h-37q0 -175 -135.5 -299.5t-325.5 -124.5q-161 0 -289 90t-200 250t-72 359v49h459v39h-455q16 164 91.5 304.5t190 223t240.5 82.5q106 0 189.5 -27.5t134 -73.5t76.5 -102t26 -118 q0 -72 -22 -129t-59 -91t-81 -51.5t-92 -17.5v-39q125 0 209 93t84 235q0 164 33.5 233.5t118.5 69.5v37q-82 0 -125 -50.5t-57 -152.5q-46 100 -155.5 161.5t-279.5 61.5q-148 0 -278.5 -102t-208.5 -272.5t-78 -362.5zM453 1622l430 156l16 -25l-430 -156z" />
<glyph unicode="&#xca;" horiz-adv-x="1351" d="M94 717q0 -210 77 -378.5t214 -263.5t309 -95q133 0 247.5 61.5t182.5 168t68 232.5h-37q0 -175 -135.5 -299.5t-325.5 -124.5q-161 0 -289 90t-200 250t-72 359v49h459v39h-455q16 164 91.5 304.5t190 223t240.5 82.5q106 0 189.5 -27.5t134 -73.5t76.5 -102t26 -118 q0 -72 -22 -129t-59 -91t-81 -51.5t-92 -17.5v-39q125 0 209 93t84 235q0 164 33.5 233.5t118.5 69.5v37q-82 0 -125 -50.5t-57 -152.5q-46 100 -155.5 161.5t-279.5 61.5q-148 0 -278.5 -102t-208.5 -272.5t-78 -362.5zM453 1622l223 133l223 -133l-16 -25l-207 125 l-207 -125z" />
<glyph unicode="&#xcb;" horiz-adv-x="1351" d="M94 717q0 -210 77 -378.5t214 -263.5t309 -95q133 0 247.5 61.5t182.5 168t68 232.5h-37q0 -175 -135.5 -299.5t-325.5 -124.5q-161 0 -289 90t-200 250t-72 359v49h459v39h-455q16 164 91.5 304.5t190 223t240.5 82.5q106 0 189.5 -27.5t134 -73.5t76.5 -102t26 -118 q0 -72 -22 -129t-59 -91t-81 -51.5t-92 -17.5v-39q125 0 209 93t84 235q0 164 33.5 233.5t118.5 69.5v37q-82 0 -125 -50.5t-57 -152.5q-46 100 -155.5 161.5t-279.5 61.5q-148 0 -278.5 -102t-208.5 -272.5t-78 -362.5zM522 1597v54h39v-54h-39zM788 1597v54h39v-54h-39z " />
<glyph unicode="&#xcc;" horiz-adv-x="319" d="M-63 1753l16 25l430 -156l-16 -25zM23 0v39h118v1356h-118v39h278v-39h-121v-1356h121v-39h-278z" />
<glyph unicode="&#xcd;" horiz-adv-x="319" d="M-63 1622l430 156l16 -25l-430 -156zM23 0v39h118v1356h-118v39h278v-39h-121v-1356h121v-39h-278z" />
<glyph unicode="&#xce;" horiz-adv-x="319" d="M-63 1622l223 133l223 -133l-16 -25l-207 125l-207 -125zM23 0v39h118v1356h-118v39h278v-39h-121v-1356h121v-39h-278z" />
<glyph unicode="&#xcf;" horiz-adv-x="319" d="M8 1597v54h39v-54h-39zM23 0v39h118v1356h-118v39h278v-39h-121v-1356h121v-39h-278zM274 1597v54h39v-54h-39z" />
<glyph unicode="&#xd1;" horiz-adv-x="1280" d="M92 0h275v37h-119v817q0 85 17 165.5t54 152.5t90.5 126t130.5 85.5t169 31.5q180 0 287.5 -94t107.5 -262q0 -123 -54.5 -219t-156.5 -193l-30.5 -30.5l-32 -32t-28.5 -30t-28 -34t-22.5 -33.5t-21.5 -39.5t-14 -41t-11 -48t-3 -51.5q0 -77 22 -137.5t54 -95t72.5 -57 t73 -30t59.5 -7.5q103 0 178.5 68.5t75.5 162.5q0 66 -40 124t-126 91l-14 -35q73 -29 107 -76.5t34 -101.5q0 -72 -58.5 -133.5t-156.5 -61.5q-104 0 -173 74.5t-69 204.5v10q0 94 46 165t131 146q110 103 167.5 205.5t57.5 229.5q0 182 -119 291.5t-315 109.5 q-242 0 -377 -197q-61 -89 -84 -196v373h-156v-37h119v-1360h-119v-37zM436 1618q8 15 20.5 33t34.5 43.5t52.5 42t62.5 16.5q28 0 52.5 -12.5t42.5 -30.5t35 -36.5t39 -31t46 -12.5q23 0 45.5 11.5t38 28t27.5 33.5t18 29l6 11l31 -14q0 -3 -7.5 -16t-22.5 -33t-34 -38.5 t-46.5 -31.5t-55.5 -13q-35 0 -66.5 19t-51 41.5t-45.5 41.5t-52 19q-28 0 -54.5 -15.5t-45 -39.5t-26.5 -36.5t-13 -22.5z" />
<glyph unicode="&#xd2;" horiz-adv-x="1327" d="M96 717q0 -211 72 -379t201.5 -263t294.5 -95t294.5 95t200 263t70.5 379q0 333 -162 536q-160 201 -403 201q-163 0 -292.5 -93.5t-202.5 -262t-73 -381.5zM135 717q0 309 148 503.5t381 194.5t380.5 -194.5t147.5 -503.5t-147.5 -504t-380.5 -195t-381 195t-148 504z M440 1753l17 25l430 -156l-17 -25z" />
<glyph unicode="&#xd3;" horiz-adv-x="1327" d="M96 717q0 -211 72 -379t201.5 -263t294.5 -95t294.5 95t200 263t70.5 379q0 333 -162 536q-160 201 -403 201q-163 0 -292.5 -93.5t-202.5 -262t-73 -381.5zM135 717q0 309 148 503.5t381 194.5t380.5 -194.5t147.5 -503.5t-147.5 -504t-380.5 -195t-381 195t-148 504z M440 1622l430 156l17 -25l-430 -156z" />
<glyph unicode="&#xd4;" horiz-adv-x="1327" d="M96 717q0 -211 72 -379t201.5 -263t294.5 -95t294.5 95t200 263t70.5 379q0 333 -162 536q-160 201 -403 201q-163 0 -292.5 -93.5t-202.5 -262t-73 -381.5zM135 717q0 309 148 503.5t381 194.5t380.5 -194.5t147.5 -503.5t-147.5 -504t-380.5 -195t-381 195t-148 504z M440 1622l224 133l223 -133l-17 -25l-206 125l-207 -125z" />
<glyph unicode="&#xd5;" horiz-adv-x="1267" d="M96 717q0 -211 72 -379t201.5 -263t294.5 -95t294.5 95t200 263t70.5 379q0 333 -162 536q-160 201 -403 201q-163 0 -292.5 -93.5t-202.5 -262t-73 -381.5zM135 717q0 309 148 503.5t381 194.5t380.5 -194.5t147.5 -503.5t-147.5 -504t-380.5 -195t-381 195t-148 504z M430 1618q8 15 20.5 33t34.5 43.5t52.5 42t62.5 16.5q28 0 52.5 -12.5t42.5 -30.5t35 -36.5t39 -31t46 -12.5q23 0 45.5 11.5t38 28t27.5 33.5t18 29l6 11l31 -14q0 -3 -7.5 -16t-22.5 -33t-34 -38.5t-46.5 -31.5t-55.5 -13q-35 0 -66.5 19t-51 41.5t-45.5 41.5t-52 19 q-28 0 -54.5 -15.5t-45 -39.5t-26.5 -36.5t-13 -22.5z" />
<glyph unicode="&#xd6;" horiz-adv-x="1327" d="M96 717q0 -211 72 -379t201.5 -263t294.5 -95t294.5 95t200 263t70.5 379q0 333 -162 536q-160 201 -403 201q-163 0 -292.5 -93.5t-202.5 -262t-73 -381.5zM135 717q0 309 148 503.5t381 194.5t380.5 -194.5t147.5 -503.5t-147.5 -504t-380.5 -195t-381 195t-148 504z M510 1597v54h39v-54h-39zM776 1597v54h39v-54h-39z" />
<glyph unicode="&#xd9;" horiz-adv-x="1333" d="M96 1223q0 -66 40 -124t126 -91l14 34q-73 27 -107 75.5t-34 101.5q0 74 58 135t157 61q108 0 175 -78t67 -211q0 -63 -22 -117t-57.5 -95t-78.5 -80.5t-86 -83t-78.5 -93t-57.5 -120.5t-22 -156q0 -185 118.5 -293t316.5 -108q254 0 383 196q53 82 75 197v-373h158v37 h-119v1360h119v37h-274v-37h116v-817q0 -86 -16.5 -166.5t-53 -153t-89 -126t-129.5 -85t-170 -31.5q-181 0 -288.5 94.5t-107.5 262.5q0 82 22 151t57.5 117t78.5 90.5t86 82.5t78.5 82.5t57.5 100.5t22 127q0 78 -22.5 139t-55 95.5t-73.5 56.5t-72.5 29.5t-57.5 7.5 q-100 0 -177 -67t-77 -164zM442 1753l17 25l430 -156l-17 -25z" />
<glyph unicode="&#xda;" horiz-adv-x="1333" d="M96 1223q0 -66 40 -124t126 -91l14 34q-73 27 -107 75.5t-34 101.5q0 74 58 135t157 61q108 0 175 -78t67 -211q0 -63 -22 -117t-57.5 -95t-78.5 -80.5t-86 -83t-78.5 -93t-57.5 -120.5t-22 -156q0 -185 118.5 -293t316.5 -108q254 0 383 196q53 82 75 197v-373h158v37 h-119v1360h119v37h-274v-37h116v-817q0 -86 -16.5 -166.5t-53 -153t-89 -126t-129.5 -85t-170 -31.5q-181 0 -288.5 94.5t-107.5 262.5q0 82 22 151t57.5 117t78.5 90.5t86 82.5t78.5 82.5t57.5 100.5t22 127q0 78 -22.5 139t-55 95.5t-73.5 56.5t-72.5 29.5t-57.5 7.5 q-100 0 -177 -67t-77 -164zM442 1622l430 156l17 -25l-430 -156z" />
<glyph unicode="&#xdb;" horiz-adv-x="1333" d="M96 1223q0 -66 40 -124t126 -91l14 34q-73 27 -107 75.5t-34 101.5q0 74 58 135t157 61q108 0 175 -78t67 -211q0 -63 -22 -117t-57.5 -95t-78.5 -80.5t-86 -83t-78.5 -93t-57.5 -120.5t-22 -156q0 -185 118.5 -293t316.5 -108q254 0 383 196q53 82 75 197v-373h158v37 h-119v1360h119v37h-274v-37h116v-817q0 -86 -16.5 -166.5t-53 -153t-89 -126t-129.5 -85t-170 -31.5q-181 0 -288.5 94.5t-107.5 262.5q0 82 22 151t57.5 117t78.5 90.5t86 82.5t78.5 82.5t57.5 100.5t22 127q0 78 -22.5 139t-55 95.5t-73.5 56.5t-72.5 29.5t-57.5 7.5 q-100 0 -177 -67t-77 -164zM442 1622l224 133l223 -133l-17 -25l-206 125l-207 -125z" />
<glyph unicode="&#xdc;" horiz-adv-x="1333" d="M96 1223q0 -66 40 -124t126 -91l14 34q-73 27 -107 75.5t-34 101.5q0 74 58 135t157 61q108 0 175 -78t67 -211q0 -63 -22 -117t-57.5 -95t-78.5 -80.5t-86 -83t-78.5 -93t-57.5 -120.5t-22 -156q0 -185 118.5 -293t316.5 -108q254 0 383 196q53 82 75 197v-373h158v37 h-119v1360h119v37h-274v-37h116v-817q0 -86 -16.5 -166.5t-53 -153t-89 -126t-129.5 -85t-170 -31.5q-181 0 -288.5 94.5t-107.5 262.5q0 82 22 151t57.5 117t78.5 90.5t86 82.5t78.5 82.5t57.5 100.5t22 127q0 78 -22.5 139t-55 95.5t-73.5 56.5t-72.5 29.5t-57.5 7.5 q-100 0 -177 -67t-77 -164zM514 1597v54h39v-54h-39zM780 1597v54h39v-54h-39z" />
<glyph unicode="&#xe0;" d="M43 0v39h127l164 483l-232 178l23 31l221 -170l283 834h-252v39h534v-39h-229l266 -820l182 156l27 -29l-194 -167l159 -496h127v-39h-280v39h114l-153 469l-275 -236l-288 226l-156 -459h111v-39h-279zM379 537l276 -213l263 223l-263 805zM422 1753l16 25l430 -156 l-16 -25z" />
<glyph unicode="&#xe1;" d="M43 0v39h127l164 483l-232 178l23 31l221 -170l283 834h-252v39h534v-39h-229l266 -820l182 156l27 -29l-194 -167l159 -496h127v-39h-280v39h114l-153 469l-275 -236l-288 226l-156 -459h111v-39h-279zM379 537l276 -213l263 223l-263 805zM422 1622l430 156l16 -25 l-430 -156z" />
<glyph unicode="&#xe2;" d="M43 0v39h127l164 483l-232 178l23 31l221 -170l283 834h-252v39h534v-39h-229l266 -820l182 156l27 -29l-194 -167l159 -496h127v-39h-280v39h114l-153 469l-275 -236l-288 226l-156 -459h111v-39h-279zM379 537l276 -213l263 223l-263 805zM422 1622l223 133l223 -133 l-16 -25l-207 125l-207 -125z" />
<glyph unicode="&#xe3;" horiz-adv-x="1329" d="M43 0v39h127l164 483l-232 178l23 31l221 -170l283 834h-252v39h534v-39h-229l266 -820l182 156l27 -29l-194 -167l159 -496h127v-39h-280v39h114l-153 469l-275 -236l-288 226l-156 -459h111v-39h-279zM379 537l276 -213l263 223l-263 805zM461 1618q8 15 20.5 33 t34.5 43.5t52.5 42t62.5 16.5q28 0 52.5 -12.5t42.5 -30.5t35 -36.5t39 -31t46 -12.5q23 0 45.5 11.5t38 28t27.5 33.5t18 29l6 11l31 -14q0 -3 -7.5 -16t-22.5 -33t-34 -38.5t-46.5 -31.5t-55.5 -13q-35 0 -66.5 19t-51 41.5t-45.5 41.5t-52 19q-28 0 -54.5 -15.5 t-45 -39.5t-26.5 -36.5t-13 -22.5z" />
<glyph unicode="&#xe4;" d="M43 0v39h127l164 483l-232 178l23 31l221 -170l283 834h-252v39h534v-39h-229l266 -820l182 156l27 -29l-194 -167l159 -496h127v-39h-280v39h114l-153 469l-275 -236l-288 226l-156 -459h111v-39h-279zM379 537l276 -213l263 223l-263 805zM494 1597v54h38v-54h-38z M760 1597v54h39v-54h-39z" />
<glyph unicode="&#xe7;" horiz-adv-x="1288" d="M88 717q0 137 55.5 272.5t143.5 237t204 164.5t232 63t207.5 -31t146.5 -82.5t83 -114.5t28 -132q0 -142 -84 -235t-209 -93q-96 0 -172 71.5t-76 174.5q0 85 62 162l28 -25q-51 -63 -51 -135q0 -88 63 -148.5t146 -60.5q48 0 92 17.5t81 51.5t59 91t22 129q0 62 -26 118 t-76.5 102t-134 73.5t-189.5 27.5q-108 0 -217 -60t-192 -156t-135 -224.5t-52 -257.5q0 -199 72 -359t200.5 -250t290.5 -90q190 0 324.5 124.5t134.5 299.5h39q0 -125 -67.5 -231.5t-182.5 -168.5t-248 -62q-173 0 -310.5 95t-214.5 263.5t-77 378.5zM616 -272 q65 22 123 55t58 57t-39 34.5t-72 10.5l-16 19v96h35v-80q50 -2 89.5 -21.5t39.5 -58.5q0 -52 -107 -104q-22 -11 -46 -21.5t-37.5 -15t-14.5 -4.5z" />
<glyph unicode="&#xe8;" horiz-adv-x="1114" d="M90 0v39h121v1356h-121v39h907l7 -37q-48 -19 -70.5 -85t-22.5 -143q0 -100 33 -165l-33 -17q-39 74 -39 184q0 150 66 224h-688v-660h504v-39h-504v-657h688q-66 75 -66 219q0 111 39 188l33 -16q-33 -67 -33 -166q0 -85 27 -149q26 -64 66 -78l-7 -37h-907zM334 1753 l16 25l430 -156l-16 -25z" />
<glyph unicode="&#xe9;" horiz-adv-x="1114" d="M90 0v39h121v1356h-121v39h907l7 -37q-48 -19 -70.5 -85t-22.5 -143q0 -100 33 -165l-33 -17q-39 74 -39 184q0 150 66 224h-688v-660h504v-39h-504v-657h688q-66 75 -66 219q0 111 39 188l33 -16q-33 -67 -33 -166q0 -85 27 -149q26 -64 66 -78l-7 -37h-907zM334 1622 l430 156l16 -25l-430 -156z" />
<glyph unicode="&#xea;" horiz-adv-x="1114" d="M90 0v39h121v1356h-121v39h907l7 -37q-48 -19 -70.5 -85t-22.5 -143q0 -100 33 -165l-33 -17q-39 74 -39 184q0 150 66 224h-688v-660h504v-39h-504v-657h688q-66 75 -66 219q0 111 39 188l33 -16q-33 -67 -33 -166q0 -85 27 -149q26 -64 66 -78l-7 -37h-907zM334 1622 l223 133l223 -133l-16 -25l-207 125l-207 -125z" />
<glyph unicode="&#xeb;" horiz-adv-x="1114" d="M90 0v39h121v1356h-121v39h907l7 -37q-48 -19 -70.5 -85t-22.5 -143q0 -100 33 -165l-33 -17q-39 74 -39 184q0 150 66 224h-688v-660h504v-39h-504v-657h688q-66 75 -66 219q0 111 39 188l33 -16q-33 -67 -33 -166q0 -85 27 -149q26 -64 66 -78l-7 -37h-907zM403 1597 v54h39v-54h-39zM670 1597v54h39v-54h-39z" />
<glyph unicode="&#xec;" horiz-adv-x="319" d="M-63 1753l16 25l430 -156l-16 -25zM23 0v39h118v1356h-118v39h278v-39h-121v-1356h121v-39h-278z" />
<glyph unicode="&#xed;" horiz-adv-x="319" d="M-63 1622l430 156l16 -25l-430 -156zM23 0v39h118v1356h-118v39h278v-39h-121v-1356h121v-39h-278z" />
<glyph unicode="&#xee;" horiz-adv-x="319" d="M-63 1622l223 133l223 -133l-16 -25l-207 125l-207 -125zM23 0v39h118v1356h-118v39h278v-39h-121v-1356h121v-39h-278z" />
<glyph unicode="&#xef;" horiz-adv-x="319" d="M8 1597v54h39v-54h-39zM23 0v39h118v1356h-118v39h278v-39h-121v-1356h121v-39h-278zM274 1597v54h39v-54h-39z" />
<glyph unicode="&#xf1;" horiz-adv-x="1280" d="M92 0h275v37h-119v817q0 85 17 165.5t54 152.5t90.5 126t130.5 85.5t169 31.5q180 0 287.5 -94t107.5 -262q0 -123 -54.5 -219t-156.5 -193l-30.5 -30.5l-32 -32t-28.5 -30t-28 -34t-22.5 -33.5t-21.5 -39.5t-14 -41t-11 -48t-3 -51.5q0 -77 22 -137.5t54 -95t72.5 -57 t73 -30t59.5 -7.5q103 0 178.5 68.5t75.5 162.5q0 66 -40 124t-126 91l-14 -35q73 -29 107 -76.5t34 -101.5q0 -72 -58.5 -133.5t-156.5 -61.5q-104 0 -173 74.5t-69 204.5v10q0 94 46 165t131 146q110 103 167.5 205.5t57.5 229.5q0 182 -119 291.5t-315 109.5 q-242 0 -377 -197q-61 -89 -84 -196v373h-156v-37h119v-1360h-119v-37zM436 1618q8 15 20.5 33t34.5 43.5t52.5 42t62.5 16.5q28 0 52.5 -12.5t42.5 -30.5t35 -36.5t39 -31t46 -12.5q23 0 45.5 11.5t38 28t27.5 33.5t18 29l6 11l31 -14q0 -3 -7.5 -16t-22.5 -33t-34 -38.5 t-46.5 -31.5t-55.5 -13q-35 0 -66.5 19t-51 41.5t-45.5 41.5t-52 19q-28 0 -54.5 -15.5t-45 -39.5t-26.5 -36.5t-13 -22.5z" />
<glyph unicode="&#xf2;" horiz-adv-x="1327" d="M96 717q0 -211 72 -379t201.5 -263t294.5 -95t294.5 95t200 263t70.5 379q0 333 -162 536q-160 201 -403 201q-163 0 -292.5 -93.5t-202.5 -262t-73 -381.5zM135 717q0 309 148 503.5t381 194.5t380.5 -194.5t147.5 -503.5t-147.5 -504t-380.5 -195t-381 195t-148 504z M440 1753l17 25l430 -156l-17 -25zM616 717q0 -20 14 -33.5t34 -13.5t34.5 13.5t14.5 33.5t-14.5 34.5t-34.5 14.5t-34 -14.5t-14 -34.5z" />
<glyph unicode="&#xf3;" horiz-adv-x="1327" d="M96 717q0 -211 72 -379t201.5 -263t294.5 -95t294.5 95t200 263t70.5 379q0 333 -162 536q-160 201 -403 201q-163 0 -292.5 -93.5t-202.5 -262t-73 -381.5zM135 717q0 309 148 503.5t381 194.5t380.5 -194.5t147.5 -503.5t-147.5 -504t-380.5 -195t-381 195t-148 504z M440 1622l430 156l17 -25l-430 -156zM616 717q0 -20 14 -33.5t34 -13.5t34.5 13.5t14.5 33.5t-14.5 34.5t-34.5 14.5t-34 -14.5t-14 -34.5z" />
<glyph unicode="&#xf4;" horiz-adv-x="1327" d="M96 717q0 -211 72 -379t201.5 -263t294.5 -95t294.5 95t200 263t70.5 379q0 333 -162 536q-160 201 -403 201q-163 0 -292.5 -93.5t-202.5 -262t-73 -381.5zM135 717q0 309 148 503.5t381 194.5t380.5 -194.5t147.5 -503.5t-147.5 -504t-380.5 -195t-381 195t-148 504z M440 1622l224 133l223 -133l-17 -25l-206 125l-207 -125zM616 717q0 -20 14 -33.5t34 -13.5t34.5 13.5t14.5 33.5t-14.5 34.5t-34.5 14.5t-34 -14.5t-14 -34.5z" />
<glyph unicode="&#xf5;" horiz-adv-x="1267" d="M96 717q0 -211 72 -379t201.5 -263t294.5 -95t294.5 95t200 263t70.5 379q0 333 -162 536q-160 201 -403 201q-163 0 -292.5 -93.5t-202.5 -262t-73 -381.5zM135 717q0 309 148 503.5t381 194.5t380.5 -194.5t147.5 -503.5t-147.5 -504t-380.5 -195t-381 195t-148 504z M430 1618q8 15 20.5 33t34.5 43.5t52.5 42t62.5 16.5q28 0 52.5 -12.5t42.5 -30.5t35 -36.5t39 -31t46 -12.5q23 0 45.5 11.5t38 28t27.5 33.5t18 29l6 11l31 -14q0 -3 -7.5 -16t-22.5 -33t-34 -38.5t-46.5 -31.5t-55.5 -13q-35 0 -66.5 19t-51 41.5t-45.5 41.5t-52 19 q-28 0 -54.5 -15.5t-45 -39.5t-26.5 -36.5t-13 -22.5zM616 717q0 -20 14 -33.5t34 -13.5t34.5 13.5t14.5 33.5t-14.5 34.5t-34.5 14.5t-34 -14.5t-14 -34.5z" />
<glyph unicode="&#xf6;" horiz-adv-x="1327" d="M96 717q0 -211 72 -379t201.5 -263t294.5 -95t294.5 95t200 263t70.5 379q0 333 -162 536q-160 201 -403 201q-163 0 -292.5 -93.5t-202.5 -262t-73 -381.5zM135 717q0 309 148 503.5t381 194.5t380.5 -194.5t147.5 -503.5t-147.5 -504t-380.5 -195t-381 195t-148 504z M510 1597v54h39v-54h-39zM616 717q0 -20 14 -33.5t34 -13.5t34.5 13.5t14.5 33.5t-14.5 34.5t-34.5 14.5t-34 -14.5t-14 -34.5zM776 1597v54h39v-54h-39z" />
<glyph unicode="&#xf9;" horiz-adv-x="1333" d="M96 1223q0 -66 40 -124t126 -91l14 34q-73 27 -107 75.5t-34 101.5q0 74 58 135t157 61q108 0 175 -78t67 -211q0 -63 -22 -117t-57.5 -95t-78.5 -80.5t-86 -83t-78.5 -93t-57.5 -120.5t-22 -156q0 -185 118.5 -293t316.5 -108q254 0 383 196q53 82 75 197v-373h158v37 h-119v1360h119v37h-274v-37h116v-817q0 -86 -16.5 -166.5t-53 -153t-89 -126t-129.5 -85t-170 -31.5q-181 0 -288.5 94.5t-107.5 262.5q0 82 22 151t57.5 117t78.5 90.5t86 82.5t78.5 82.5t57.5 100.5t22 127q0 78 -22.5 139t-55 95.5t-73.5 56.5t-72.5 29.5t-57.5 7.5 q-100 0 -177 -67t-77 -164zM442 1753l17 25l430 -156l-17 -25z" />
<glyph unicode="&#xfa;" horiz-adv-x="1333" d="M96 1223q0 -66 40 -124t126 -91l14 34q-73 27 -107 75.5t-34 101.5q0 74 58 135t157 61q108 0 175 -78t67 -211q0 -63 -22 -117t-57.5 -95t-78.5 -80.5t-86 -83t-78.5 -93t-57.5 -120.5t-22 -156q0 -185 118.5 -293t316.5 -108q254 0 383 196q53 82 75 197v-373h158v37 h-119v1360h119v37h-274v-37h116v-817q0 -86 -16.5 -166.5t-53 -153t-89 -126t-129.5 -85t-170 -31.5q-181 0 -288.5 94.5t-107.5 262.5q0 82 22 151t57.5 117t78.5 90.5t86 82.5t78.5 82.5t57.5 100.5t22 127q0 78 -22.5 139t-55 95.5t-73.5 56.5t-72.5 29.5t-57.5 7.5 q-100 0 -177 -67t-77 -164zM442 1622l430 156l17 -25l-430 -156z" />
<glyph unicode="&#xfb;" horiz-adv-x="1333" d="M96 1223q0 -66 40 -124t126 -91l14 34q-73 27 -107 75.5t-34 101.5q0 74 58 135t157 61q108 0 175 -78t67 -211q0 -63 -22 -117t-57.5 -95t-78.5 -80.5t-86 -83t-78.5 -93t-57.5 -120.5t-22 -156q0 -185 118.5 -293t316.5 -108q254 0 383 196q53 82 75 197v-373h158v37 h-119v1360h119v37h-274v-37h116v-817q0 -86 -16.5 -166.5t-53 -153t-89 -126t-129.5 -85t-170 -31.5q-181 0 -288.5 94.5t-107.5 262.5q0 82 22 151t57.5 117t78.5 90.5t86 82.5t78.5 82.5t57.5 100.5t22 127q0 78 -22.5 139t-55 95.5t-73.5 56.5t-72.5 29.5t-57.5 7.5 q-100 0 -177 -67t-77 -164zM442 1622l224 133l223 -133l-17 -25l-206 125l-207 -125z" />
<glyph unicode="&#xfc;" horiz-adv-x="1333" d="M96 1223q0 -66 40 -124t126 -91l14 34q-73 27 -107 75.5t-34 101.5q0 74 58 135t157 61q108 0 175 -78t67 -211q0 -63 -22 -117t-57.5 -95t-78.5 -80.5t-86 -83t-78.5 -93t-57.5 -120.5t-22 -156q0 -185 118.5 -293t316.5 -108q254 0 383 196q53 82 75 197v-373h158v37 h-119v1360h119v37h-274v-37h116v-817q0 -86 -16.5 -166.5t-53 -153t-89 -126t-129.5 -85t-170 -31.5q-181 0 -288.5 94.5t-107.5 262.5q0 82 22 151t57.5 117t78.5 90.5t86 82.5t78.5 82.5t57.5 100.5t22 127q0 78 -22.5 139t-55 95.5t-73.5 56.5t-72.5 29.5t-57.5 7.5 q-100 0 -177 -67t-77 -164zM514 1597v54h39v-54h-39zM780 1597v54h39v-54h-39z" />
<glyph unicode="&#x2c6;" horiz-adv-x="671" d="M113 1622l223 133l223 -133l-16 -25l-207 125l-207 -125z" />
<glyph unicode="&#x2dc;" horiz-adv-x="745" d="M98 1618q8 15 20.5 33t34.5 43.5t52.5 42t62.5 16.5q28 0 52.5 -12.5t42.5 -30.5t35 -36.5t39 -31t46 -12.5q23 0 45.5 11.5t38 28t27.5 33.5t18 29l6 11l31 -14q0 -3 -7.5 -16t-22.5 -33t-34 -38.5t-46.5 -31.5t-55.5 -13q-35 0 -66.5 19t-51 41.5t-45.5 41.5t-52 19 q-28 0 -54.5 -15.5t-45 -39.5t-26.5 -36.5t-13 -22.5z" />
<glyph unicode="&#x2000;" horiz-adv-x="889" />
<glyph unicode="&#x2001;" horiz-adv-x="1778" />
<glyph unicode="&#x2002;" horiz-adv-x="889" />
<glyph unicode="&#x2003;" horiz-adv-x="1778" />
<glyph unicode="&#x2004;" horiz-adv-x="592" />
<glyph unicode="&#x2005;" horiz-adv-x="444" />
<glyph unicode="&#x2006;" horiz-adv-x="296" />
<glyph unicode="&#x2007;" horiz-adv-x="296" />
<glyph unicode="&#x2008;" horiz-adv-x="222" />
<glyph unicode="&#x2009;" horiz-adv-x="355" />
<glyph unicode="&#x200a;" horiz-adv-x="98" />
<glyph unicode="&#x2010;" horiz-adv-x="729" d="M178 766v39h406v-39h-406z" />
<glyph unicode="&#x2011;" horiz-adv-x="729" d="M178 766v39h406v-39h-406z" />
<glyph unicode="&#x2012;" horiz-adv-x="729" d="M178 766v39h406v-39h-406z" />
<glyph unicode="&#x2013;" horiz-adv-x="1347" d="M178 766v39h1024v-39h-1024z" />
<glyph unicode="&#x2014;" horiz-adv-x="2371" d="M178 766v39h2048v-39h-2048z" />
<glyph unicode="&#x202f;" horiz-adv-x="355" />
<glyph unicode="&#x205f;" horiz-adv-x="444" />
<glyph unicode="&#xe000;" horiz-adv-x="1433" d="M0 0v1434h1434v-1434h-1434z" />
</font>
</defs>
</svg>
